GeoramaExtended-MediumItalic.ufo
<glyph name="exclam" format="2">
  <advance width="290.89799999999997"/>
  <unicode hex="0021"/>
  <outline>
    <contour>
      <point x="93.614" y="261.85" type="line"/>
      <point x="191.422" y="261.85" type="line"/>
      <point x="275.323" y="740.0" type="line"/>
      <point x="162.89499999999998" y="740.0" type="line"/>
    </contour>
    <contour>
      <point x="43.687999999999995" y="38.122" type="curve" smooth="yes"/>
      <point x="43.117999999999995" y="8.825"/>
      <point x="59.28999999999999" y="-4.3"/>
      <point x="100.50699999999999" y="-4.3" type="curve" smooth="yes"/>
      <point x="151.791" y="-4.3"/>
      <point x="176.184" y="19.360999999999997"/>
      <point x="177.89399999999998" y="71.90199999999999" type="curve" smooth="yes"/>
      <point x="178.46399999999997" y="101.36999999999999"/>
      <point x="161.94999999999996" y="114.324"/>
      <point x="121.205" y="114.324" type="curve" smooth="yes"/>
      <point x="69.01599999999999" y="114.324"/>
      <point x="45.398" y="89.416"/>
    </contour>
  </outline>
</glyph>
<glyph name="numbersign" format="2">
  <advance width="825.5459999999999"/>
  <unicode hex="0023"/>
  <outline>
    <contour>
      <point x="168.28799999999998" y="448.858" type="line"/>
      <point x="274.112" y="448.858" type="line"/>
      <point x="201.882" y="246.26099999999997" type="line"/>
      <point x="101.461" y="246.26099999999997" type="line"/>
      <point x="88.627" y="167.127" type="line"/>
      <point x="176.64799999999997" y="167.127" type="line"/>
      <point x="118.93199999999999" y="0.0" type="line"/>
      <point x="229.66099999999997" y="0.0" type="line"/>
      <point x="286.807" y="167.127" type="line"/>
      <point x="438.608" y="167.127" type="line"/>
      <point x="381.462" y="0.0" type="line"/>
      <point x="491.891" y="0.0" type="line"/>
      <point x="549.0369999999999" y="167.127" type="line"/>
      <point x="668.042" y="167.127" type="line"/>
      <point x="680.404" y="246.26099999999997" type="line"/>
      <point x="575.2719999999999" y="246.26099999999997" type="line"/>
      <point x="646.501" y="448.858" type="line"/>
      <point x="747.231" y="448.858" type="line"/>
      <point x="760.422" y="527.648" type="line"/>
      <point x="672.134" y="527.648" type="line"/>
      <point x="732.257" y="700.0" type="line"/>
      <point x="621.699" y="700.0" type="line"/>
      <point x="561.5759999999999" y="527.648" type="line"/>
      <point x="409.775" y="527.648" type="line"/>
      <point x="469.898" y="700.0" type="line"/>
      <point x="359.46899999999994" y="700.0" type="line"/>
      <point x="299.346" y="527.648" type="line"/>
      <point x="181.178" y="527.648" type="line"/>
    </contour>
    <contour>
      <point x="384.541" y="448.858" type="line"/>
      <point x="536.342" y="448.858" type="line"/>
      <point x="464.24099999999993" y="246.26099999999997" type="line"/>
      <point x="312.44" y="246.26099999999997" type="line"/>
    </contour>
  </outline>
</glyph>
<glyph name="dollar" format="2">
  <advance width="825.5459999999999"/>
  <unicode hex="0024"/>
  <outline>
    <contour>
      <point x="749.7280000000001" y="670.468" type="line"/>
      <point x="708.625" y="683.6460000000001"/>
      <point x="636.088" y="705.204"/>
      <point x="538.3199999999999" y="709.183" type="curve"/>
      <point x="554.02" y="804.742" type="line"/>
      <point x="468.94" y="804.742" type="line"/>
      <point x="453.081" y="706.7330000000001" type="line"/>
      <point x="305.301" y="698.171"/>
      <point x="146.582" y="640.646"/>
      <point x="146.582" y="486.996" type="curve" smooth="yes"/>
      <point x="146.582" y="261.76800000000003"/>
      <point x="597.9499999999999" y="329.802"/>
      <point x="597.9499999999999" y="194.813" type="curve" smooth="yes"/>
      <point x="597.9499999999999" y="106.464"/>
      <point x="474.196" y="80.207"/>
      <point x="383.91099999999994" y="80.207" type="curve" smooth="yes"/>
      <point x="273.43899999999996" y="80.207"/>
      <point x="147.36899999999997" y="111.253"/>
      <point x="87.544" y="134.46999999999997" type="curve"/>
      <point x="51.29599999999999" y="43.045" type="line"/>
      <point x="112.889" y="22.646"/>
      <point x="219.84799999999998" y="-6.106999999999999"/>
      <point x="333.31100000000004" y="-8.925" type="curve"/>
      <point x="318.31100000000004" y="-105.0" type="line"/>
      <point x="403.09" y="-105.0" type="line"/>
      <point x="418.09" y="-6.862000000000001" type="line"/>
      <point x="563.29" y="5.097000000000001"/>
      <point x="723.558" y="56.87799999999999"/>
      <point x="723.558" y="213.248" type="curve" smooth="yes"/>
      <point x="723.558" y="435.3329999999999"/>
      <point x="271.318" y="365.26099999999997"/>
      <point x="271.318" y="503.4680000000001" type="curve" smooth="yes"/>
      <point x="271.318" y="591.0320000000002"/>
      <point x="393.066" y="617.8989999999999"/>
      <point x="475.875" y="617.8989999999999" type="curve" smooth="yes"/>
      <point x="574.8000000000001" y="617.8989999999999"/>
      <point x="653.403" y="602.1179999999999"/>
      <point x="715.586" y="579.772" type="curve"/>
    </contour>
  </outline>
</glyph>
<glyph name="ampersand" format="2">
  <advance width="872.9379999999999"/>
  <unicode hex="0026"/>
  <outline>
    <contour>
      <point x="348.38699999999994" y="-10.0" type="curve" smooth="yes"/>
      <point x="550.174" y="-10.0"/>
      <point x="704.741" y="94.932"/>
      <point x="748.515" y="297.47499999999997" type="curve"/>
      <point x="654.663" y="299.06" type="line"/>
      <point x="630.8449999999999" y="151.502"/>
      <point x="493.77099999999996" y="75.04899999999999"/>
      <point x="360.64" y="75.04899999999999" type="curve" smooth="yes"/>
      <point x="230.057" y="75.04899999999999"/>
      <point x="160.612" y="123.06799999999998"/>
      <point x="160.612" y="191.44199999999998" type="curve" smooth="yes"/>
      <point x="160.612" y="297.017"/>
      <point x="273.3790000000001" y="339.888"/>
      <point x="390.79" y="339.888" type="curve" smooth="yes"/>
      <point x="425.596" y="339.888" type="line"/>
      <point x="439.482" y="404.223" type="line"/>
      <point x="424.337" y="405.94300000000004" type="line" smooth="yes"/>
      <point x="329.181" y="413.941"/>
      <point x="267.982" y="448.519"/>
      <point x="267.982" y="517.2059999999999" type="curve" smooth="yes"/>
      <point x="267.982" y="575.257"/>
      <point x="319.627" y="629.8580000000001"/>
      <point x="413.89" y="629.8580000000001" type="curve" smooth="yes"/>
      <point x="471.635" y="629.8580000000001"/>
      <point x="529.7110000000001" y="607.627"/>
      <point x="571.622" y="571.727" type="curve"/>
      <point x="633.087" y="635.519" type="line"/>
      <point x="576.068" y="683.085"/>
      <point x="492.545" y="710.0"/>
      <point x="401.87799999999993" y="710.0" type="curve" smooth="yes"/>
      <point x="241.67100000000002" y="710.0"/>
      <point x="149.98400000000004" y="626.899"/>
      <point x="149.98400000000004" y="533.548" type="curve" smooth="yes"/>
      <point x="149.98400000000004" y="460.10099999999994"/>
      <point x="203.777" y="401.232"/>
      <point x="285.46099999999996" y="384.74" type="curve"/>
      <point x="140.921" y="372.41999999999996"/>
      <point x="40.291999999999994" y="306.88700000000006"/>
      <point x="40.291999999999994" y="181.897" type="curve" smooth="yes"/>
      <point x="40.291999999999994" y="68.048"/>
      <point x="140.86899999999997" y="-10.0"/>
    </contour>
    <contour>
      <point x="513.2399999999999" y="227.67" type="line"/>
      <point x="519.205" y="272.169"/>
      <point x="550.5629999999999" y="287.158"/>
      <point x="586.6750000000001" y="287.158" type="curve" smooth="yes"/>
      <point x="656.3389999999999" y="287.158"/>
      <point x="702.2320000000001" y="265.478"/>
      <point x="767.9429999999999" y="265.478" type="curve" smooth="yes"/>
      <point x="842.7649999999999" y="265.478"/>
      <point x="892.4359999999999" y="327.033"/>
      <point x="891.0079999999999" y="408.3539999999999" type="curve"/>
      <point x="820.6629999999999" y="409.893" type="line"/>
      <point x="819.2079999999999" y="360.808"/>
      <point x="788.9359999999999" y="339.39099999999996"/>
      <point x="737.6859999999999" y="339.39099999999996" type="curve" smooth="yes"/>
      <point x="677.28" y="339.39099999999996"/>
      <point x="641.188" y="364.683"/>
      <point x="577.444" y="364.683" type="curve" smooth="yes"/>
      <point x="506.44399999999996" y="364.683"/>
      <point x="455.77299999999997" y="317.953"/>
      <point x="449.124" y="246.80700000000002" type="curve"/>
    </contour>
  </outline>
</glyph>
<glyph name="quotesingle" format="2">
  <advance width="202.613"/>
  <unicode hex="0027"/>
  <outline>
    <contour>
      <point x="80.042" y="427.0" type="line"/>
      <point x="169.32399999999998" y="427.0" type="line"/>
      <point x="218.904" y="700.0" type="line"/>
      <point x="117.709" y="700.0" type="line"/>
    </contour>
  </outline>
</glyph>
<glyph name="parenleft" format="2">
  <advance width="392.57300000000004"/>
  <unicode hex="0028"/>
  <outline>
    <contour>
      <point x="81.188" y="99.88" type="curve" smooth="yes"/>
      <point x="81.188" y="-62.196000000000005"/>
      <point x="138.603" y="-194.141"/>
      <point x="282.234" y="-220.0" type="curve"/>
      <point x="296.963" y="-141.54" type="line"/>
      <point x="214.71599999999998" y="-116.819"/>
      <point x="174.063" y="-29.213000000000005"/>
      <point x="174.063" y="97.852" type="curve" smooth="yes"/>
      <point x="174.063" y="313.129"/>
      <point x="265.625" y="632.321"/>
      <point x="423.884" y="668.448" type="curve"/>
      <point x="434.935" y="749.829" type="line"/>
      <point x="184.17399999999998" y="715.034"/>
      <point x="81.188" y="352.219"/>
    </contour>
  </outline>
</glyph>
<glyph name="parenright" format="2">
  <advance width="392.57300000000004"/>
  <unicode hex="0029"/>
  <outline>
    <contour>
      <point x="308.255" y="429.32200000000006" type="curve" smooth="yes"/>
      <point x="308.255" y="595.297"/>
      <point x="250.213" y="724.1410000000001"/>
      <point x="106.183" y="750.0" type="curve"/>
      <point x="91.796" y="668.7239999999999" type="line"/>
      <point x="178.37500000000003" y="642.179"/>
      <point x="215.38" y="552.977"/>
      <point x="215.38" y="432.06800000000004" type="curve" smooth="yes"/>
      <point x="215.38" y="224.71399999999997"/>
      <point x="126.43999999999998" y="-99.642"/>
      <point x="-35.41" y="-137.99200000000002" type="curve"/>
      <point x="-46.29" y="-220.0" type="line"/>
      <point x="189.366" y="-184.564"/>
      <point x="308.255" y="160.784"/>
    </contour>
  </outline>
</glyph>
<glyph name="asterisk" format="2">
  <advance width="402.406"/>
  <unicode hex="002A"/>
  <outline>
    <contour>
      <point x="125.184" y="332.07" type="line"/>
      <point x="229.01199999999997" y="452.906" type="line"/>
      <point x="293.04200000000003" y="332.241" type="line"/>
      <point x="339.967" y="362.943" type="line"/>
      <point x="286.442" y="494.39899999999994" type="line"/>
      <point x="421.263" y="549.004" type="line"/>
      <point x="413.448" y="600.166" type="line"/>
      <point x="278.875" y="560.846" type="line"/>
      <point x="297.67" y="714.019" type="line"/>
      <point x="244.53699999999998" y="714.019" type="line"/>
      <point x="214.476" y="561.017" type="line"/>
      <point x="91.57600000000001" y="600.337" type="line"/>
      <point x="68.29199999999999" y="549.346" type="line"/>
      <point x="184.72899999999998" y="494.741" type="line"/>
      <point x="88.33099999999999" y="363.74100000000004" type="line"/>
    </contour>
  </outline>
</glyph>
<glyph name="plus" format="2">
  <advance width="535.693"/>
  <unicode hex="002B"/>
  <outline>
    <contour>
      <point x="189.083" y="88.25399999999999" type="line"/>
      <point x="287.621" y="88.25399999999999" type="line"/>
      <point x="313.858" y="256.82399999999996" type="line"/>
      <point x="477.152" y="256.82399999999996" type="line"/>
      <point x="492.321" y="349.59999999999997" type="line"/>
      <point x="329.027" y="349.59999999999997" type="line"/>
      <point x="355.964" y="518.04" type="line"/>
      <point x="258.028" y="518.04" type="line"/>
      <point x="230.48899999999998" y="349.59999999999997" type="line"/>
      <point x="67.92699999999999" y="349.59999999999997" type="line"/>
      <point x="52.757999999999996" y="256.82399999999996" type="line"/>
      <point x="215.922" y="256.82399999999996" type="line"/>
    </contour>
  </outline>
</glyph>
<glyph name="comma" format="2">
  <advance width="237.356"/>
  <unicode hex="002C"/>
  <outline>
    <contour>
      <point x="34.649" y="64.716" type="line"/>
      <point x="35.986000000000004" y="46.025"/>
      <point x="35.06399999999999" y="27.107999999999997"/>
      <point x="33.473000000000006" y="10.856000000000002" type="curve" smooth="yes"/>
      <point x="28.098" y="-54.193"/>
      <point x="-9.111000000000002" y="-133.71099999999998"/>
      <point x="-66.634" y="-176.631" type="curve"/>
      <point x="14.959999999999994" y="-197.546" type="line"/>
      <point x="94.07000000000001" y="-143.91299999999998"/>
      <point x="144.345" y="-48.801"/>
      <point x="144.345" y="31.706" type="curve" smooth="yes"/>
      <point x="144.345" y="45.229000000000006"/>
      <point x="142.718" y="58.053"/>
      <point x="139.478" y="69.934" type="curve"/>
    </contour>
  </outline>
</glyph>
<glyph name="hyphen" format="2">
  <advance width="393.474"/>
  <unicode hex="002D"/>
  <outline>
    <contour>
      <point x="48.92499999999999" y="239.608" type="line"/>
      <point x="332.83099999999996" y="239.608" type="line"/>
      <point x="348.687" y="335.492" type="line"/>
      <point x="64.781" y="335.492" type="line"/>
    </contour>
  </outline>
</glyph>
<glyph name="period" format="2">
  <advance width="241.269"/>
  <unicode hex="002E"/>
  <outline>
    <contour>
      <point x="18.444" y="38.509" type="curve" smooth="yes"/>
      <point x="17.874" y="9.083"/>
      <point x="33.916999999999994" y="-3.913"/>
      <point x="75.263" y="-3.913" type="curve" smooth="yes"/>
      <point x="126.547" y="-3.913"/>
      <point x="150.811" y="19.747999999999998"/>
      <point x="152.521" y="72.547" type="curve" smooth="yes"/>
      <point x="153.09099999999998" y="101.886"/>
      <point x="136.706" y="114.711"/>
      <point x="95.961" y="114.711" type="curve" smooth="yes"/>
      <point x="43.642999999999994" y="114.711"/>
      <point x="20.154" y="89.803"/>
    </contour>
  </outline>
</glyph>
<glyph name="slash" format="2">
  <advance width="435.8349999999999"/>
  <unicode hex="002F"/>
  <outline>
    <contour>
      <point x="-69.409" y="-210.0" type="line"/>
      <point x="25.566000000000003" y="-210.0" type="line"/>
      <point x="502.24399999999997" y="740.0" type="line"/>
      <point x="406.71" y="740.0" type="line"/>
    </contour>
  </outline>
</glyph>
<glyph name="zero" format="2">
  <advance width="826.0619999999999"/>
  <unicode hex="0030"/>
  <outline>
    <contour>
      <point x="395.854" y="-10.86" type="curve" smooth="yes"/>
      <point x="637.1439999999999" y="-10.86"/>
      <point x="786.8000000000001" y="168.99200000000005"/>
      <point x="786.8000000000001" y="415.51" type="curve" smooth="yes"/>
      <point x="786.8000000000001" y="606.8059999999999"/>
      <point x="669.996" y="710.43"/>
      <point x="453.59599999999995" y="710.43" type="curve" smooth="yes"/>
      <point x="207.908" y="710.43"/>
      <point x="62.748" y="529.914"/>
      <point x="62.748" y="285.976" type="curve" smooth="yes"/>
      <point x="62.748" y="95.11"/>
      <point x="180.51" y="-10.86"/>
    </contour>
    <contour>
      <point x="400.58399999999995" y="78.66" type="curve" smooth="yes"/>
      <point x="262.01599999999996" y="78.66"/>
      <point x="187.05599999999998" y="154.34000000000003"/>
      <point x="187.09799999999998" y="288.514" type="curve" smooth="yes"/>
      <point x="187.18200000000002" y="465.854"/>
      <point x="274.214" y="621.3399999999999"/>
      <point x="449.29599999999994" y="621.3399999999999" type="curve" smooth="yes"/>
      <point x="588.06" y="621.3399999999999"/>
      <point x="662.492" y="547.146"/>
      <point x="662.4499999999999" y="412.972" type="curve" smooth="yes"/>
      <point x="662.3660000000001" y="237.01999999999998"/>
      <point x="574.278" y="78.66"/>
    </contour>
  </outline>
</glyph>
<glyph name="one" format="2">
  <advance width="825.5459999999999"/>
  <unicode hex="0031"/>
  <outline>
    <contour>
      <point x="89.532" y="0.0" type="line"/>
      <point x="707.409" y="0.0" type="line"/>
      <point x="722.406" y="91.84099999999998" type="line"/>
      <point x="492.373" y="91.84099999999998" type="line"/>
      <point x="590.636" y="703.99" type="line"/>
      <point x="531.003" y="703.99" type="line"/>
      <point x="155.14600000000002" y="544.972" type="line"/>
      <point x="170.49200000000002" y="450.42800000000005" type="line"/>
      <point x="448.75499999999994" y="572.489" type="line"/>
      <point x="372.85099999999994" y="91.84099999999998" type="line"/>
      <point x="104.39999999999998" y="91.84099999999998" type="line"/>
    </contour>
  </outline>
</glyph>
<glyph name="two" format="2">
  <advance width="826.0619999999999"/>
  <unicode hex="0032"/>
  <outline>
    <contour>
      <point x="75.826" y="71.61" type="curve"/>
      <point x="66.88" y="0.0" type="line"/>
      <point x="700.178" y="0.0" type="line"/>
      <point x="714.9239999999999" y="91.24" type="line"/>
      <point x="278.394" y="91.24" type="line"/>
      <point x="564.606" y="259.346"/>
      <point x="683.4079999999999" y="372.916"/>
      <point x="683.4079999999999" y="524.942" type="curve" smooth="yes"/>
      <point x="683.4079999999999" y="638.468"/>
      <point x="586.554" y="710.0"/>
      <point x="433.778" y="710.0" type="curve" smooth="yes"/>
      <point x="336.152" y="710.0"/>
      <point x="230.158" y="682.1719999999999"/>
      <point x="156.26799999999997" y="640.344" type="curve"/>
      <point x="179.10799999999998" y="552.0340000000001" type="line"/>
      <point x="249.90400000000002" y="585.884"/>
      <point x="324.668" y="610.356"/>
      <point x="409.376" y="610.356" type="curve" smooth="yes"/>
      <point x="502.9919999999999" y="610.356"/>
      <point x="559.0579999999999" y="569.47"/>
      <point x="559.0579999999999" y="502.3259999999999" type="curve" smooth="yes"/>
      <point x="559.0159999999998" y="368.75399999999996"/>
      <point x="367.41799999999995" y="234.17"/>
    </contour>
  </outline>
</glyph>
<glyph name="three" format="2">
  <advance width="826.0899999999998"/>
  <unicode hex="0033"/>
  <outline>
    <contour>
      <point x="25.009999999999998" y="58.099999999999994" type="line"/>
      <point x="112.58" y="11.910000000000002"/>
      <point x="219.37" y="-10.0"/>
      <point x="348.3999999999999" y="-10.0" type="curve" smooth="yes"/>
      <point x="543.9599999999998" y="-10.0"/>
      <point x="721.3799999999999" y="59.71999999999999"/>
      <point x="721.3799999999999" y="225.46" type="curve" smooth="yes"/>
      <point x="721.3799999999999" y="309.42999999999995"/>
      <point x="668.29" y="354.70000000000005"/>
      <point x="578.55" y="371.43" type="curve"/>
      <point x="662.6199999999998" y="392.02"/>
      <point x="732.79" y="453.16999999999996"/>
      <point x="732.79" y="549.86" type="curve" smooth="yes"/>
      <point x="732.79" y="649.8600000000001"/>
      <point x="636.86" y="710.0"/>
      <point x="442.64000000000004" y="710.0" type="curve" smooth="yes"/>
      <point x="344.69" y="710.0"/>
      <point x="229.57999999999998" y="693.56"/>
      <point x="152.66" y="661.11" type="curve"/>
      <point x="173.42" y="574.02" type="line"/>
      <point x="245.9" y="600.3799999999999"/>
      <point x="337.80999999999995" y="615.39"/>
      <point x="413.55" y="615.39" type="curve" smooth="yes"/>
      <point x="538.4499999999999" y="615.39"/>
      <point x="610.09" y="581.3800000000001"/>
      <point x="610.09" y="518.0400000000002" type="curve" smooth="yes"/>
      <point x="610.09" y="445.96999999999997"/>
      <point x="543.3100000000001" y="403.01"/>
      <point x="430.29999999999995" y="403.01" type="curve" smooth="yes"/>
      <point x="252.92000000000002" y="403.01" type="line"/>
      <point x="238.73999999999995" y="318.65000000000003" type="line"/>
      <point x="417.7199999999999" y="318.65000000000003" type="line" smooth="yes"/>
      <point x="542.63" y="318.65000000000003"/>
      <point x="598.9" y="284.61999999999995"/>
      <point x="598.9" y="218.45000000000002" type="curve" smooth="yes"/>
      <point x="598.9" y="131.58"/>
      <point x="512.0099999999999" y="84.61000000000001"/>
      <point x="358.0599999999999" y="84.61000000000001" type="curve" smooth="yes"/>
      <point x="238.85" y="84.61000000000001"/>
      <point x="140.33999999999997" y="104.59"/>
      <point x="65.53" y="142.47000000000003" type="curve"/>
    </contour>
  </outline>
</glyph>
<glyph name="four" format="2">
  <advance width="826.0899999999998"/>
  <unicode hex="0034"/>
  <outline>
    <contour>
      <point x="35.199999999999996" y="151.62" type="line"/>
      <point x="487.96" y="151.62" type="line"/>
      <point x="463.55999999999995" y="-2.8499999999999996" type="line"/>
      <point x="584.8299999999999" y="-2.8499999999999996" type="line"/>
      <point x="609.16" y="151.62" type="line"/>
      <point x="752.31" y="151.62" type="line"/>
      <point x="765.6299999999999" y="236.05" type="line"/>
      <point x="622.9099999999999" y="236.05" type="line"/>
      <point x="697.0500000000001" y="697.5799999999999" type="line"/>
      <point x="613.3799999999999" y="702.21" type="line"/>
      <point x="44.519999999999996" y="222.73" type="line"/>
    </contour>
    <contour>
      <point x="176.93" y="236.05" type="line"/>
      <point x="553.8599999999998" y="551.75" type="line"/>
      <point x="502.56999999999994" y="236.05" type="line"/>
    </contour>
  </outline>
</glyph>
<glyph name="five" format="2">
  <advance width="826.0619999999999"/>
  <unicode hex="0035"/>
  <outline>
    <contour>
      <point x="49.87399999999999" y="57.85200000000001" type="line"/>
      <point x="127.26799999999999" y="12.400000000000002"/>
      <point x="221.03599999999997" y="-10.0"/>
      <point x="348.53799999999995" y="-10.0" type="curve" smooth="yes"/>
      <point x="621.0280000000001" y="-10.0"/>
      <point x="726.642" y="106.04999999999998"/>
      <point x="726.642" y="252.34399999999997" type="curve" smooth="yes"/>
      <point x="726.642" y="363.826"/>
      <point x="658.718" y="419.312"/>
      <point x="494.88400000000007" y="419.31200000000007" type="curve" smooth="yes"/>
      <point x="258.67" y="419.31199999999995" type="line"/>
      <point x="311.28999999999996" y="604.4180000000001" type="line"/>
      <point x="734.0699999999999" y="604.4180000000001" type="line"/>
      <point x="750.0679999999999" y="700.0" type="line"/>
      <point x="243.59599999999998" y="700.0" type="line"/>
      <point x="138.14399999999998" y="343.662" type="line"/>
      <point x="145.65799999999996" y="334.04999999999995" type="line"/>
      <point x="440.772" y="334.04999999999995" type="line" smooth="yes"/>
      <point x="562.504" y="334.04999999999995"/>
      <point x="609.836" y="306.124"/>
      <point x="609.836" y="236.58" type="curve" smooth="yes"/>
      <point x="609.836" y="152.85399999999998"/>
      <point x="525.82" y="82.96000000000001"/>
      <point x="356.40799999999996" y="82.96000000000001" type="curve" smooth="yes"/>
      <point x="240.09" y="82.96000000000001"/>
      <point x="150.682" y="109.45400000000001"/>
      <point x="87.786" y="143.54" type="curve"/>
    </contour>
  </outline>
</glyph>
<glyph name="six" format="2">
  <advance width="826.0899999999999"/>
  <unicode hex="0036"/>
  <note>
14
</note>
  <outline>
    <contour>
      <point x="401.80999999999995" y="-10.0" type="curve" smooth="yes"/>
      <point x="602.6099999999999" y="-10.0"/>
      <point x="762.3000000000001" y="62.64999999999999"/>
      <point x="762.3000000000001" y="242.10999999999999" type="curve" smooth="yes"/>
      <point x="762.3000000000001" y="369.3"/>
      <point x="665.7199999999999" y="443.05"/>
      <point x="490.58000000000004" y="443.05" type="curve" smooth="yes"/>
      <point x="385.14" y="443.05"/>
      <point x="266.03" y="416.59"/>
      <point x="184.78" y="361.35" type="curve"/>
      <point x="179.7" y="276.95" type="line"/>
      <point x="246.13" y="325.94"/>
      <point x="353.0" y="355.25"/>
      <point x="449.59" y="355.25" type="curve" smooth="yes"/>
      <point x="586.42" y="355.25"/>
      <point x="643.4699999999998" y="312.30999999999995"/>
      <point x="643.4699999999998" y="233.08" type="curve" smooth="yes"/>
      <point x="643.4699999999998" y="137.72"/>
      <point x="560.7999999999998" y="80.81"/>
      <point x="417.63" y="80.81" type="curve" smooth="yes"/>
      <point x="266.6599999999999" y="80.81"/>
      <point x="188.85999999999996" y="138.81"/>
      <point x="188.85999999999996" y="271.54" type="curve" smooth="yes"/>
      <point x="188.85999999999996" y="387.57"/>
      <point x="230.19" y="483.71000000000004"/>
      <point x="305.93" y="543.5200000000001" type="curve" smooth="yes"/>
      <point x="365.18000000000006" y="590.41"/>
      <point x="444.19999999999993" y="616.1800000000001"/>
      <point x="539.7199999999999" y="616.1800000000001" type="curve" smooth="yes"/>
      <point x="619.6199999999999" y="616.1800000000001"/>
      <point x="690.03" y="605.04"/>
      <point x="760.2199999999999" y="582.2700000000001" type="curve"/>
      <point x="795.3800000000001" y="669.57" type="line"/>
      <point x="730.13" y="693.49"/>
      <point x="639.04" y="710.0"/>
      <point x="537.9199999999998" y="710.0" type="curve" smooth="yes"/>
      <point x="255.17" y="710.0"/>
      <point x="72.97" y="541.43"/>
      <point x="72.97" y="267.26" type="curve" smooth="yes"/>
      <point x="72.97" y="77.07"/>
      <point x="191.45" y="-10.0"/>
    </contour>
  </outline>
</glyph>
<glyph name="seven" format="2">
  <advance width="825.5459999999999"/>
  <unicode hex="0037"/>
  <note>
9
</note>
  <outline>
    <contour>
      <point x="212.143" y="0.0" type="curve"/>
      <point x="337.48699999999997" y="0.0" type="line"/>
      <point x="361.001" y="131.28300000000002"/>
      <point x="423.112" y="222.397"/>
      <point x="572.5609999999999" y="395.69100000000003" type="curve" smooth="yes"/>
      <point x="767.1689999999999" y="621.025" type="line"/>
      <point x="780.188" y="700.0" type="line"/>
      <point x="147.39899999999997" y="700.0" type="line"/>
      <point x="132.27299999999997" y="601.783" type="line"/>
      <point x="622.2570000000001" y="601.783" type="line"/>
      <point x="445.142" y="403.35499999999996" type="line" smooth="yes"/>
      <point x="301.77400000000006" y="242.89700000000002"/>
      <point x="235.935" y="147.195"/>
    </contour>
  </outline>
</glyph>
<glyph name="eight" format="2">
  <advance width="826.0899999999999"/>
  <unicode hex="0038"/>
  <outline>
    <contour>
      <point x="381.63" y="-10.0" type="curve" smooth="yes"/>
      <point x="588.44" y="-10.0"/>
      <point x="754.68" y="43.85"/>
      <point x="754.68" y="213.03" type="curve" smooth="yes"/>
      <point x="754.68" y="459.54999999999995"/>
      <point x="247.14999999999998" y="351.59999999999997"/>
      <point x="247.14999999999998" y="518.8199999999999" type="curve" smooth="yes"/>
      <point x="247.14999999999998" y="592.11"/>
      <point x="330.04" y="623.92"/>
      <point x="458.06999999999994" y="623.92" type="curve" smooth="yes"/>
      <point x="593.26" y="623.92"/>
      <point x="648.75" y="586.54"/>
      <point x="648.75" y="526.0500000000001" type="curve" smooth="yes"/>
      <point x="648.75" y="456.22999999999996"/>
      <point x="604.18" y="419.28"/>
      <point x="517.14" y="383.39" type="curve"/>
      <point x="602.4899999999999" y="354.53" type="line"/>
      <point x="693.8" y="391.58000000000004"/>
      <point x="758.91" y="446.43"/>
      <point x="758.91" y="543.3199999999999" type="curve" smooth="yes"/>
      <point x="758.91" y="642.33"/>
      <point x="673.2700000000001" y="710.0"/>
      <point x="464.94999999999993" y="710.0" type="curve" smooth="yes"/>
      <point x="280.99" y="710.0"/>
      <point x="133.11999999999995" y="656.56"/>
      <point x="133.11999999999995" y="505.85999999999996" type="curve" smooth="yes"/>
      <point x="133.11999999999995" y="251.97"/>
      <point x="629.47" y="376.12"/>
      <point x="629.47" y="196.98000000000002" type="curve" smooth="yes"/>
      <point x="629.47" y="102.43"/>
      <point x="526.3399999999999" y="70.91999999999999"/>
      <point x="391.22999999999996" y="70.91999999999999" type="curve" smooth="yes"/>
      <point x="233.31" y="70.91999999999999"/>
      <point x="166.7" y="114.94"/>
      <point x="166.7" y="189.34" type="curve" smooth="yes"/>
      <point x="166.7" y="269.24"/>
      <point x="225.94999999999996" y="317.01"/>
      <point x="324.5" y="343.54" type="curve"/>
      <point x="236.37" y="380.71" type="line"/>
      <point x="125.10999999999999" y="353.33"/>
      <point x="46.22" y="280.04"/>
      <point x="46.22" y="176.6" type="curve" smooth="yes"/>
      <point x="46.22" y="60.95"/>
      <point x="145.71" y="-10.0"/>
    </contour>
  </outline>
</glyph>
<glyph name="nine" format="2">
  <advance width="826.0899999999999"/>
  <unicode hex="0039"/>
  <outline>
    <contour>
      <point x="453.98999999999995" y="710.0" type="curve" smooth="yes"/>
      <point x="232.12000000000003" y="710.0"/>
      <point x="94.2" y="622.73"/>
      <point x="94.2" y="454.88" type="curve" smooth="yes"/>
      <point x="94.2" y="327.69"/>
      <point x="190.78" y="256.95"/>
      <point x="365.92" y="256.95" type="curve" smooth="yes"/>
      <point x="471.36" y="256.95"/>
      <point x="590.4699999999999" y="283.40999999999997"/>
      <point x="671.7199999999998" y="338.65" type="curve"/>
      <point x="676.8" y="423.05" type="line"/>
      <point x="610.37" y="374.05999999999995"/>
      <point x="503.49999999999994" y="344.75"/>
      <point x="406.91" y="344.75" type="curve" smooth="yes"/>
      <point x="270.08" y="344.75"/>
      <point x="213.03" y="387.69000000000005"/>
      <point x="213.03" y="466.92" type="curve" smooth="yes"/>
      <point x="213.03" y="562.28"/>
      <point x="295.0" y="619.1899999999999"/>
      <point x="438.16999999999996" y="619.1899999999999" type="curve" smooth="yes"/>
      <point x="589.1399999999999" y="619.1899999999999"/>
      <point x="667.64" y="561.1899999999999"/>
      <point x="667.64" y="428.46" type="curve" smooth="yes"/>
      <point x="667.64" y="312.42999999999995"/>
      <point x="627.6" y="215.0"/>
      <point x="551.86" y="155.19" type="curve" smooth="yes"/>
      <point x="492.61" y="108.3"/>
      <point x="413.59000000000003" y="82.53"/>
      <point x="318.06999999999994" y="82.53" type="curve" smooth="yes"/>
      <point x="238.16999999999996" y="82.53"/>
      <point x="166.46999999999997" y="94.96"/>
      <point x="96.28" y="117.72999999999999" type="curve"/>
      <point x="61.119999999999976" y="30.43" type="line"/>
      <point x="126.36999999999996" y="6.509999999999998"/>
      <point x="217.45999999999998" y="-10.0"/>
      <point x="318.5799999999999" y="-10.0" type="curve" smooth="yes"/>
      <point x="601.3299999999999" y="-10.0"/>
      <point x="783.5300000000001" y="158.57000000000002"/>
      <point x="783.5300000000001" y="432.74" type="curve" smooth="yes"/>
      <point x="783.5300000000001" y="619.49"/>
      <point x="669.0799999999999" y="710.0"/>
    </contour>
  </outline>
</glyph>
<glyph name="less" format="2">
  <advance width="535.6179999999999"/>
  <unicode hex="003C"/>
  <outline>
    <contour>
      <point x="448.44899999999996" y="63.003" type="line"/>
      <point x="463.231" y="157.575" type="line"/>
      <point x="155.935" y="300.69599999999997" type="line"/>
      <point x="509.424" y="443.816" type="line"/>
      <point x="524.206" y="539.602" type="line"/>
      <point x="65.044" y="352.18699999999995" type="line"/>
      <point x="49.40299999999999" y="253.50100000000003" type="line"/>
    </contour>
  </outline>
</glyph>
<glyph name="equal" format="2">
  <advance width="530.7470000000001"/>
  <unicode hex="003D"/>
  <outline>
    <contour>
      <point x="468.92499999999995" y="237.334" type="line"/>
      <point x="50.464999999999996" y="237.334" type="line"/>
      <point x="35.553999999999995" y="144.38700000000003" type="line"/>
      <point x="454.014" y="144.38700000000003" type="line"/>
    </contour>
    <contour>
      <point x="503.505" y="459.14500000000004" type="line"/>
      <point x="84.873" y="459.14500000000004" type="line"/>
      <point x="70.134" y="366.19800000000004" type="line"/>
      <point x="488.59399999999994" y="366.19800000000004" type="line"/>
    </contour>
  </outline>
</glyph>
<glyph name="greater" format="2">
  <advance width="535.6179999999999"/>
  <unicode hex="003E"/>
  <outline>
    <contour>
      <point x="479.13000000000005" y="252.988" type="line"/>
      <point x="494.169" y="347.159" type="line"/>
      <point x="95.68299999999999" y="536.2500000000001" type="line"/>
      <point x="80.29899999999999" y="444.215" type="line"/>
      <point x="388.19599999999997" y="300.867" type="line"/>
      <point x="34.879" y="158.145" type="line"/>
      <point x="19.625" y="62.66100000000001" type="line"/>
    </contour>
  </outline>
</glyph>
<glyph name="question" format="2">
  <advance width="553.785"/>
  <unicode hex="003F"/>
  <outline>
    <contour>
      <point x="201.355" y="261.08299999999997" type="line"/>
      <point x="298.86199999999997" y="261.08299999999997" type="line"/>
      <point x="309.861" y="322.986" type="line"/>
      <point x="466.188" y="377.89200000000005"/>
      <point x="570.473" y="439.567"/>
      <point x="570.473" y="581.5079999999999" type="curve" smooth="yes"/>
      <point x="570.473" y="699.025"/>
      <point x="463.186" y="750.0"/>
      <point x="346.825" y="750.0" type="curve" smooth="yes"/>
      <point x="259.409" y="750.0"/>
      <point x="152.57999999999998" y="723.357"/>
      <point x="74.94399999999999" y="676.645" type="curve"/>
      <point x="92.52" y="589.618" type="line"/>
      <point x="166.81900000000002" y="628.1419999999999"/>
      <point x="244.92399999999998" y="651.173"/>
      <point x="322.067" y="651.173" type="curve" smooth="yes"/>
      <point x="390.071" y="651.173"/>
      <point x="451.775" y="635.496"/>
      <point x="451.775" y="558.876" type="curve" smooth="yes"/>
      <point x="451.775" y="482.094"/>
      <point x="406.80899999999997" y="430.198"/>
      <point x="217.536" y="381.133" type="curve"/>
    </contour>
    <contour>
      <point x="153.631" y="37.096999999999994" type="curve" smooth="yes"/>
      <point x="153.89" y="8.266"/>
      <point x="169.503" y="-4.3"/>
      <point x="210.19199999999998" y="-4.3" type="curve" smooth="yes"/>
      <point x="261.108" y="-4.3"/>
      <point x="288.78599999999994" y="18.845"/>
      <point x="288.00899999999996" y="72.14100000000002" type="curve" smooth="yes"/>
      <point x="287.75" y="101.36999999999999"/>
      <point x="271.49399999999997" y="113.894"/>
      <point x="231.707" y="113.894" type="curve" smooth="yes"/>
      <point x="179.92899999999997" y="113.894"/>
      <point x="152.85399999999998" y="89.846"/>
    </contour>
  </outline>
</glyph>
<glyph name="at" format="2">
  <advance width="906.6899999999999"/>
  <unicode hex="0040"/>
  <outline>
    <contour>
      <point x="376.77" y="-121.15" type="curve" smooth="yes"/>
      <point x="454.87000000000006" y="-121.15"/>
      <point x="532.4599999999999" y="-102.25"/>
      <point x="603.5799999999999" y="-66.3" type="curve"/>
      <point x="592.29" y="-15.030000000000001" type="line"/>
      <point x="522.74" y="-46.690000000000005"/>
      <point x="447.9199999999999" y="-62.230000000000004"/>
      <point x="382.34999999999997" y="-62.230000000000004" type="curve" smooth="yes"/>
      <point x="211.38000000000002" y="-62.230000000000004"/>
      <point x="105.88999999999999" y="33.16"/>
      <point x="105.88999999999999" y="200.11999999999998" type="curve" smooth="yes"/>
      <point x="105.88999999999999" y="450.4"/>
      <point x="281.57000000000005" y="663.82"/>
      <point x="526.29" y="663.82" type="curve" smooth="yes"/>
      <point x="711.02" y="663.82"/>
      <point x="814.5" y="573.85"/>
      <point x="814.5" y="408.28000000000003" type="curve" smooth="yes"/>
      <point x="814.5" y="271.13000000000005"/>
      <point x="753.9499999999999" y="131.53"/>
      <point x="682.4899999999999" y="131.53" type="curve" smooth="yes"/>
      <point x="635.61" y="131.53"/>
      <point x="629.5799999999999" y="179.43999999999997"/>
      <point x="643.3599999999999" y="241.75" type="curve" smooth="yes"/>
      <point x="701.87" y="506.1" type="line"/>
      <point x="643.22" y="527.6899999999999"/>
      <point x="574.7" y="540.6400000000001"/>
      <point x="521.15" y="540.6400000000001" type="curve" smooth="yes"/>
      <point x="342.15999999999997" y="540.6400000000001"/>
      <point x="215.94999999999996" y="379.40999999999997"/>
      <point x="215.94999999999996" y="213.85000000000002" type="curve" smooth="yes"/>
      <point x="215.94999999999996" y="116.74000000000001"/>
      <point x="268.4699999999999" y="67.01"/>
      <point x="359.7699999999999" y="67.01" type="curve" smooth="yes"/>
      <point x="434.98999999999995" y="67.01"/>
      <point x="508.94999999999993" y="108.28000000000002"/>
      <point x="551.5000000000001" y="168.21999999999997" type="curve"/>
      <point x="556.6899999999999" y="98.82000000000001"/>
      <point x="596.9699999999999" y="61.57000000000001"/>
      <point x="662.7" y="61.57000000000001" type="curve" smooth="yes"/>
      <point x="791.8099999999998" y="61.57000000000001"/>
      <point x="878.58" y="235.17000000000002"/>
      <point x="878.58" y="413.51000000000005" type="curve" smooth="yes"/>
      <point x="878.58" y="607.21"/>
      <point x="746.75" y="722.4499999999999"/>
      <point x="538.1899999999999" y="722.4499999999999" type="curve" smooth="yes"/>
      <point x="245.83" y="722.4499999999999"/>
      <point x="41.089999999999996" y="488.83"/>
      <point x="41.089999999999996" y="191.68000000000004" type="curve" smooth="yes"/>
      <point x="41.089999999999996" y="-2.910000000000002"/>
      <point x="169.13999999999996" y="-121.15"/>
    </contour>
    <contour>
      <point x="408.55999999999995" y="153.08999999999997" type="curve" smooth="yes"/>
      <point x="353.28000000000003" y="153.08999999999997"/>
      <point x="324.81999999999994" y="182.27"/>
      <point x="324.81999999999994" y="236.26999999999998" type="curve" smooth="yes"/>
      <point x="324.81999999999994" y="344.68000000000006"/>
      <point x="406.97999999999996" y="461.58"/>
      <point x="502.75999999999993" y="461.58" type="curve" smooth="yes"/>
      <point x="537.16" y="461.58"/>
      <point x="561.3399999999999" y="457.44000000000005"/>
      <point x="591.72" y="446.88" type="curve"/>
      <point x="547.46" y="252.2" type="line" smooth="yes"/>
      <point x="522.15" y="194.58999999999997"/>
      <point x="463.26000000000005" y="153.08999999999997"/>
    </contour>
  </outline>
</glyph>
<glyph name="A" format="2">
  <advance width="767.225"/>
  <unicode hex="0041"/>
  <anchor x="339.907" y="0.0" name="bottom"/>
  <anchor x="713.245" y="0.0" name="ogonek"/>
  <anchor x="451.545" y="700.0" name="top"/>
  <outline>
    <contour>
      <point x="-34.02" y="0.0" type="line"/>
      <point x="102.0" y="0.0" type="line"/>
      <point x="198.65" y="168.82500000000002" type="line"/>
      <point x="534.73" y="168.82500000000002" type="line"/>
      <point x="578.4399999999999" y="0.0" type="line"/>
      <point x="713.245" y="0.0" type="line"/>
      <point x="518.315" y="708.71" type="line"/>
      <point x="383.90999999999997" y="708.71" type="line"/>
    </contour>
    <contour>
      <point x="242.82999999999998" y="257.7" type="line"/>
      <point x="436.07499999999993" y="602.3249999999999" type="line"/>
      <point x="520.1999999999999" y="257.7" type="line"/>
    </contour>
  </outline>
</glyph>
<glyph name="B" format="2">
  <advance width="793.1949999999999"/>
  <unicode hex="0042"/>
  <outline>
    <contour>
      <point x="43.840999999999994" y="3.118999999999999" type="line"/>
      <point x="203.364" y="-6.415000000000001"/>
      <point x="259.887" y="-10.0"/>
      <point x="369.64799999999997" y="-10.0" type="curve" smooth="yes"/>
      <point x="545.209" y="-10.0"/>
      <point x="745.9889999999999" y="35.17500000000002"/>
      <point x="745.9889999999999" y="231.718" type="curve" smooth="yes"/>
      <point x="745.9889999999999" y="310.46000000000004"/>
      <point x="690.644" y="364.06899999999996"/>
      <point x="616.1919999999999" y="376.24199999999996" type="curve"/>
      <point x="684.449" y="403.254"/>
      <point x="755.384" y="463.159"/>
      <point x="755.384" y="560.57" type="curve" smooth="yes"/>
      <point x="755.384" y="661.781"/>
      <point x="670.206" y="710.0"/>
      <point x="468.37699999999995" y="710.0" type="curve" smooth="yes"/>
      <point x="396.965" y="710.0"/>
      <point x="307.55899999999997" y="706.4710000000001"/>
      <point x="155.03099999999998" y="696.539" type="curve"/>
    </contour>
    <contour>
      <point x="229.55599999999995" y="398.494" type="line"/>
      <point x="262.319" y="609.307" type="line"/>
      <point x="332.875" y="613.774"/>
      <point x="383.979" y="617.9970000000001"/>
      <point x="449.741" y="617.9970000000001" type="curve" smooth="yes"/>
      <point x="577.0390000000001" y="617.9970000000001"/>
      <point x="631.1080000000001" y="594.752"/>
      <point x="631.1080000000001" y="527.8000000000001" type="curve" smooth="yes"/>
      <point x="631.1080000000001" y="443.655"/>
      <point x="543.34" y="398.494"/>
      <point x="479.54299999999995" y="398.494" type="curve" smooth="yes"/>
    </contour>
    <contour>
      <point x="215.548" y="317.93" type="line"/>
      <point x="468.57099999999997" y="317.93" type="line" smooth="yes"/>
      <point x="544.586" y="317.93"/>
      <point x="619.1020000000001" y="296.127"/>
      <point x="619.1020000000001" y="225.53599999999997" type="curve" smooth="yes"/>
      <point x="619.1020000000001" y="111.753"/>
      <point x="506.346" y="80.46600000000001"/>
      <point x="376.42699999999996" y="80.46600000000001" type="curve" smooth="yes"/>
      <point x="307.345" y="80.46600000000001"/>
      <point x="251.76999999999998" y="84.431"/>
      <point x="179.31799999999998" y="88.254" type="curve"/>
    </contour>
  </outline>
</glyph>
<glyph name="C" format="2">
  <advance width="782.904"/>
  <unicode hex="0043"/>
  <anchor x="421.28399999999993" y="0.0" name="bottom"/>
  <anchor x="518.448" y="700.0" name="top"/>
  <outline>
    <contour>
      <point x="448.222" y="-10.0" type="curve" smooth="yes"/>
      <point x="545.7019999999999" y="-10.0"/>
      <point x="630.0659999999999" y="1.6819999999999988"/>
      <point x="710.2839999999999" y="25.003999999999994" type="curve"/>
      <point x="699.5959999999999" y="117.68399999999997" type="line"/>
      <point x="629.7959999999999" y="99.75999999999999"/>
      <point x="554.214" y="87.25999999999999"/>
      <point x="467.048" y="87.25999999999999" type="curve" smooth="yes"/>
      <point x="288.0799999999999" y="87.25999999999999"/>
      <point x="185.67" y="147.548"/>
      <point x="185.67" y="285.07399999999996" type="curve" smooth="yes"/>
      <point x="185.67" y="481.95"/>
      <point x="306.61" y="612.74"/>
      <point x="511.448" y="612.74" type="curve" smooth="yes"/>
      <point x="597.704" y="612.74"/>
      <point x="679.2999999999998" y="598.8700000000001"/>
      <point x="754.1899999999999" y="577.852" type="curve"/>
      <point x="782.5919999999999" y="668.952" type="line"/>
      <point x="689.1700000000001" y="699.5699999999999"/>
      <point x="602.6759999999998" y="710.0"/>
      <point x="504.65599999999995" y="710.0" type="curve" smooth="yes"/>
      <point x="226.09999999999997" y="710.0"/>
      <point x="58.74" y="541.38"/>
      <point x="58.74" y="272.562" type="curve" smooth="yes"/>
      <point x="58.74" y="80.32600000000001"/>
      <point x="195.404" y="-10.0"/>
    </contour>
  </outline>
</glyph>
<glyph name="D" format="2">
  <advance width="857.112"/>
  <unicode hex="0044"/>
  <anchor x="367.10200000000003" y="0.0" name="bottom"/>
  <anchor x="428.33599999999996" y="350.0" name="center"/>
  <anchor x="449.2519999999999" y="700.0" name="top"/>
  <outline>
    <contour>
      <point x="351.646" y="-10.0" type="curve" smooth="yes"/>
      <point x="632.558" y="-10.0"/>
      <point x="819.2880000000001" y="129.77599999999998"/>
      <point x="819.2880000000001" y="404.888" type="curve" smooth="yes"/>
      <point x="819.2880000000001" y="630.5640000000001"/>
      <point x="657.038" y="710.0"/>
      <point x="426.22400000000005" y="710.0" type="curve" smooth="yes"/>
      <point x="337.84000000000003" y="710.0"/>
      <point x="252.83199999999994" y="707.084"/>
      <point x="154.902" y="700.7239999999999" type="curve"/>
      <point x="42.56999999999999" y="-0.25200000000000117" type="line"/>
      <point x="143.00599999999997" y="-7.28"/>
      <point x="222.05199999999996" y="-10.0"/>
    </contour>
    <contour>
      <point x="360.07399999999996" y="79.006" type="curve" smooth="yes"/>
      <point x="286.844" y="79.006"/>
      <point x="241.054" y="80.964"/>
      <point x="178.478" y="84.744" type="curve"/>
      <point x="262.964" y="614.2" type="line"/>
      <point x="300.78000000000003" y="617.41"/>
      <point x="365.634" y="620.05"/>
      <point x="430.094" y="620.05" type="curve" smooth="yes"/>
      <point x="569.0679999999999" y="620.05"/>
      <point x="694.4100000000001" y="567.0160000000001"/>
      <point x="694.4100000000001" y="399.87799999999993" type="curve" smooth="yes"/>
      <point x="694.4100000000001" y="185.65400000000002"/>
      <point x="557.0619999999999" y="79.006"/>
    </contour>
  </outline>
</glyph>
<glyph name="E" format="2">
  <advance width="732.0079999999998"/>
  <unicode hex="0045"/>
  <anchor x="346.474" y="0.0" name="bottom"/>
  <anchor x="648.654" y="0.0" name="ogonek"/>
  <anchor x="445.53" y="700.0" name="top"/>
  <anchor x="98.45599999999999" y="700.0" name="topleft"/>
  <outline>
    <contour>
      <point x="42.611999999999995" y="0.0" type="line"/>
      <point x="648.654" y="0.0" type="line"/>
      <point x="665.414" y="100.69999999999999" type="line"/>
      <point x="178.56199999999998" y="100.69999999999999" type="line"/>
      <point x="211.74400000000003" y="313.39000000000004" type="line"/>
      <point x="650.334" y="313.39000000000004" type="line"/>
      <point x="667.0939999999998" y="412.37" type="line"/>
      <point x="227.54600000000002" y="412.37" type="line"/>
      <point x="257.72" y="599.3" type="line"/>
      <point x="722.6279999999999" y="599.3" type="line"/>
      <point x="739.4300000000001" y="700.0" type="line"/>
      <point x="154.42999999999998" y="700.0" type="line"/>
    </contour>
  </outline>
</glyph>
<glyph name="F" format="2">
  <advance width="696.045"/>
  <unicode hex="0046"/>
  <outline>
    <contour>
      <point x="42.827" y="0.0" type="line"/>
      <point x="164.38299999999998" y="0.0" type="line"/>
      <point x="206.75399999999996" y="259.23400000000004" type="line"/>
      <point x="610.69" y="259.23400000000004" type="line"/>
      <point x="626.1909999999999" y="360.622" type="line"/>
      <point x="222.728" y="360.622" type="line"/>
      <point x="259.78400000000005" y="598.612" type="line"/>
      <point x="719.7029999999999" y="598.612" type="line"/>
      <point x="736.635" y="700.0" type="line"/>
      <point x="154.85999999999999" y="700.0" type="line"/>
    </contour>
  </outline>
</glyph>
<glyph name="G" format="2">
  <advance width="808.65"/>
  <unicode hex="0047"/>
  <anchor x="403.125" y="0.0" name="bottom"/>
  <anchor x="517.279" y="700.0" name="top"/>
  <outline>
    <contour>
      <point x="416.58399999999995" y="-10.0" type="curve" smooth="yes"/>
      <point x="544.9979999999999" y="-10.0"/>
      <point x="643.906" y="13.908999999999999"/>
      <point x="709.514" y="41.563" type="curve"/>
      <point x="761.6379999999999" y="363.623" type="line"/>
      <point x="446.471" y="363.623" type="line"/>
      <point x="432.893" y="279.22" type="line"/>
      <point x="639.9209999999999" y="279.22" type="line"/>
      <point x="612.663" y="108.44" type="line"/>
      <point x="571.5600000000001" y="91.264"/>
      <point x="510.46299999999997" y="79.477"/>
      <point x="437.0539999999999" y="79.477" type="curve" smooth="yes"/>
      <point x="286.23" y="79.477"/>
      <point x="180.412" y="140.567"/>
      <point x="180.412" y="278.79599999999994" type="curve" smooth="yes"/>
      <point x="180.412" y="481.291"/>
      <point x="308.543" y="614.245"/>
      <point x="517.6779999999999" y="614.245" type="curve" smooth="yes"/>
      <point x="605.4649999999999" y="614.245"/>
      <point x="671.461" y="603.0840000000001"/>
      <point x="749.251" y="582.57" type="curve"/>
      <point x="785.4789999999999" y="673.056" type="line"/>
      <point x="702.9889999999999" y="698.32"/>
      <point x="613.829" y="710.0"/>
      <point x="514.627" y="710.0" type="curve" smooth="yes"/>
      <point x="221.971" y="710.0"/>
      <point x="57.223" y="533.552"/>
      <point x="57.223" y="268.245" type="curve" smooth="yes"/>
      <point x="57.223" y="83.13000000000001"/>
      <point x="202.498" y="-10.0"/>
    </contour>
  </outline>
</glyph>
<glyph name="H" format="2">
  <advance width="869.592"/>
  <unicode hex="0048"/>
  <anchor x="391.449076" y="0.0" name="bottom"/>
  <anchor x="446.980691" y="350.0" name="center"/>
  <anchor x="502.34047699999996" y="700.0" name="top"/>
  <anchor x="86.917477" y="700.0" name="topleft"/>
  <outline>
    <contour>
      <point x="42.525999999999996" y="0.0" type="line"/>
      <point x="164.725" y="0.0" type="line"/>
      <point x="206.081" y="261.932" type="line"/>
      <point x="660.6719999999999" y="261.932" type="line"/>
      <point x="618.843" y="0.0" type="line"/>
      <point x="738.033" y="0.0" type="line"/>
      <point x="850.237" y="700.0" type="line"/>
      <point x="731.219" y="700.0" type="line"/>
      <point x="676.744" y="362.28799999999995" type="line"/>
      <point x="221.98199999999997" y="362.28799999999995" type="line"/>
      <point x="276.758" y="700.0" type="line"/>
      <point x="154.559" y="700.0" type="line"/>
    </contour>
  </outline>
</glyph>
<glyph name="I" format="2">
  <advance width="296.11299999999994"/>
  <unicode hex="0049"/>
  <anchor x="104.490432" y="0.0" name="bottom"/>
  <anchor x="164.944612" y="1.29" name="ogonek"/>
  <anchor x="215.42126399999998" y="700.0" name="top"/>
  <anchor x="98.66837699999999" y="700.0" name="topleft"/>
  <outline>
    <contour>
      <point x="42.525999999999996" y="0.0" type="line"/>
      <point x="164.554" y="0.0" type="line"/>
      <point x="276.758" y="700.0" type="line"/>
      <point x="154.559" y="700.0" type="line"/>
    </contour>
  </outline>
</glyph>
<glyph name="J" format="2">
  <advance width="622.598"/>
  <unicode hex="004A"/>
  <anchor x="257.076276" y="0.0" name="bottom"/>
  <anchor x="379.072" y="700.0" name="top"/>
  <outline>
    <contour>
      <point x="-19.113000000000003" y="30.379999999999995" type="line"/>
      <point x="50.900000000000006" y="7.889999999999999"/>
      <point x="129.603" y="-10.0"/>
      <point x="232.91899999999998" y="-10.0" type="curve" smooth="yes"/>
      <point x="407.297" y="-10.0"/>
      <point x="511.8569999999999" y="69.81200000000001"/>
      <point x="541.108" y="245.454" type="curve" smooth="yes"/>
      <point x="614.402" y="700.0" type="line"/>
      <point x="142.452" y="700.0" type="line"/>
      <point x="125.90699999999998" y="599.687" type="line"/>
      <point x="475.82900000000006" y="599.687" type="line"/>
      <point x="422.337" y="264.291" type="line" smooth="yes"/>
      <point x="402.46599999999995" y="138.141"/>
      <point x="326.30499999999995" y="90.958"/>
      <point x="221.38600000000002" y="90.958" type="curve" smooth="yes"/>
      <point x="140.005" y="90.958"/>
      <point x="78.50200000000001" y="108.90200000000002"/>
      <point x="13.148999999999996" y="127.909" type="curve"/>
    </contour>
  </outline>
</glyph>
<glyph name="K" format="2">
  <advance width="787.5819999999999"/>
  <unicode hex="004B"/>
  <anchor x="364.71999999999997" y="0.0" name="bottom"/>
  <anchor x="458.09" y="700.0" name="top"/>
  <outline>
    <contour>
      <point x="42.397999999999996" y="0.0" type="line"/>
      <point x="164.75400000000002" y="0.0" type="line"/>
      <point x="276.458" y="700.0" type="line"/>
      <point x="155.46200000000002" y="700.0" type="line"/>
    </contour>
    <contour>
      <point x="697.2719999999999" y="-9.758" type="curve" smooth="yes"/>
      <point x="705.244" y="-9.758"/>
      <point x="724.7299999999999" y="-8.124"/>
      <point x="731.794" y="-5.764" type="curve"/>
      <point x="745.484" y="100.988" type="line"/>
      <point x="739.318" y="101.246"/>
      <point x="733.754" y="100.746"/>
      <point x="727.9480000000001" y="100.746" type="curve" smooth="yes"/>
      <point x="677.8719999999998" y="100.746"/>
      <point x="638.4" y="121.048"/>
      <point x="565.4679999999998" y="180.132" type="curve" smooth="yes"/>
      <point x="217.92799999999997" y="462.534" type="line"/>
      <point x="198.24399999999997" y="339.618" type="line"/>
      <point x="493.87399999999997" y="86.828" type="line" smooth="yes"/>
      <point x="576.372" y="19.56"/>
      <point x="633.976" y="-9.758"/>
    </contour>
    <contour>
      <point x="367.06199999999995" y="298.532" type="line"/>
      <point x="504.51199999999994" y="359.478"/>
      <point x="707.124" y="492.8500000000001"/>
      <point x="811.722" y="650.6360000000001" type="curve"/>
      <point x="730.4859999999999" y="711.72" type="line"/>
      <point x="605.3479999999998" y="549.386"/>
      <point x="421.92599999999993" y="427.034"/>
      <point x="292.674" y="365.578" type="curve"/>
    </contour>
  </outline>
</glyph>
<glyph name="L" format="2">
  <advance width="666.704"/>
  <unicode hex="004C"/>
  <anchor x="324.524" y="0.0" name="bottom"/>
  <anchor x="343.48469099999994" y="350.0" name="center"/>
  <anchor x="215.288" y="700.0" name="top"/>
  <anchor x="489.92100000000005" y="700.0" name="topright"/>
  <outline>
    <contour>
      <point x="42.355" y="0.0" type="line"/>
      <point x="602.769" y="0.0" type="line"/>
      <point x="619.7439999999999" y="98.937" type="line"/>
      <point x="180.756" y="98.937" type="line"/>
      <point x="276.587" y="700.0" type="line"/>
      <point x="154.559" y="700.0" type="line"/>
    </contour>
  </outline>
</glyph>
<glyph name="M" format="2">
  <advance width="971.4959999999998"/>
  <unicode hex="004D"/>
  <outline>
    <contour>
      <point x="42.226" y="0.0" type="line"/>
      <point x="157.36899999999997" y="0.0" type="line"/>
      <point x="241.66999999999996" y="542.194" type="line"/>
      <point x="446.359" y="207.934" type="line"/>
      <point x="501.15999999999997" y="207.934" type="line"/>
      <point x="814.9169999999999" y="545.177" type="line"/>
      <point x="726.7669999999999" y="0.0" type="line"/>
      <point x="839.9369999999999" y="0.0" type="line"/>
      <point x="952.141" y="700.0" type="line"/>
      <point x="824.3879999999999" y="700.0" type="line"/>
      <point x="491.2099999999999" y="333.177" type="line"/>
      <point x="273.819" y="700.0" type="line"/>
      <point x="154.559" y="700.0" type="line"/>
    </contour>
  </outline>
</glyph>
<glyph name="N" format="2">
  <advance width="849.5949999999999"/>
  <unicode hex="004E"/>
  <anchor x="379.29545999999993" y="0.0" name="bottom"/>
  <anchor x="493.3272949999998" y="700.0" name="top"/>
  <outline>
    <contour>
      <point x="42.64" y="0.0" type="line"/>
      <point x="153.585" y="0.0" type="line"/>
      <point x="237.94" y="530.08" type="line"/>
      <point x="608.4350000000001" y="-3.99" type="line"/>
      <point x="717.1650000000001" y="-3.99" type="line"/>
      <point x="830.24" y="700.0" type="line"/>
      <point x="719.365" y="700.0" type="line"/>
      <point x="633.2900000000001" y="160.67499999999998" type="line"/>
      <point x="265.015" y="703.99" type="line"/>
      <point x="155.71499999999997" y="703.99" type="line"/>
    </contour>
  </outline>
</glyph>
<glyph name="O" format="2">
  <advance width="886.43"/>
  <unicode hex="004F"/>
  <note>
8
</note>
  <anchor x="400.81107999999995" y="0.0" name="bottom"/>
  <anchor x="456.7715299999999" y="350.0" name="center"/>
  <anchor x="494.77000000000004" y="2.220446049250313e-16" name="ogonek"/>
  <anchor x="501.7899999999999" y="700.0" name="top"/>
  <anchor x="91.77" y="700.0" name="topleft"/>
  <anchor x="721.6" y="677.3199999999999" name="topright"/>
  <outline>
    <contour>
      <point x="428.21" y="-8.709999999999999" type="curve" smooth="yes"/>
      <point x="698.1199999999999" y="-8.709999999999999"/>
      <point x="847.6899999999999" y="154.51999999999998"/>
      <point x="847.6899999999999" y="403.32000000000005" type="curve" smooth="yes"/>
      <point x="847.6899999999999" y="601.91"/>
      <point x="727.2499999999999" y="709.14"/>
      <point x="481.79" y="709.14" type="curve" smooth="yes"/>
      <point x="211.88000000000002" y="709.14"/>
      <point x="62.31" y="545.9100000000001"/>
      <point x="62.31" y="297.11" type="curve" smooth="yes"/>
      <point x="62.31" y="98.52000000000001"/>
      <point x="182.75" y="-8.709999999999999"/>
    </contour>
    <contour>
      <point x="435.45" y="83.32000000000001" type="curve" smooth="yes"/>
      <point x="270.06999999999994" y="83.32000000000001"/>
      <point x="186.23" y="152.51"/>
      <point x="186.23" y="297.89" type="curve" smooth="yes"/>
      <point x="186.23" y="482.38"/>
      <point x="284.79999999999995" y="617.11"/>
      <point x="474.98" y="617.11" type="curve" smooth="yes"/>
      <point x="639.93" y="617.11"/>
      <point x="723.7699999999999" y="547.92"/>
      <point x="723.7699999999999" y="402.53999999999996" type="curve" smooth="yes"/>
      <point x="723.7699999999999" y="218.04999999999998"/>
      <point x="625.2" y="83.32000000000001"/>
    </contour>
  </outline>
</glyph>
<glyph name="P" format="2">
  <advance width="801.9499999999998"/>
  <unicode hex="0050"/>
  <outline>
    <contour>
      <point x="42.64" y="0.0" type="line"/>
      <point x="164.195" y="0.0" type="line"/>
      <point x="200.17499999999998" y="220.71499999999997" type="line"/>
      <point x="286.56999999999994" y="217.285"/>
      <point x="329.375" y="216.215"/>
      <point x="399.7099999999999" y="216.215" type="curve" smooth="yes"/>
      <point x="681.9000000000001" y="216.215"/>
      <point x="796.49" y="304.87000000000006"/>
      <point x="797.345" y="500.22499999999997" type="curve" smooth="yes"/>
      <point x="797.63" y="651.345"/>
      <point x="697.9599999999999" y="710.0"/>
      <point x="449.945" y="710.0" type="curve" smooth="yes"/>
      <point x="402.57" y="710.0"/>
      <point x="324.67999999999995" y="707.57"/>
      <point x="155.145" y="700.785" type="curve"/>
    </contour>
    <contour>
      <point x="262.52000000000004" y="611.4050000000001" type="line"/>
      <point x="360.60499999999996" y="615.8299999999999"/>
      <point x="399.74500000000006" y="617.47"/>
      <point x="451.88999999999993" y="617.47" type="curve" smooth="yes"/>
      <point x="614.64" y="617.47"/>
      <point x="672.1350000000001" y="582.4300000000001"/>
      <point x="672.1350000000001" y="487.34" type="curve" smooth="yes"/>
      <point x="672.1350000000001" y="371.905"/>
      <point x="601.1599999999999" y="309.82000000000005"/>
      <point x="396.61499999999995" y="309.82000000000005" type="curve" smooth="yes"/>
      <point x="337.635" y="309.82000000000005"/>
      <point x="294.065" y="311.675"/>
      <point x="215.43" y="314.39" type="curve"/>
    </contour>
  </outline>
</glyph>
<glyph name="Q" format="2">
  <advance width="885.1469999999999"/>
  <unicode hex="0051"/>
  <note>
14
</note>
  <outline>
    <contour>
      <point x="623.3819999999998" y="-203.14100000000002" type="curve" smooth="yes"/>
      <point x="666.8789999999999" y="-203.14100000000002"/>
      <point x="705.18" y="-194.221"/>
      <point x="742.7339999999999" y="-177.79" type="curve"/>
      <point x="741.438" y="-86.70100000000001" type="line"/>
      <point x="714.4599999999999" y="-100.449"/>
      <point x="687.275" y="-106.439"/>
      <point x="656.607" y="-106.439" type="curve" smooth="yes"/>
      <point x="586.323" y="-106.439"/>
      <point x="524.7339999999999" y="-61.81699999999999"/>
      <point x="503.18799999999993" y="15.506" type="curve"/>
      <point x="392.542" y="2.920999999999999" type="line"/>
      <point x="425.73199999999997" y="-140.828"/>
      <point x="517.2669999999999" y="-203.14100000000002"/>
    </contour>
    <component base="O"/>
  </outline>
</glyph>
<glyph name="R" format="2">
  <advance width="833.6699999999998"/>
  <unicode hex="0052"/>
  <anchor x="395.92999999999995" y="0.0" name="bottom"/>
  <anchor x="442.45" y="700.0" name="top"/>
  <outline>
    <contour>
      <point x="42.71000000000001" y="0.0" type="line"/>
      <point x="165.33999999999997" y="0.0" type="line"/>
      <point x="207.53" y="260.54999999999995" type="line"/>
      <point x="290.9" y="258.47999999999996"/>
      <point x="367.65" y="257.84"/>
      <point x="462.77" y="257.40999999999997" type="curve"/>
      <point x="496.3" y="262.14" type="line"/>
      <point x="678.45" y="263.07"/>
      <point x="788.35" y="357.99"/>
      <point x="788.35" y="512.0799999999999" type="curve" smooth="yes"/>
      <point x="788.35" y="641.93"/>
      <point x="707.5100000000001" y="710.0"/>
      <point x="449.04999999999995" y="710.0" type="curve" smooth="yes"/>
      <point x="370.23999999999995" y="710.0"/>
      <point x="283.99" y="707.5699999999999"/>
      <point x="155.0" y="701.2099999999999" type="curve"/>
    </contour>
    <contour>
      <point x="751.18" y="-10.0" type="curve" smooth="yes"/>
      <point x="758.6899999999999" y="-10.0"/>
      <point x="777.0899999999998" y="-8.569999999999999"/>
      <point x="783.7399999999999" y="-6.709999999999999" type="curve"/>
      <point x="796.2899999999998" y="97.36" type="line"/>
      <point x="790.9299999999998" y="96.28999999999999"/>
      <point x="782.3499999999999" y="96.28999999999999"/>
      <point x="777.6999999999998" y="96.28999999999999" type="curve" smooth="yes"/>
      <point x="713.22" y="96.36"/>
      <point x="616.8" y="173.67999999999998"/>
      <point x="531.3000000000001" y="303.03000000000003" type="curve"/>
      <point x="402.72999999999996" y="276.15999999999997" type="line"/>
      <point x="526.5" y="96.73999999999998"/>
      <point x="638.0899999999999" y="-10.0"/>
    </contour>
    <contour>
      <point x="454.09" y="346.93" type="curve" smooth="yes"/>
      <point x="353.08" y="346.93"/>
      <point x="286.5" y="348.43"/>
      <point x="221.77999999999997" y="352.29" type="curve"/>
      <point x="263.09000000000003" y="615.6999999999999" type="line"/>
      <point x="344.13999999999993" y="619.84"/>
      <point x="369.67" y="620.98"/>
      <point x="443.96999999999997" y="620.98" type="curve" smooth="yes"/>
      <point x="615.2499999999999" y="620.98"/>
      <point x="660.0600000000001" y="585.64"/>
      <point x="660.0600000000001" y="502.69000000000005" type="curve" smooth="yes"/>
      <point x="660.0600000000001" y="394.78"/>
      <point x="582.5199999999999" y="346.93"/>
    </contour>
  </outline>
</glyph>
<glyph name="S" format="2">
  <advance width="745.01"/>
  <unicode hex="0053"/>
  <anchor x="342.99999999999994" y="0.0" name="bottom"/>
  <anchor x="442.93000000000006" y="700.0" name="top"/>
  <outline>
    <contour>
      <point x="720.78" y="671.5" type="line"/>
      <point x="626.83" y="697.64"/>
      <point x="549.4099999999999" y="710.0"/>
      <point x="455.73" y="710.0" type="curve" smooth="yes"/>
      <point x="212.40999999999997" y="710.0"/>
      <point x="89.21000000000001" y="632.0600000000001"/>
      <point x="89.21000000000001" y="500.43" type="curve" smooth="yes"/>
      <point x="89.21000000000001" y="248.87000000000003"/>
      <point x="567.0799999999999" y="344.12999999999994"/>
      <point x="567.01" y="188.84" type="curve" smooth="yes"/>
      <point x="567.01" y="125.31"/>
      <point x="498.86" y="82.60000000000001"/>
      <point x="357.13000000000005" y="82.60000000000001" type="curve" smooth="yes"/>
      <point x="246.36999999999998" y="82.60000000000001"/>
      <point x="127.45" y="105.46000000000001"/>
      <point x="30.33" y="138.53999999999996" type="curve"/>
      <point x="-7.48" y="44.64999999999999" type="line"/>
      <point x="93.88" y="10.65"/>
      <point x="214.70000000000002" y="-10.0"/>
      <point x="333.92" y="-10.0" type="curve" smooth="yes"/>
      <point x="586.02" y="-10.0"/>
      <point x="694.87" y="72.25"/>
      <point x="694.87" y="206.39000000000001" type="curve" smooth="yes"/>
      <point x="695.3699999999999" y="443.46999999999997"/>
      <point x="216.57000000000002" y="359.89000000000004"/>
      <point x="216.57000000000002" y="509.95" type="curve" smooth="yes"/>
      <point x="216.57000000000002" y="579.06"/>
      <point x="294.82" y="615.82"/>
      <point x="429.44" y="615.82" type="curve" smooth="yes"/>
      <point x="525.6400000000001" y="615.82"/>
      <point x="607.9599999999999" y="602.82"/>
      <point x="684.3299999999998" y="576.82" type="curve"/>
    </contour>
  </outline>
</glyph>
<glyph name="T" format="2">
  <advance width="695.432"/>
  <unicode hex="0054"/>
  <anchor x="303.773276" y="0.0" name="bottom"/>
  <anchor x="359.65211199999993" y="350.0" name="center"/>
  <anchor x="414.881264" y="700.0" name="top"/>
  <outline>
    <contour>
      <point x="733.584" y="606.352" type="line"/>
      <point x="750.2579999999999" y="700.0" type="line"/>
      <point x="81.41" y="700.0" type="line"/>
      <point x="64.435" y="606.352" type="line"/>
      <point x="338.47499999999997" y="606.352" type="line"/>
      <point x="242.51499999999996" y="0.0" type="line"/>
      <point x="364.54299999999995" y="0.0" type="line"/>
      <point x="460.202" y="606.352" type="line"/>
    </contour>
  </outline>
</glyph>
<glyph name="U" format="2">
  <advance width="847.0840000000001"/>
  <unicode hex="0055"/>
  <anchor x="380.08291999999994" y="0.0" name="bottom"/>
  <anchor x="463.602" y="0.0" name="ogonek"/>
  <anchor x="489.08858999999995" y="700.0" name="top"/>
  <anchor x="834.4159999999999" y="700.0" name="topright"/>
  <outline>
    <contour>
      <point x="376.731" y="-10.0" type="curve" smooth="yes"/>
      <point x="611.563" y="-10.0"/>
      <point x="738.371" y="74.55"/>
      <point x="766.8059999999999" y="249.982" type="curve" smooth="yes"/>
      <point x="838.8879999999999" y="700.0" type="line"/>
      <point x="718.796" y="700.0" type="line"/>
      <point x="647.175" y="254.712" type="line" smooth="yes"/>
      <point x="629.511" y="142.36"/>
      <point x="544.477" y="85.884"/>
      <point x="393.70399999999995" y="85.884" type="curve" smooth="yes"/>
      <point x="248.557" y="85.884"/>
      <point x="174.47" y="144.79999999999998"/>
      <point x="191.82299999999998" y="252.489" type="curve" smooth="yes"/>
      <point x="263.548" y="700.0" type="line"/>
      <point x="143.627" y="700.0" type="line"/>
      <point x="71.60199999999998" y="249.697" type="line" smooth="yes"/>
      <point x="67.815" y="223.517"/>
      <point x="66.857" y="210.32199999999997"/>
      <point x="66.857" y="195.862" type="curve" smooth="yes"/>
      <point x="66.857" y="60.068"/>
      <point x="172.92299999999997" y="-10.0"/>
    </contour>
  </outline>
</glyph>
<glyph name="V" format="2">
  <advance width="733.9409999999999"/>
  <unicode hex="0056"/>
  <outline>
    <contour>
      <point x="380.64099999999996" y="0.0" type="line"/>
      <point x="709.1699999999998" y="476.03099999999995"/>
      <point x="769.28" y="585.7499999999999"/>
      <point x="780.2449999999999" y="675.0049999999999" type="curve" smooth="yes"/>
      <point x="780.89" y="683.876"/>
      <point x="780.7499999999999" y="692.301"/>
      <point x="780.0559999999999" y="700.0" type="curve"/>
      <point x="649.256" y="700.0" type="line"/>
      <point x="650.38" y="692.51"/>
      <point x="651.396" y="685.461"/>
      <point x="651.396" y="677.225" type="curve" smooth="yes"/>
      <point x="651.3960000000001" y="588.245"/>
      <point x="575.6730000000001" y="470.62800000000004"/>
      <point x="335.097" y="112.00999999999999" type="curve"/>
      <point x="200.14" y="704.576" type="line"/>
      <point x="70.12499999999999" y="700.855" type="line"/>
      <point x="250.206" y="0.0" type="line"/>
    </contour>
  </outline>
</glyph>
<glyph name="W" format="2">
  <advance width="1042.0499999999997"/>
  <unicode hex="0057"/>
  <anchor x="469.9499999999999" y="0.0" name="bottom"/>
  <anchor x="588.2499999999999" y="700.0" name="top"/>
  <outline>
    <contour>
      <point x="778.7900000000001" y="-0.07" type="line"/>
      <point x="1016.46" y="433.13"/>
      <point x="1085.28" y="602.8499999999999"/>
      <point x="1086.1399999999999" y="680.36" type="curve" smooth="yes"/>
      <point x="1086.1399999999999" y="686.86"/>
      <point x="1085.6399999999999" y="694.6500000000001"/>
      <point x="1084.4999999999998" y="700.0" type="curve"/>
      <point x="966.8899999999999" y="700.0" type="line"/>
      <point x="967.53" y="693.07"/>
      <point x="967.74" y="686.85"/>
      <point x="967.31" y="677.7800000000001" type="curve" smooth="yes"/>
      <point x="961.2899999999998" y="581.9100000000001"/>
      <point x="915.8699999999999" y="475.63"/>
      <point x="722.6199999999999" y="110.77" type="curve"/>
      <point x="652.5399999999998" y="652.09" type="line"/>
      <point x="513.65" y="652.09" type="line"/>
      <point x="437.54" y="473.39000000000004"/>
      <point x="356.2" y="292.62"/>
      <point x="269.3399999999999" y="115.57" type="curve"/>
      <point x="196.61999999999998" y="700.0" type="line"/>
      <point x="71.63000000000001" y="700.0" type="line"/>
      <point x="175.85999999999999" y="-0.07" type="line"/>
      <point x="310.03" y="-0.07" type="line"/>
      <point x="397.46000000000004" y="172.53"/>
      <point x="485.32" y="347.21000000000004"/>
      <point x="563.29" y="515.51" type="curve"/>
      <point x="638.5999999999999" y="-0.07" type="line"/>
    </contour>
  </outline>
</glyph>
<glyph name="X" format="2">
  <advance width="740.39"/>
  <unicode hex="0058"/>
  <outline>
    <contour>
      <point x="554.89" y="-4.0600000000000005" type="line"/>
      <point x="695.8099999999998" y="2.1399999999999992" type="line"/>
      <point x="453.09999999999997" y="350.73" type="line"/>
      <point x="616.73" y="479.75"/>
      <point x="730.8699999999999" y="580.6"/>
      <point x="767.29" y="700.64" type="curve"/>
      <point x="626.95" y="704.0600000000001" type="line"/>
      <point x="601.9399999999999" y="604.44"/>
      <point x="524.3" y="526.98"/>
      <point x="405.54999999999995" y="431.52000000000004" type="curve"/>
      <point x="229.38" y="704.49" type="line"/>
      <point x="90.39999999999998" y="698.15" type="line"/>
      <point x="312.79999999999995" y="375.93999999999994" type="line"/>
      <point x="147.69000000000003" y="251.92999999999998"/>
      <point x="14.829999999999991" y="121.93"/>
      <point x="-2.630000000000001" y="0.0" type="curve"/>
      <point x="137.33999999999997" y="0.0" type="line"/>
      <point x="154.0" y="105.39999999999998"/>
      <point x="241.89999999999998" y="199.24"/>
      <point x="361.28" y="292.57" type="curve"/>
    </contour>
  </outline>
</glyph>
<glyph name="Y" format="2">
  <advance width="701.104"/>
  <unicode hex="0059"/>
  <anchor x="303.16999999999996" y="0.0" name="bottom"/>
  <anchor x="422.59499999999997" y="700.0" name="top"/>
  <anchor x="80.973" y="700.0" name="topleft"/>
  <outline>
    <contour>
      <point x="254.86599999999996" y="0.0" type="line"/>
      <point x="375.002" y="0.0" type="line"/>
      <point x="420.19699999999995" y="268.423" type="line"/>
      <point x="638.6089999999998" y="471.558"/>
      <point x="707.5729999999999" y="560.359"/>
      <point x="744.391" y="664.2890000000001" type="curve" smooth="yes"/>
      <point x="748.6869999999999" y="675.94"/>
      <point x="753.2410000000001" y="688.22"/>
      <point x="757.268" y="700.8710000000001" type="curve"/>
      <point x="625.2319999999999" y="704.9470000000001" type="line"/>
      <point x="621.565" y="691.898"/>
      <point x="617.871" y="680.22"/>
      <point x="613.806" y="667.671" type="curve" smooth="yes"/>
      <point x="581.38" y="570.774"/>
      <point x="531.565" y="501.17400000000004"/>
      <point x="369.0679999999999" y="355.658" type="curve"/>
      <point x="198.633" y="704.4739999999999" type="line"/>
      <point x="65.802" y="699.075" type="line"/>
      <point x="298.717" y="268.423" type="line"/>
    </contour>
  </outline>
</glyph>
<glyph name="Z" format="2">
  <advance width="720.3100000000001"/>
  <unicode hex="005A"/>
  <anchor x="320.0" y="0.0" name="bottom"/>
  <anchor x="369.73" y="350.0" name="center"/>
  <anchor x="422.28999999999996" y="700.0" name="top"/>
  <outline>
    <contour>
      <point x="-13.650000000000002" y="0.0" type="line"/>
      <point x="652.79" y="0.0" type="line"/>
      <point x="667.8299999999998" y="92.52999999999999" type="line"/>
      <point x="160.95999999999998" y="92.52999999999999" type="line"/>
      <point x="723.28" y="614.48" type="line"/>
      <point x="736.89" y="700.0" type="line"/>
      <point x="124.61999999999998" y="700.0" type="line"/>
      <point x="109.57999999999997" y="607.4699999999999" type="line"/>
      <point x="564.9999999999999" y="607.4699999999999" type="line"/>
      <point x="0.02999999999999775" y="84.66" type="line"/>
    </contour>
  </outline>
</glyph>
<glyph name="bracketleft" format="2">
  <advance width="392.57300000000004"/>
  <unicode hex="005B"/>
  <outline>
    <contour>
      <point x="128.762" y="-133.09" type="line"/>
      <point x="255.616" y="663.489" type="line"/>
      <point x="431.17099999999994" y="663.489" type="line"/>
      <point x="443.631" y="740.0" type="line"/>
      <point x="177.611" y="740.0" type="line"/>
      <point x="26.308999999999997" y="-210.0" type="line"/>
      <point x="291.728" y="-210.0" type="line"/>
      <point x="304.317" y="-133.09" type="line"/>
    </contour>
  </outline>
</glyph>
<glyph name="backslash" format="2">
  <advance width="423.976"/>
  <unicode hex="005C"/>
  <outline>
    <contour>
      <point x="171.676" y="740.0" type="line"/>
      <point x="84.37899999999999" y="740.0" type="line"/>
      <point x="281.053" y="-210.0" type="line"/>
      <point x="368.221" y="-210.0" type="line"/>
    </contour>
  </outline>
</glyph>
<glyph name="bracketright" format="2">
  <advance width="392.57300000000004"/>
  <unicode hex="005D"/>
  <outline>
    <contour>
      <point x="-41.028" y="-133.09" type="line"/>
      <point x="-53.187000000000005" y="-210.0" type="line"/>
      <point x="211.66199999999998" y="-210.0" type="line"/>
      <point x="363.56499999999994" y="740.0" type="line"/>
      <point x="97.716" y="740.0" type="line"/>
      <point x="85.12700000000001" y="663.09" type="line"/>
      <point x="260.682" y="663.09" type="line"/>
      <point x="133.69899999999998" y="-133.09" type="line"/>
    </contour>
  </outline>
</glyph>
<glyph name="asciicircum" format="2">
  <advance width="534.048"/>
  <unicode hex="005E"/>
  <outline>
    <contour>
      <point x="44.318999999999996" y="249.85299999999995" type="line"/>
      <point x="136.31400000000002" y="249.85299999999995" type="line"/>
      <point x="316.31399999999996" y="595.6859999999999" type="line"/>
      <point x="390.489" y="249.85299999999995" type="line"/>
      <point x="481.557" y="249.85299999999995" type="line"/>
      <point x="383.48199999999997" y="705.7" type="line"/>
      <point x="285.977" y="705.7" type="line"/>
    </contour>
  </outline>
</glyph>
<glyph name="underscore" format="2">
  <advance width="862.6479999999999"/>
  <unicode hex="005F"/>
  <outline>
    <contour>
      <point x="-54.963" y="-167.69099999999997" type="line"/>
      <point x="777.033" y="-167.69099999999997" type="line"/>
      <point x="790.611" y="-84.849" type="line"/>
      <point x="-41.38500000000001" y="-84.849" type="line"/>
    </contour>
  </outline>
</glyph>
<glyph name="a" format="2">
  <advance width="680.3289999999998"/>
  <unicode hex="0061"/>
  <note>
15
</note>
  <anchor x="292.20046" y="0.0" name="bottom"/>
  <anchor x="635.7499999999999" y="3.01" name="ogonek"/>
  <anchor x="383.089" y="538.6" name="top"/>
  <outline>
    <contour>
      <point x="562.972" y="-10.0" type="curve" smooth="yes"/>
      <point x="588.8949999999999" y="-10.0"/>
      <point x="617.73" y="-5.121"/>
      <point x="636.0629999999999" y="2.071" type="curve"/>
      <point x="637.377" y="86.455" type="line"/>
      <point x="629.0129999999999" y="83.488"/>
      <point x="619.2889999999999" y="82.09100000000001"/>
      <point x="609.9719999999999" y="82.09100000000001" type="curve" smooth="yes"/>
      <point x="585.5439999999999" y="82.09100000000001"/>
      <point x="575.1619999999999" y="96.272"/>
      <point x="575.1619999999999" y="124.185" type="curve" smooth="yes"/>
      <point x="575.1619999999999" y="132.732"/>
      <point x="594.006" y="248.70599999999996"/>
      <point x="636.1509999999998" y="510.721" type="curve"/>
      <point x="580.4059999999998" y="532.8050000000001"/>
      <point x="481.81899999999996" y="548.6"/>
      <point x="394.70599999999996" y="548.6" type="curve" smooth="yes"/>
      <point x="174.713" y="548.6"/>
      <point x="33.741" y="421.412"/>
      <point x="33.741" y="197.469" type="curve" smooth="yes"/>
      <point x="33.741" y="59.607"/>
      <point x="117.06499999999998" y="-10.0"/>
      <point x="244.79299999999995" y="-10.0" type="curve" smooth="yes"/>
      <point x="322.07800000000003" y="-10.0"/>
      <point x="401.55699999999996" y="16.835999999999995"/>
      <point x="459.90699999999987" y="57.873" type="curve"/>
      <point x="474.695" y="15.681999999999995"/>
      <point x="515.942" y="-10.0"/>
    </contour>
    <contour>
      <point x="456.78999999999996" y="131.02499999999998" type="line"/>
      <point x="410.38199999999995" y="102.24299999999998"/>
      <point x="345.77000000000004" y="81.413"/>
      <point x="290.60599999999994" y="81.413" type="curve" smooth="yes"/>
      <point x="205.57200000000003" y="81.413"/>
      <point x="152.599" y="128.76399999999998"/>
      <point x="152.599" y="215.69199999999998" type="curve" smooth="yes"/>
      <point x="152.599" y="360.04999999999995"/>
      <point x="249.946" y="463.347"/>
      <point x="386.70599999999996" y="463.347" type="curve" smooth="yes"/>
      <point x="433.034" y="463.347"/>
      <point x="474.676" y="456.78700000000003"/>
      <point x="506.16499999999996" y="442.47499999999997" type="curve"/>
    </contour>
  </outline>
</glyph>
<glyph name="b" format="2">
  <advance width="673.751"/>
  <unicode hex="0062"/>
  <note>
12
</note>
  <outline>
    <contour>
      <point x="268.978" y="740.0" type="line"/>
      <point x="151.50800000000004" y="740.0" type="line"/>
      <point x="37.166" y="18.522999999999996" type="line"/>
      <point x="100.92399999999999" y="4.409"/>
      <point x="183.789" y="-10.0"/>
      <point x="277.084" y="-10.0" type="curve" smooth="yes"/>
      <point x="486.042" y="-10.0"/>
      <point x="640.5889999999999" y="123.126"/>
      <point x="640.374" y="348.764" type="curve" smooth="yes"/>
      <point x="640.374" y="472.103"/>
      <point x="577.905" y="548.6"/>
      <point x="451.729" y="548.6" type="curve" smooth="yes"/>
      <point x="370.067" y="548.6"/>
      <point x="300.276" y="517.933"/>
      <point x="225.47500000000002" y="470.111" type="curve"/>
    </contour>
    <contour>
      <point x="395.642" y="454.736" type="curve" smooth="yes"/>
      <point x="480.15899999999993" y="454.736"/>
      <point x="522.0440000000001" y="405.45599999999996"/>
      <point x="522.0440000000001" y="323.61899999999997" type="curve" smooth="yes"/>
      <point x="522.0440000000001" y="180.42600000000002"/>
      <point x="416.93499999999995" y="72.68400000000001"/>
      <point x="289.365" y="72.68400000000001" type="curve" smooth="yes"/>
      <point x="240.666" y="72.68400000000001"/>
      <point x="196.97" y="81.30099999999999"/>
      <point x="166.065" y="89.51100000000001" type="curve"/>
      <point x="213.445" y="389.649" type="line"/>
      <point x="279.306" y="432.7220000000001"/>
      <point x="337.66299999999995" y="454.736"/>
    </contour>
  </outline>
</glyph>
<glyph name="c" format="2">
  <advance width="609.04"/>
  <unicode hex="0063"/>
  <note>
10
</note>
  <anchor x="320.08799999999997" y="0.0" name="bottom"/>
  <anchor x="394.4" y="538.6" name="top"/>
  <outline>
    <contour>
      <point x="308.23599999999993" y="-10.0" type="curve" smooth="yes"/>
      <point x="394.75399999999996" y="-10.0"/>
      <point x="475.31399999999996" y="1.0179999999999998"/>
      <point x="542.1999999999999" y="22.304" type="curve"/>
      <point x="535.5639999999999" y="105.58" type="line"/>
      <point x="469.9959999999999" y="90.35600000000001"/>
      <point x="413.25800000000004" y="79.436"/>
      <point x="338.79799999999994" y="79.436" type="curve" smooth="yes"/>
      <point x="225.94" y="79.436"/>
      <point x="155.426" y="131.1"/>
      <point x="155.426" y="224.02599999999995" type="curve" smooth="yes"/>
      <point x="155.426" y="360.4939999999999"/>
      <point x="248.016" y="458.65"/>
      <point x="390.88599999999997" y="458.65" type="curve" smooth="yes"/>
      <point x="447.908" y="458.65"/>
      <point x="509.464" y="452.174"/>
      <point x="579.2039999999998" y="434.464" type="curve"/>
      <point x="608.466" y="521.89" type="line"/>
      <point x="544.48" y="539.6"/>
      <point x="468.41599999999994" y="548.6"/>
      <point x="395.60599999999994" y="548.6" type="curve" smooth="yes"/>
      <point x="168.076" y="548.6"/>
      <point x="36.708" y="417.27400000000006"/>
      <point x="36.708" y="209.434" type="curve" smooth="yes"/>
      <point x="36.708" y="70.58"/>
      <point x="129.212" y="-10.0"/>
    </contour>
  </outline>
</glyph>
<glyph name="d" format="2">
  <advance width="685.02"/>
  <unicode hex="0064"/>
  <note>
17
</note>
  <anchor x="298.09800000000007" y="0.0" name="bottom"/>
  <anchor x="341.898" y="291.03000000000003" name="center"/>
  <anchor x="408.77" y="740.0" name="top"/>
  <anchor x="740.48" y="740.0" name="topright"/>
  <outline>
    <contour>
      <point x="564.042" y="-10.0" type="curve" smooth="yes"/>
      <point x="587.026" y="-10.0"/>
      <point x="615.548" y="-5.378"/>
      <point x="635.2359999999999" y="2.2860000000000005" type="curve"/>
      <point x="635.3960000000001" y="86.67" type="line"/>
      <point x="627.546" y="83.53"/>
      <point x="617.7379999999999" y="82.30600000000001"/>
      <point x="608.164" y="82.30600000000001" type="curve" smooth="yes"/>
      <point x="585.3059999999999" y="82.30600000000001"/>
      <point x="573.396" y="95.37"/>
      <point x="573.396" y="119.648" type="curve" smooth="yes"/>
      <point x="573.396" y="131.322"/>
      <point x="652.864" y="629.668"/>
      <point x="670.09" y="740.0" type="curve"/>
      <point x="553.05" y="740.0" type="line"/>
      <point x="519.7560000000001" y="531.096" type="line"/>
      <point x="482.4019999999999" y="540.222"/>
      <point x="435.59399999999994" y="548.6"/>
      <point x="376.068" y="548.6" type="curve" smooth="yes"/>
      <point x="183.83999999999997" y="548.6"/>
      <point x="33.442" y="421.464"/>
      <point x="33.442" y="194.736" type="curve" smooth="yes"/>
      <point x="33.442" y="56.402"/>
      <point x="121.51799999999997" y="-10.0"/>
      <point x="242.47599999999994" y="-10.0" type="curve" smooth="yes"/>
      <point x="319.13" y="-10.0"/>
      <point x="404.2719999999999" y="18.21"/>
      <point x="457.8279999999999" y="54.168" type="curve"/>
      <point x="473.1859999999999" y="14.29"/>
      <point x="514.33" y="-10.0"/>
    </contour>
    <contour>
      <point x="286.63" y="82.10000000000001" type="curve" smooth="yes"/>
      <point x="208.47799999999995" y="82.10000000000001"/>
      <point x="152.25799999999998" y="125.99800000000002"/>
      <point x="152.25799999999998" y="209.67799999999997" type="curve" smooth="yes"/>
      <point x="152.25799999999998" y="352.878"/>
      <point x="251.19799999999998" y="463.562"/>
      <point x="383.28599999999994" y="463.562" type="curve" smooth="yes"/>
      <point x="435.24399999999997" y="463.562"/>
      <point x="474.578" y="455.418"/>
      <point x="506.43600000000004" y="447.25" type="curve"/>
      <point x="455.69199999999995" y="127.27799999999998" type="line"/>
      <point x="408.658" y="101.24799999999999"/>
      <point x="343.54599999999994" y="82.10000000000001"/>
    </contour>
  </outline>
</glyph>
<glyph name="e" format="2">
  <advance width="636.9799999999999"/>
  <unicode hex="0065"/>
  <note>
14 points
</note>
  <anchor x="302.104" y="0.0" name="bottom"/>
  <anchor x="485.728" y="9.874" name="ogonek"/>
  <anchor x="386.19199999999995" y="539.114" name="top"/>
  <outline>
    <contour>
      <point x="135.702" y="304.81" type="curve"/>
      <point x="135.184" y="229.71799999999996" type="line"/>
      <point x="186.85999999999999" y="224.63"/>
      <point x="250.90399999999997" y="223.21"/>
      <point x="319.67" y="227.70999999999998" type="curve" smooth="yes"/>
      <point x="511.15000000000003" y="240.654"/>
      <point x="617.07" y="302.83799999999997"/>
      <point x="617.07" y="406.736" type="curve" smooth="yes"/>
      <point x="617.07" y="495.45799999999997"/>
      <point x="529.39" y="548.6"/>
      <point x="394.738" y="548.6" type="curve" smooth="yes"/>
      <point x="165.67" y="548.6"/>
      <point x="36.918" y="410.696"/>
      <point x="36.918" y="217.998" type="curve" smooth="yes"/>
      <point x="36.918" y="75.40199999999999"/>
      <point x="140.05599999999998" y="-10.0"/>
      <point x="311.664" y="-10.0" type="curve" smooth="yes"/>
      <point x="398.21200000000005" y="-10.0"/>
      <point x="485.68" y="5.018"/>
      <point x="563.2" y="32.662" type="curve"/>
      <point x="549.89" y="117.616" type="line"/>
      <point x="469.3239999999999" y="89.874"/>
      <point x="392.422" y="76.85600000000001"/>
      <point x="334.16399999999993" y="76.85600000000001" type="curve" smooth="yes"/>
      <point x="208.984" y="76.85600000000001"/>
      <point x="153.916" y="128.28"/>
      <point x="153.916" y="225.35" type="curve" smooth="yes"/>
      <point x="153.916" y="371.68600000000004"/>
      <point x="246.26399999999998" y="466.47400000000005"/>
      <point x="379.464" y="466.47400000000005" type="curve" smooth="yes"/>
      <point x="456.41399999999993" y="466.47400000000005"/>
      <point x="497.4919999999999" y="441.81800000000004"/>
      <point x="497.4919999999999" y="394.66400000000004" type="curve" smooth="yes"/>
      <point x="497.4919999999999" y="338.07200000000006"/>
      <point x="420.1519999999999" y="310.226"/>
      <point x="286.288" y="301.74999999999994" type="curve" smooth="yes"/>
      <point x="232.84799999999998" y="298.10999999999996"/>
      <point x="179.876" y="298.334"/>
    </contour>
  </outline>
</glyph>
<glyph name="f" format="2">
  <advance width="433.793"/>
  <unicode hex="0066"/>
  <outline>
    <contour>
      <point x="8.720999999999997" y="-220.0" type="curve" smooth="yes"/>
      <point x="106.871" y="-220.0"/>
      <point x="162.692" y="-151.314"/>
      <point x="186.54599999999996" y="-1.368000000000002" type="curve" smooth="yes"/>
      <point x="250.40099999999998" y="405.746" type="line"/>
      <point x="446.234" y="405.746" type="line"/>
      <point x="459.76899999999995" y="489.805" type="line"/>
      <point x="263.635" y="489.805" type="line"/>
      <point x="281.408" y="604.6779999999999"/>
      <point x="328.279" y="655.32"/>
      <point x="414.18399999999997" y="655.32" type="curve" smooth="yes"/>
      <point x="463.85499999999996" y="655.32"/>
      <point x="505.88" y="646.125"/>
      <point x="547.164" y="633.48" type="curve"/>
      <point x="575.6089999999999" y="720.0649999999999" type="line"/>
      <point x="520.65" y="739.679"/>
      <point x="464.462" y="750.0"/>
      <point x="405.85400000000004" y="750.0" type="curve" smooth="yes"/>
      <point x="259.436" y="750.0"/>
      <point x="173.253" y="666.952"/>
      <point x="146.325" y="489.805" type="curve"/>
      <point x="51.205" y="479.861" type="line"/>
      <point x="39.143" y="405.746" type="line"/>
      <point x="132.79" y="405.746" type="line"/>
      <point x="70.243" y="6.996999999999991" type="line" smooth="yes"/>
      <point x="55.23799999999999" y="-87.714"/>
      <point x="32.05499999999999" y="-126.93299999999999"/>
      <point x="-18.46400000000001" y="-126.93299999999999" type="curve" smooth="yes"/>
      <point x="-31.358" y="-126.93299999999999"/>
      <point x="-44.728000000000016" y="-124.79200000000002"/>
      <point x="-59.86099999999999" y="-119.59600000000002" type="curve"/>
      <point x="-82.24600000000001" y="-204.364" type="line"/>
      <point x="-53.327" y="-215.27900000000002"/>
      <point x="-25.391000000000012" y="-220.0"/>
    </contour>
  </outline>
</glyph>
<glyph name="g" format="2">
  <advance width="673.856"/>
  <unicode hex="0067"/>
  <note>
16
</note>
  <anchor x="245.02999999999997" y="-215.28" name="bottom"/>
  <anchor x="384.85599999999994" y="538.6" name="top"/>
  <outline>
    <contour>
      <point x="2.683999999999998" y="-176.106" type="line"/>
      <point x="72.13399999999999" y="-202.14399999999998"/>
      <point x="160.244" y="-220.0"/>
      <point x="254.61" y="-220.0" type="curve" smooth="yes"/>
      <point x="433.67199999999997" y="-220.0"/>
      <point x="532.324" y="-129.48399999999998"/>
      <point x="559.488" y="45.233999999999995" type="curve" smooth="yes"/>
      <point x="633.922" y="513.656" type="line"/>
      <point x="583.954" y="532.59"/>
      <point x="479.804" y="548.6"/>
      <point x="404.638" y="548.6" type="curve" smooth="yes"/>
      <point x="147.396" y="548.6"/>
      <point x="33.054" y="393.394"/>
      <point x="33.054" y="193.60000000000002" type="curve" smooth="yes"/>
      <point x="33.054" y="73.55799999999999"/>
      <point x="111.37599999999999" y="4.1899999999999995"/>
      <point x="241.31999999999996" y="4.1899999999999995" type="curve" smooth="yes"/>
      <point x="297.612" y="4.1899999999999995"/>
      <point x="384.696" y="26.988"/>
      <point x="444.52199999999993" y="61.678" type="curve"/>
      <point x="440.81199999999995" y="37.25" type="line" smooth="yes"/>
      <point x="423.07" y="-82.098"/>
      <point x="357.25600000000003" y="-131.52200000000002"/>
      <point x="241.332" y="-131.52200000000002" type="curve" smooth="yes"/>
      <point x="171.742" y="-131.52200000000002"/>
      <point x="94.648" y="-115.28800000000001"/>
      <point x="31.683999999999994" y="-92.16199999999999" type="curve"/>
    </contour>
    <contour>
      <point x="505.4219999999999" y="446.17199999999997" type="curve"/>
      <point x="457.17799999999994" y="142.27" type="line"/>
      <point x="410.19" y="114.60000000000001"/>
      <point x="340.92999999999995" y="92.378"/>
      <point x="293.24199999999996" y="92.378" type="curve" smooth="yes"/>
      <point x="205.922" y="92.378"/>
      <point x="152.34199999999998" y="134.106"/>
      <point x="152.34199999999998" y="217.73999999999998" type="curve" smooth="yes"/>
      <point x="152.34199999999998" y="349.578"/>
      <point x="241.73600000000002" y="466.04400000000004"/>
      <point x="387.76599999999996" y="466.04400000000004" type="curve" smooth="yes"/>
      <point x="444.108" y="466.04400000000004"/>
      <point x="477.95199999999994" y="454.928"/>
    </contour>
  </outline>
</glyph>
<glyph name="h" format="2">
  <advance width="683.08"/>
  <unicode hex="0068"/>
  <note>
16
</note>
  <anchor x="310.94599999999997" y="0.0" name="bottom"/>
  <anchor x="360.844" y="377.73999999999995" name="center"/>
  <anchor x="412.562" y="740.0" name="top"/>
  <outline>
    <contour>
      <point x="581.236" y="117.714" type="curve" smooth="yes"/>
      <point x="581.236" y="155.404"/>
      <point x="621.898" y="361.092"/>
      <point x="621.898" y="412.73" type="curve" smooth="yes"/>
      <point x="621.898" y="493.066"/>
      <point x="573.538" y="548.6"/>
      <point x="463.452" y="548.6" type="curve" smooth="yes"/>
      <point x="378.2219999999999" y="548.6"/>
      <point x="311.492" y="520.9200000000001"/>
      <point x="227.274" y="479.19599999999997" type="curve"/>
      <point x="268.80600000000004" y="740.0" type="line"/>
      <point x="151.336" y="740.0" type="line"/>
      <point x="33.476" y="0.0" type="line"/>
      <point x="151.376" y="0.0" type="line"/>
      <point x="214.342" y="398.65999999999997" type="line"/>
      <point x="281.672" y="431.59599999999995"/>
      <point x="339.57399999999996" y="456.11199999999997"/>
      <point x="405.20200000000006" y="456.11199999999997" type="curve" smooth="yes"/>
      <point x="472.87800000000004" y="456.11199999999997"/>
      <point x="499.128" y="423.914"/>
      <point x="499.128" y="375.72200000000004" type="curve" smooth="yes"/>
      <point x="499.128" y="323.16600000000005"/>
      <point x="459.078" y="121.55999999999999"/>
      <point x="459.078" y="80.744" type="curve" smooth="yes"/>
      <point x="459.078" y="21.375999999999998"/>
      <point x="504.05400000000003" y="-10.0"/>
      <point x="566.064" y="-10.0" type="curve" smooth="yes"/>
      <point x="590.978" y="-10.0"/>
      <point x="622.696" y="-6.321999999999999"/>
      <point x="644.202" y="1.108" type="curve"/>
      <point x="644.932" y="87.782" type="line"/>
      <point x="635.414" y="84.502"/>
      <point x="623.896" y="82.446"/>
      <point x="614.3359999999999" y="82.446" type="curve" smooth="yes"/>
      <point x="593.2019999999999" y="82.446"/>
      <point x="581.236" y="95.104"/>
    </contour>
  </outline>
</glyph>
<glyph name="i" format="2">
  <advance width="273.129"/>
  <unicode hex="0069"/>
  <note>
Ajuster pts sur points
8
</note>
  <anchor x="92.47764399999998" y="0.0" name="bottom"/>
  <anchor x="151.53599999999997" y="0.0" name="ogonek"/>
  <anchor x="178.20035600000003" y="538.6" name="top"/>
  <outline>
    <contour>
      <point x="34.194" y="0.0" type="line"/>
      <point x="151.53599999999997" y="0.0" type="line"/>
      <point x="236.525" y="538.6" type="line"/>
      <point x="119.61399999999999" y="538.6" type="line"/>
    </contour>
    <contour>
      <point x="210.331" y="744.4" type="curve" smooth="yes"/>
      <point x="154.20299999999997" y="744.4"/>
      <point x="129.547" y="722.3"/>
      <point x="128.635" y="673.035" type="curve" smooth="yes"/>
      <point x="128.464" y="644.579"/>
      <point x="148.61200000000002" y="630.291"/>
      <point x="190.16099999999997" y="630.291" type="curve" smooth="yes"/>
      <point x="239.98499999999999" y="630.291"/>
      <point x="271.043" y="648.4350000000001"/>
      <point x="272.354" y="702.485" type="curve" smooth="yes"/>
      <point x="272.525" y="730.241"/>
      <point x="253.445" y="744.4"/>
    </contour>
  </outline>
</glyph>
<glyph name="j" format="2">
  <advance width="285.423"/>
  <unicode hex="006A"/>
  <note>
idem /i
12
</note>
  <outline>
    <contour>
      <point x="222.926" y="744.4" type="curve" smooth="yes"/>
      <point x="166.49699999999999" y="744.4"/>
      <point x="142.93999999999997" y="722.3"/>
      <point x="142.02800000000002" y="673.035" type="curve" smooth="yes"/>
      <point x="141.857" y="644.579"/>
      <point x="161.63700000000003" y="630.291"/>
      <point x="203.18599999999998" y="630.291" type="curve" smooth="yes"/>
      <point x="251.684" y="630.291"/>
      <point x="282.84000000000003" y="648.4350000000001"/>
      <point x="284.15099999999995" y="702.485" type="curve" smooth="yes"/>
      <point x="284.322" y="730.241"/>
      <point x="266.04" y="744.4"/>
    </contour>
    <contour>
      <point x="249.54999999999998" y="538.6" type="line"/>
      <point x="132.209" y="538.6" type="line"/>
      <point x="43.626999999999995" y="-22.742" type="line" smooth="yes"/>
      <point x="33.109" y="-89.635"/>
      <point x="12.658999999999997" y="-126.93299999999999"/>
      <point x="-34.885" y="-126.93299999999999" type="curve" smooth="yes"/>
      <point x="-46.87499999999999" y="-126.93299999999999"/>
      <point x="-63.038000000000004" y="-125.492"/>
      <point x="-80.233" y="-119.001" type="curve"/>
      <point x="-103.68100000000001" y="-208.241" type="line"/>
      <point x="-75.259" y="-216.74099999999999"/>
      <point x="-37.138" y="-220.0"/>
      <point x="-18.105" y="-220.0" type="curve" smooth="yes"/>
      <point x="92.291" y="-220.0"/>
      <point x="140.66799999999998" y="-148.583"/>
      <point x="161.473" y="-16.347" type="curve" smooth="yes"/>
    </contour>
  </outline>
</glyph>
<glyph name="l" format="2">
  <advance width="333.303"/>
  <unicode hex="006C"/>
  <anchor x="170.064" y="0.0" name="bottom"/>
  <anchor x="169.847806" y="377.525" name="center"/>
  <anchor x="210.142" y="740.0" name="top"/>
  <anchor x="339.38000000000005" y="740.0" name="topright"/>
  <outline>
    <contour>
      <point x="151.42200000000003" y="740.0" type="line"/>
      <point x="59.653999999999996" y="162.05499999999998" type="line" smooth="yes"/>
      <point x="56.922" y="143.718"/>
      <point x="53.82199999999999" y="120.741"/>
      <point x="53.82199999999999" y="100.551" type="curve" smooth="yes"/>
      <point x="53.82199999999999" y="30.361000000000004"/>
      <point x="89.603" y="-10.0"/>
      <point x="171.318" y="-10.0" type="curve" smooth="yes"/>
      <point x="217.029" y="-10.0"/>
      <point x="261.03" y="-1.5890000000000006"/>
      <point x="298.92299999999994" y="10.314999999999998" type="curve"/>
      <point x="299.082" y="99.839" type="line"/>
      <point x="272.414" y="93.35300000000001"/>
      <point x="252.01999999999998" y="89.112"/>
      <point x="229.702" y="89.112" type="curve" smooth="yes"/>
      <point x="188.22999999999996" y="89.112"/>
      <point x="175.82" y="112.612"/>
      <point x="175.82" y="138.763" type="curve" smooth="yes"/>
      <point x="175.82" y="153.966"/>
      <point x="178.058" y="168.64499999999998"/>
      <point x="180.271" y="180.994" type="curve" smooth="yes"/>
      <point x="269.03299999999996" y="740.0" type="line"/>
    </contour>
  </outline>
</glyph>
<glyph name="m" format="2">
  <advance width="1015.906"/>
  <unicode hex="006D"/>
  <note>
24&gt;23 points
un point de trop dans la jointure avec 2e jambage
</note>
  <outline>
    <contour>
      <point x="898.589" y="-10.0" type="curve" smooth="yes"/>
      <point x="923.5459999999999" y="-10.0"/>
      <point x="955.479" y="-6.536999999999999"/>
      <point x="977.1139999999999" y="1.194" type="curve"/>
      <point x="977.672" y="87.008" type="line"/>
      <point x="968.24" y="83.728"/>
      <point x="956.3349999999999" y="82.059"/>
      <point x="946.861" y="82.059" type="curve" smooth="yes"/>
      <point x="926.0279999999999" y="82.059"/>
      <point x="913.9029999999999" y="94.53300000000002"/>
      <point x="913.9029999999999" y="117.78800000000001" type="curve" smooth="yes"/>
      <point x="913.9029999999999" y="157.929"/>
      <point x="955.167" y="361.737"/>
      <point x="955.167" y="413.031" type="curve" smooth="yes"/>
      <point x="955.167" y="492.464"/>
      <point x="904.687" y="548.6"/>
      <point x="794.945" y="548.6" type="curve" smooth="yes"/>
      <point x="710.8489999999999" y="548.6"/>
      <point x="647.0549999999998" y="516.5939999999999"/>
      <point x="569.659" y="468.43000000000006" type="curve"/>
      <point x="553.156" y="516.061"/>
      <point x="512.421" y="548.6"/>
      <point x="434.213" y="548.6" type="curve" smooth="yes"/>
      <point x="362.505" y="548.6"/>
      <point x="294.31100000000004" y="519.98"/>
      <point x="216.20600000000002" y="474.792" type="curve"/>
      <point x="225.69" y="538.6" type="line"/>
      <point x="119.14200000000001" y="538.6" type="line"/>
      <point x="34.251" y="0.0" type="line"/>
      <point x="151.463" y="0.0" type="line"/>
      <point x="215.08599999999998" y="402.36899999999997" type="line"/>
      <point x="273.163" y="435.49399999999997"/>
      <point x="321.614" y="456.155"/>
      <point x="370.74299999999994" y="456.155" type="curve" smooth="yes"/>
      <point x="439.25399999999996" y="456.155"/>
      <point x="461.695" y="418.0"/>
      <point x="461.695" y="368.90900000000005" type="curve" smooth="yes"/>
      <point x="461.695" y="350.187"/>
      <point x="435.94399999999996" y="190.87899999999996"/>
      <point x="407.1909999999999" y="0.0" type="curve"/>
      <point x="523.241" y="0.0" type="line"/>
      <point x="550.188" y="178.67399999999998"/>
      <point x="570.736" y="310.297"/>
      <point x="578.132" y="367.56100000000004" type="curve" smooth="yes"/>
      <point x="578.562" y="376.011"/>
      <point x="579.454" y="391.90000000000003"/>
      <point x="578.915" y="399.44800000000004" type="curve"/>
      <point x="633.635" y="432.513"/>
      <point x="682.625" y="455.252"/>
      <point x="738.896" y="455.252" type="curve" smooth="yes"/>
      <point x="806.559" y="455.252"/>
      <point x="831.8259999999999" y="422.56899999999996"/>
      <point x="831.8259999999999" y="371.82300000000004" type="curve" smooth="yes"/>
      <point x="831.8259999999999" y="321.136"/>
      <point x="792.433" y="123.065"/>
      <point x="792.433" y="81.088" type="curve" smooth="yes"/>
      <point x="792.433" y="20.516"/>
      <point x="836.9660000000001" y="-10.0"/>
    </contour>
  </outline>
</glyph>
<glyph name="n" format="2">
  <advance width="683.168"/>
  <unicode hex="006E"/>
  <note>
16
</note>
  <anchor x="313.788" y="0.0" name="bottom"/>
  <anchor x="375.323" y="538.6" name="top"/>
  <outline>
    <contour>
      <point x="119.14200000000001" y="538.6" type="line"/>
      <point x="34.251" y="0.0" type="line"/>
      <point x="151.16199999999998" y="0.0" type="line"/>
      <point x="214.816" y="399.09" type="line"/>
      <point x="281.401" y="431.847"/>
      <point x="339.017" y="456.326"/>
      <point x="405.63399999999996" y="456.326" type="curve" smooth="yes"/>
      <point x="472.223" y="456.326"/>
      <point x="499.59" y="424.676"/>
      <point x="499.59" y="373.32800000000003" type="curve" smooth="yes"/>
      <point x="499.59" y="320.22999999999996"/>
      <point x="459.89599999999996" y="126.075"/>
      <point x="459.89599999999996" y="80.056" type="curve" smooth="yes"/>
      <point x="459.89599999999996" y="21.418999999999997"/>
      <point x="504.48600000000005" y="-10.0"/>
      <point x="566.1089999999999" y="-10.0" type="curve" smooth="yes"/>
      <point x="591.066" y="-10.0"/>
      <point x="622.741" y="-6.536999999999999"/>
      <point x="644.376" y="1.194" type="curve"/>
      <point x="644.934" y="87.008" type="line"/>
      <point x="635.502" y="83.728"/>
      <point x="623.5969999999999" y="82.059"/>
      <point x="614.1229999999999" y="82.059" type="curve" smooth="yes"/>
      <point x="593.29" y="82.059"/>
      <point x="581.108" y="94.545"/>
      <point x="581.108" y="117.413" type="curve" smooth="yes"/>
      <point x="581.108" y="155.232"/>
      <point x="622.501" y="360.834"/>
      <point x="622.501" y="412.257" type="curve" smooth="yes"/>
      <point x="622.501" y="496.936"/>
      <point x="566.531" y="548.6"/>
      <point x="462.336" y="548.6" type="curve" smooth="yes"/>
      <point x="374.225" y="548.6"/>
      <point x="298.26" y="519.305"/>
      <point x="217.085" y="473.4240000000001" type="curve"/>
      <point x="227.23800000000003" y="538.6" type="line"/>
    </contour>
  </outline>
</glyph>
<glyph name="o" format="2">
  <advance width="672.8599999999999"/>
  <unicode hex="006F"/>
  <note>
8
</note>
  <anchor x="305.93" y="0.0" name="bottom"/>
  <anchor x="338.53000000000003" y="273.29" name="center"/>
  <anchor x="399.3" y="0.28" name="ogonek"/>
  <anchor x="367.74999999999994" y="538.6" name="top"/>
  <anchor x="512.63" y="532.59" name="topright"/>
  <outline>
    <contour>
      <point x="322.29" y="-10.0" type="curve" smooth="yes"/>
      <point x="529.6300000000001" y="-10.0"/>
      <point x="631.76" y="131.16000000000005"/>
      <point x="630.9" y="323.05" type="curve" smooth="yes"/>
      <point x="630.04" y="470.58"/>
      <point x="530.0699999999998" y="549.89"/>
      <point x="349.65" y="549.89" type="curve" smooth="yes"/>
      <point x="139.93999999999997" y="549.89"/>
      <point x="38.46" y="402.28999999999996"/>
      <point x="39.32" y="215.84" type="curve" smooth="yes"/>
      <point x="40.18" y="69.02999999999999"/>
      <point x="138.21999999999997" y="-10.0"/>
    </contour>
    <contour>
      <point x="320.28000000000003" y="72.57000000000001" type="curve" smooth="yes"/>
      <point x="213.42999999999998" y="72.57000000000001"/>
      <point x="155.93" y="118.86999999999999"/>
      <point x="155.93" y="221.27999999999994" type="curve" smooth="yes"/>
      <point x="155.93" y="347.78999999999996"/>
      <point x="217.59" y="467.31999999999994"/>
      <point x="350.00999999999993" y="467.31999999999994" type="curve" smooth="yes"/>
      <point x="454.43" y="467.31999999999994"/>
      <point x="513.43" y="421.09999999999997"/>
      <point x="513.43" y="321.84000000000003" type="curve" smooth="yes"/>
      <point x="513.43" y="187.67000000000002"/>
      <point x="452.04999999999995" y="72.57000000000001"/>
    </contour>
  </outline>
</glyph>
<glyph name="p" format="2">
  <advance width="674.365"/>
  <unicode hex="0070"/>
  <note>
14 point
</note>
  <outline>
    <contour>
      <point x="1.5080000000000007" y="-210.0" type="line"/>
      <point x="117.94699999999999" y="-210.0" type="line"/>
      <point x="152.57399999999998" y="5.8709999999999996" type="line"/>
      <point x="187.26399999999998" y="-1.9220000000000015"/>
      <point x="233.57299999999998" y="-9.785"/>
      <point x="287.836" y="-9.785" type="curve" smooth="yes"/>
      <point x="511.16" y="-9.785"/>
      <point x="640.374" y="137.195"/>
      <point x="640.374" y="347.567" type="curve" smooth="yes"/>
      <point x="640.374" y="474.694"/>
      <point x="575.713" y="548.6"/>
      <point x="451.88199999999995" y="548.6" type="curve" smooth="yes"/>
      <point x="362.11199999999997" y="548.6"/>
      <point x="293.303" y="515.9670000000001"/>
      <point x="216.445" y="467.50000000000006" type="curve"/>
      <point x="226.29500000000002" y="540.31" type="line"/>
      <point x="119.57" y="540.31" type="line"/>
    </contour>
    <contour>
      <point x="286.173" y="72.68400000000001" type="curve" smooth="yes"/>
      <point x="237.474" y="72.68400000000001"/>
      <point x="196.97" y="81.52899999999998"/>
      <point x="165.89399999999998" y="89.739" type="curve"/>
      <point x="213.046" y="389.25" type="line"/>
      <point x="275.715" y="430.55600000000004"/>
      <point x="336.896" y="454.736"/>
      <point x="396.072" y="454.736" type="curve" smooth="yes"/>
      <point x="476.77000000000004" y="454.736"/>
      <point x="522.0440000000001" y="411.27000000000004"/>
      <point x="522.0440000000001" y="322.023" type="curve" smooth="yes"/>
      <point x="522.0440000000001" y="183.96"/>
      <point x="424.62999999999994" y="72.68400000000001"/>
    </contour>
  </outline>
</glyph>
<glyph name="q" format="2">
  <advance width="673.6419999999999"/>
  <unicode hex="0071"/>
  <note>
12
</note>
  <outline>
    <contour>
      <point x="634.4630000000001" y="518.1419999999999" type="line"/>
      <point x="569.972" y="534.064"/>
      <point x="480.38999999999993" y="548.6"/>
      <point x="390.535" y="548.6" type="curve" smooth="yes"/>
      <point x="155.03199999999998" y="548.6"/>
      <point x="32.711000000000006" y="391.911"/>
      <point x="32.711000000000006" y="189.597" type="curve" smooth="yes"/>
      <point x="32.711000000000006" y="68.966"/>
      <point x="106.618" y="-10.0"/>
      <point x="236.487" y="-10.0" type="curve" smooth="yes"/>
      <point x="310.574" y="-10.0"/>
      <point x="374.20500000000004" y="15.225999999999996"/>
      <point x="445.369" y="64.61299999999999" type="curve"/>
      <point x="401.27799999999996" y="-210.0" type="line"/>
      <point x="518.23" y="-210.0" type="line"/>
    </contour>
    <contour>
      <point x="505.9629999999999" y="446.882" type="curve"/>
      <point x="457.39899999999994" y="141.74099999999999" type="line"/>
      <point x="394.36199999999997" y="99.32099999999998"/>
      <point x="338.30299999999994" y="81.284"/>
      <point x="281.228" y="81.284" type="curve" smooth="yes"/>
      <point x="204.582" y="81.284"/>
      <point x="150.45299999999997" y="127.94199999999998"/>
      <point x="150.45299999999997" y="210.776" type="curve" smooth="yes"/>
      <point x="150.45299999999997" y="346.326"/>
      <point x="237.76" y="463.507"/>
      <point x="382.844" y="463.507" type="curve" smooth="yes"/>
      <point x="431.24499999999995" y="463.507"/>
      <point x="474.83500000000004" y="454.92100000000005"/>
    </contour>
  </outline>
</glyph>
<glyph name="r" format="2">
  <advance width="482.085"/>
  <unicode hex="0072"/>
  <anchor x="90.336" y="0.0" name="bottom"/>
  <anchor x="311.78999999999996" y="538.6" name="top"/>
  <outline>
    <contour>
      <point x="224.431" y="538.6" type="line"/>
      <point x="119.74400000000001" y="538.6" type="line"/>
      <point x="33.949999999999996" y="0.0" type="line"/>
      <point x="150.67700000000002" y="0.0" type="line"/>
      <point x="209.803" y="369.922" type="line"/>
      <point x="281.54699999999997" y="425.129"/>
      <point x="340.72" y="445.319"/>
      <point x="393.791" y="445.319" type="curve" smooth="yes"/>
      <point x="422.713" y="445.319"/>
      <point x="454.441" y="440.24899999999997"/>
      <point x="483.11899999999997" y="432.35" type="curve"/>
      <point x="515.95" y="535.1469999999999" type="line"/>
      <point x="491.957" y="543.033"/>
      <point x="459.23" y="548.6"/>
      <point x="425.25199999999995" y="548.6" type="curve" smooth="yes"/>
      <point x="358.099" y="548.6"/>
      <point x="298.07399999999996" y="522.268"/>
      <point x="211.008" y="452.889" type="curve"/>
    </contour>
  </outline>
</glyph>
<glyph name="s" format="2">
  <advance width="563.78"/>
  <unicode hex="0073"/>
  <anchor x="255.31999999999996" y="0.0" name="bottom"/>
  <anchor x="328.99999999999994" y="538.6" name="top"/>
  <outline>
    <contour>
      <point x="-5.969999999999999" y="29.709999999999997" type="line"/>
      <point x="60.78" y="7.779999999999999"/>
      <point x="142.20000000000002" y="-10.0"/>
      <point x="240.05999999999995" y="-10.0" type="curve" smooth="yes"/>
      <point x="399.23999999999995" y="-10.0"/>
      <point x="514.3399999999999" y="36.959999999999994"/>
      <point x="514.3399999999999" y="163.53" type="curve" smooth="yes"/>
      <point x="514.3399999999999" y="347.03"/>
      <point x="175.45" y="284.43"/>
      <point x="175.45" y="392.25" type="curve" smooth="yes"/>
      <point x="175.45" y="435.52"/>
      <point x="221.14000000000001" y="466.46"/>
      <point x="321.47999999999996" y="466.46" type="curve" smooth="yes"/>
      <point x="384.52000000000004" y="466.46"/>
      <point x="455.97999999999996" y="454.32"/>
      <point x="508.4099999999999" y="436.82000000000005" type="curve"/>
      <point x="534.3299999999999" y="517.67" type="line"/>
      <point x="480.03" y="536.0999999999999"/>
      <point x="409.69" y="548.6"/>
      <point x="335.08000000000004" y="548.6" type="curve" smooth="yes"/>
      <point x="162.48999999999998" y="548.6"/>
      <point x="63.64" y="490.6"/>
      <point x="63.64" y="379.5" type="curve" smooth="yes"/>
      <point x="63.64" y="192.11"/>
      <point x="402.46" y="260.66"/>
      <point x="402.46" y="146.05" type="curve" smooth="yes"/>
      <point x="402.46" y="99.49"/>
      <point x="349.40999999999997" y="72.57000000000001"/>
      <point x="250.0" y="72.57000000000001" type="curve" smooth="yes"/>
      <point x="168.84" y="72.57000000000001"/>
      <point x="77.53" y="92.14"/>
      <point x="21.450000000000003" y="113.28" type="curve"/>
    </contour>
  </outline>
</glyph>
<glyph name="t" format="2">
  <advance width="463.29799999999994"/>
  <unicode hex="0074"/>
  <anchor x="232.095" y="0.0" name="bottom"/>
  <anchor x="227.19199999999998" y="284.918" name="center"/>
  <anchor x="235.16" y="663.581" name="top"/>
  <anchor x="430.443" y="780.22" name="topright"/>
  <outline>
    <contour>
      <point x="410.008" y="109.02000000000001" type="line"/>
      <point x="365.029" y="96.062"/>
      <point x="325.46999999999997" y="86.701"/>
      <point x="288.35299999999995" y="86.701" type="curve" smooth="yes"/>
      <point x="228.618" y="86.701"/>
      <point x="207.25399999999996" y="114.017"/>
      <point x="207.25399999999996" y="158.37599999999998" type="curve" smooth="yes"/>
      <point x="207.25399999999996" y="168.82099999999997"/>
      <point x="208.124" y="179.965"/>
      <point x="210.093" y="192.052" type="curve" smooth="yes"/>
      <point x="252.332" y="455.33899999999994" type="line"/>
      <point x="459.831" y="455.33899999999994" type="line"/>
      <point x="474.226" y="538.6" type="line"/>
      <point x="265.824" y="538.6" type="line"/>
      <point x="285.976" y="663.581" type="line"/>
      <point x="185.582" y="663.581" type="line"/>
      <point x="150.246" y="538.6" type="line"/>
      <point x="40.391999999999996" y="528.386" type="line"/>
      <point x="27.2" y="455.46799999999996" type="line"/>
      <point x="134.948" y="455.46799999999996" type="line"/>
      <point x="92.62299999999999" y="186.634" type="line" smooth="yes"/>
      <point x="88.76299999999999" y="163.516"/>
      <point x="86.547" y="138.50000000000003"/>
      <point x="86.547" y="121.526" type="curve" smooth="yes"/>
      <point x="86.547" y="24.827"/>
      <point x="143.73" y="-10.0"/>
      <point x="232.587" y="-10.0" type="curve" smooth="yes"/>
      <point x="287.102" y="-10.0"/>
      <point x="344.772" y="-0.32400000000000007"/>
      <point x="408.57" y="20.413" type="curve"/>
    </contour>
  </outline>
</glyph>
<glyph name="u" format="2">
  <advance width="673.7399999999999"/>
  <unicode hex="0075"/>
  <note>
15
</note>
  <anchor x="290.038" y="0.0" name="bottom"/>
  <anchor x="626.985" y="9.761" name="ogonek"/>
  <anchor x="368.495724" y="538.6" name="top"/>
  <anchor x="624.179" y="538.6" name="topright"/>
  <outline>
    <contour>
      <point x="212.32299999999998" y="-10.0" type="curve" smooth="yes"/>
      <point x="294.648" y="-10.0"/>
      <point x="368.549" y="16.695"/>
      <point x="450.406" y="65.33299999999998" type="curve"/>
      <point x="459.86299999999994" y="16.373"/>
      <point x="494.31500000000005" y="-10.0"/>
      <point x="545.206" y="-10.0" type="curve" smooth="yes"/>
      <point x="570.234" y="-10.0"/>
      <point x="603.4799999999999" y="-2.0130000000000003"/>
      <point x="626.985" y="13.072" type="curve"/>
      <point x="627.169" y="87.05" type="line"/>
      <point x="615.231" y="82.86699999999999"/>
      <point x="604.0740000000001" y="81.15699999999998"/>
      <point x="598.923" y="81.15699999999998" type="curve" smooth="yes"/>
      <point x="576.9409999999999" y="81.15699999999998"/>
      <point x="564.481" y="92.899"/>
      <point x="564.481" y="124.45799999999998" type="curve" smooth="yes"/>
      <point x="564.481" y="133.774"/>
      <point x="565.823" y="152.775"/>
      <point x="628.049" y="538.6" type="curve"/>
      <point x="510.524" y="538.6" type="line"/>
      <point x="448.312" y="134.644" type="line"/>
      <point x="385.22" y="101.65899999999999"/>
      <point x="330.159" y="81.414"/>
      <point x="266.117" y="81.414" type="curve" smooth="yes"/>
      <point x="206.198" y="81.414"/>
      <point x="175.87699999999998" y="110.04"/>
      <point x="176.135" y="159.305" type="curve" smooth="yes"/>
      <point x="178.45700000000002" y="190.67700000000002"/>
      <point x="183.79999999999998" y="227.77199999999996"/>
      <point x="234.183" y="538.6" type="curve"/>
      <point x="116.928" y="538.6" type="line"/>
      <point x="62.91" y="195.498"/>
      <point x="54.752" y="147.748"/>
      <point x="54.752" y="120.9" type="curve" smooth="yes"/>
      <point x="54.752" y="41.222"/>
      <point x="108.24699999999999" y="-10.0"/>
    </contour>
  </outline>
</glyph>
<glyph name="v" format="2">
  <advance width="585.777"/>
  <unicode hex="0076"/>
  <outline>
    <contour>
      <point x="302.13899999999995" y="-0.48400000000000043" type="line"/>
      <point x="516.737" y="305.229"/>
      <point x="593.9929999999999" y="403.09499999999997"/>
      <point x="607.0709999999999" y="538.6" type="curve"/>
      <point x="484.49499999999995" y="538.6" type="line"/>
      <point x="477.377" y="437.183"/>
      <point x="428.31899999999996" y="364.077"/>
      <point x="256.541" y="94.245" type="curve"/>
      <point x="160.293" y="542.59" type="line"/>
      <point x="37.571999999999996" y="539.697" type="line"/>
      <point x="169.63499999999996" y="-0.48400000000000043" type="line"/>
    </contour>
  </outline>
</glyph>
<glyph name="w" format="2">
  <advance width="848.831"/>
  <unicode hex="0077"/>
  <note>
15
</note>
  <anchor x="386.107" y="0.0" name="bottom"/>
  <anchor x="449.357" y="538.6" name="top"/>
  <outline>
    <contour>
      <point x="625.4429999999998" y="0.0" type="line"/>
      <point x="797.3489999999999" y="301.491"/>
      <point x="862.535" y="429.277"/>
      <point x="864.0029999999999" y="538.6" type="curve"/>
      <point x="758.068" y="538.6" type="line"/>
      <point x="754.1379999999999" y="449.82099999999997"/>
      <point x="724.139" y="368.34499999999997"/>
      <point x="573.4489999999998" y="88.86" type="curve"/>
      <point x="522.863" y="528.711" type="line"/>
      <point x="394.33099999999996" y="528.711" type="line"/>
      <point x="331.11199999999997" y="369.99499999999995"/>
      <point x="268.96799999999996" y="236.192"/>
      <point x="202.13700000000003" y="90.118" type="curve"/>
      <point x="151.28999999999996" y="542.59" type="line"/>
      <point x="42.259" y="539.998" type="line"/>
      <point x="115.07499999999999" y="0.0" type="line"/>
      <point x="252.59400000000002" y="0.0" type="line"/>
      <point x="315.383" y="129.10500000000002"/>
      <point x="383.332" y="274.937"/>
      <point x="438.897" y="398.022" type="curve"/>
      <point x="497.642" y="0.0" type="line"/>
    </contour>
  </outline>
</glyph>
<glyph name="x" format="2">
  <advance width="600.33"/>
  <unicode hex="0078"/>
  <outline>
    <contour>
      <point x="499.95" y="538.6" type="line"/>
      <point x="470.62" y="461.60999999999996"/>
      <point x="443.65000000000003" y="419.57"/>
      <point x="331.6099999999999" y="337.66" type="curve"/>
      <point x="197.10999999999999" y="547.6" type="line"/>
      <point x="69.81000000000002" y="537.6" type="line"/>
      <point x="236.35" y="291.89" type="line"/>
      <point x="80.31999999999998" y="182.10999999999999"/>
      <point x="22.459999999999997" y="100.17000000000002"/>
      <point x="-8.490000000000006" y="0.0" type="curve"/>
      <point x="114.92999999999999" y="0.0" type="line"/>
      <point x="138.76999999999998" y="75.97000000000001"/>
      <point x="171.92" y="134.24"/>
      <point x="283.9" y="215.89999999999998" type="curve"/>
      <point x="424.69999999999993" y="-3.6999999999999993" type="line"/>
      <point x="550.4999999999999" y="2.86" type="line"/>
      <point x="376.0799999999999" y="264.32000000000005" type="line"/>
      <point x="524.7099999999998" y="367.15"/>
      <point x="589.2" y="454.99"/>
      <point x="621.01" y="538.6" type="curve"/>
    </contour>
  </outline>
</glyph>
<glyph name="y" format="2">
  <advance width="591.52"/>
  <unicode hex="0079"/>
  <anchor x="243.9099999999999" y="-195.3" name="bottom"/>
  <anchor x="326.85999999999996" y="538.6" name="top"/>
  <outline>
    <contour>
      <point x="493.2099999999999" y="540.31" type="line"/>
      <point x="478.97" y="422.40999999999997"/>
      <point x="379.97" y="229.26"/>
      <point x="275.78999999999996" y="68.2" type="curve"/>
      <point x="157.75" y="544.3" type="line"/>
      <point x="36.550000000000004" y="541.3799999999999" type="line"/>
      <point x="179.58999999999997" y="-3.99" type="line"/>
      <point x="222.93999999999997" y="-3.99" type="line"/>
      <point x="169.75" y="-79.68"/>
      <point x="112.03999999999999" y="-149.46"/>
      <point x="57.580000000000005" y="-208.29000000000002" type="curve"/>
      <point x="182.88" y="-216.2" type="line"/>
      <point x="356.64" y="-13.630000000000003"/>
      <point x="598.71" y="368.33000000000004"/>
      <point x="611.4" y="539.7399999999999" type="curve"/>
    </contour>
  </outline>
</glyph>
<glyph name="z" format="2">
  <advance width="611.201"/>
  <unicode hex="007A"/>
  <anchor x="275.443" y="0.0" name="bottom"/>
  <anchor x="305.08599999999996" y="275.0" name="center"/>
  <anchor x="345.33799999999997" y="538.6" name="top"/>
  <outline>
    <contour>
      <point x="7.689999999999998" y="0.0" type="line"/>
      <point x="540.4329999999999" y="0.0" type="line"/>
      <point x="554.2689999999999" y="84.935" type="line"/>
      <point x="177.85399999999998" y="84.935" type="line"/>
      <point x="587.6919999999999" y="460.271" type="line"/>
      <point x="601.3559999999999" y="538.6" type="line"/>
      <point x="102.839" y="538.6" type="line"/>
      <point x="88.573" y="453.407" type="line"/>
      <point x="433.51399999999995" y="453.407" type="line"/>
      <point x="18.891999999999996" y="74.97500000000001" type="line"/>
    </contour>
  </outline>
</glyph>
<glyph name="braceleft" format="2">
  <advance width="396.50600000000003"/>
  <unicode hex="007B"/>
  <outline>
    <contour>
      <point x="70.06" y="-92.66499999999999" type="curve" smooth="yes"/>
      <point x="70.06" y="-167.37"/>
      <point x="117.16799999999999" y="-210.0"/>
      <point x="207.154" y="-210.0" type="curve" smooth="yes"/>
      <point x="286.21399999999994" y="-210.0" type="line"/>
      <point x="298.80299999999994" y="-131.95000000000002" type="line"/>
      <point x="248.38100000000003" y="-131.95000000000002" type="line" smooth="yes"/>
      <point x="192.738" y="-131.95000000000002"/>
      <point x="173.697" y="-104.445"/>
      <point x="173.697" y="-67.592" type="curve" smooth="yes"/>
      <point x="173.697" y="17.272"/>
      <point x="240.835" y="89.854"/>
      <point x="240.835" y="184.21200000000002" type="curve" smooth="yes"/>
      <point x="240.835" y="217.92000000000002"/>
      <point x="228.273" y="247.472"/>
      <point x="190.59799999999998" y="266.14" type="curve"/>
      <point x="252.213" y="286.55199999999996"/>
      <point x="278.785" y="349.526"/>
      <point x="278.785" y="423.57" type="curve" smooth="yes"/>
      <point x="278.785" y="463.785"/>
      <point x="270.741" y="493.218"/>
      <point x="270.741" y="536.865" type="curve" smooth="yes"/>
      <point x="270.741" y="593.5140000000001"/>
      <point x="290.285" y="661.95"/>
      <point x="375.835" y="661.95" type="curve" smooth="yes"/>
      <point x="425.315" y="661.95" type="line"/>
      <point x="437.646" y="740.0" type="line"/>
      <point x="359.441" y="740.0" type="line" smooth="yes"/>
      <point x="221.91500000000002" y="740.0"/>
      <point x="170.79" y="639.909"/>
      <point x="170.79" y="534.9390000000001" type="curve" smooth="yes"/>
      <point x="170.79" y="492.084"/>
      <point x="178.92" y="454.798"/>
      <point x="178.92" y="417.21299999999997" type="curve" smooth="yes"/>
      <point x="178.92" y="356.87"/>
      <point x="162.361" y="305.551"/>
      <point x="111.648" y="305.551" type="curve" smooth="yes"/>
      <point x="95.621" y="305.551" type="line"/>
      <point x="83.161" y="227.512" type="line"/>
      <point x="99.245" y="227.512" type="line" smooth="yes"/>
      <point x="130.762" y="227.512"/>
      <point x="142.584" y="207.836"/>
      <point x="142.584" y="181.18" type="curve" smooth="yes"/>
      <point x="142.584" y="90.37100000000001"/>
      <point x="70.06" y="11.49"/>
    </contour>
  </outline>
</glyph>
<glyph name="bar" format="2">
  <advance width="263.066"/>
  <unicode hex="007C"/>
  <outline>
    <contour>
      <point x="259.9" y="790.1289999999999" type="line"/>
      <point x="167.94" y="790.1289999999999" type="line"/>
      <point x="8.036999999999997" y="-210.0" type="line"/>
      <point x="99.825" y="-210.0" type="line"/>
    </contour>
  </outline>
</glyph>
<glyph name="braceright" format="2">
  <advance width="396.50600000000003"/>
  <unicode hex="007D"/>
  <outline>
    <contour>
      <point x="323.04699999999997" y="622.665" type="curve" smooth="yes"/>
      <point x="323.04699999999997" y="697.4989999999999"/>
      <point x="275.80999999999995" y="740.1289999999999"/>
      <point x="185.82399999999998" y="740.1289999999999" type="curve" smooth="yes"/>
      <point x="106.764" y="740.1289999999999" type="line"/>
      <point x="94.175" y="662.079" type="line"/>
      <point x="143.30700000000002" y="662.079" type="line" smooth="yes"/>
      <point x="199.079" y="662.079"/>
      <point x="218.249" y="634.445"/>
      <point x="218.249" y="597.592" type="curve" smooth="yes"/>
      <point x="218.249" y="512.47"/>
      <point x="151.111" y="444.007"/>
      <point x="151.111" y="346.94" type="curve" smooth="yes"/>
      <point x="151.111" y="313.619"/>
      <point x="163.54399999999998" y="284.067"/>
      <point x="201.477" y="265.528" type="curve"/>
      <point x="139.862" y="244.987"/>
      <point x="113.161" y="182.271"/>
      <point x="113.161" y="108.09800000000001" type="curve" smooth="yes"/>
      <point x="113.161" y="67.88300000000001"/>
      <point x="121.20500000000001" y="36.911"/>
      <point x="121.20500000000001" y="-6.478" type="curve" smooth="yes"/>
      <point x="121.20500000000001" y="-63.126999999999995"/>
      <point x="101.78999999999999" y="-131.821"/>
      <point x="16.240000000000002" y="-131.821" type="curve" smooth="yes"/>
      <point x="-32.208" y="-131.821" type="line"/>
      <point x="-44.539" y="-210.0" type="line"/>
      <point x="33.53699999999999" y="-210.0" type="line" smooth="yes"/>
      <point x="171.06300000000002" y="-210.0"/>
      <point x="222.18800000000002" y="-108.232"/>
      <point x="222.18800000000002" y="-7.390000000000001" type="curve" smooth="yes"/>
      <point x="222.18800000000002" y="38.948"/>
      <point x="214.058" y="78.289"/>
      <point x="214.058" y="114.971" type="curve" smooth="yes"/>
      <point x="214.058" y="175.05599999999998"/>
      <point x="230.87499999999997" y="226.11700000000002"/>
      <point x="281.33" y="226.11700000000002" type="curve" smooth="yes"/>
      <point x="297.357" y="226.11700000000002" type="line"/>
      <point x="309.817" y="304.02699999999993" type="line"/>
      <point x="293.733" y="304.02699999999993" type="line" smooth="yes"/>
      <point x="262.216" y="304.02699999999993"/>
      <point x="250.394" y="323.703"/>
      <point x="250.394" y="350.35900000000004" type="curve" smooth="yes"/>
      <point x="250.394" y="441.297"/>
      <point x="323.04699999999997" y="516.704"/>
    </contour>
  </outline>
</glyph>
<glyph name="asciitilde" format="2">
  <advance width="539.207"/>
  <unicode hex="007E"/>
  <outline>
    <contour>
      <point x="470.714" y="246.81000000000003" type="curve"/>
      <point x="485.11999999999995" y="342.791" type="line"/>
      <point x="457.178" y="318.54"/>
      <point x="426.27099999999996" y="301.543"/>
      <point x="387.779" y="301.543" type="curve" smooth="yes"/>
      <point x="294.42" y="301.543"/>
      <point x="250.72099999999998" y="395.87"/>
      <point x="171.89" y="395.87" type="curve" smooth="yes"/>
      <point x="128.80999999999997" y="395.87"/>
      <point x="96.122" y="373.599"/>
      <point x="78.51100000000001" y="359.075" type="curve"/>
      <point x="62.6" y="262.695" type="line"/>
      <point x="88.48400000000001" y="281.74999999999994"/>
      <point x="115.761" y="301.136"/>
      <point x="157.005" y="301.136" type="curve" smooth="yes"/>
      <point x="244.14600000000002" y="301.136"/>
      <point x="285.811" y="206.809"/>
      <point x="378.48299999999995" y="206.809" type="curve" smooth="yes"/>
      <point x="412.469" y="206.809"/>
      <point x="446.019" y="224.276"/>
    </contour>
  </outline>
</glyph>
<glyph name="cent" format="2">
  <advance width="825.5459999999999"/>
  <unicode hex="00A2"/>
  <outline>
    <contour>
      <point x="336.477" y="-104.828" type="line"/>
      <point x="421.72900000000004" y="-104.828" type="line"/>
      <point x="437.159" y="-8.268" type="line"/>
      <point x="521.5139999999999" y="-4.984"/>
      <point x="593.1370000000001" y="7.415999999999999"/>
      <point x="640.318" y="20.412" type="curve"/>
      <point x="637.8100000000001" y="107.613" type="line"/>
      <point x="578.5600000000001" y="95.637"/>
      <point x="507.242" y="83.048"/>
      <point x="448.31499999999994" y="83.048" type="curve" smooth="yes"/>
      <point x="330.44399999999996" y="83.048"/>
      <point x="270.657" y="130.66"/>
      <point x="270.657" y="219.71" type="curve" smooth="yes"/>
      <point x="270.657" y="358.573"/>
      <point x="364.086" y="453.57599999999996"/>
      <point x="504.914" y="453.57599999999996" type="curve" smooth="yes"/>
      <point x="571.8839999999999" y="453.57599999999996"/>
      <point x="621.126" y="443.01900000000006"/>
      <point x="680.5469999999999" y="427.88599999999997" type="curve"/>
      <point x="710.0239999999999" y="520.3430000000001" type="line"/>
      <point x="653.7199999999999" y="535.697"/>
      <point x="600.242" y="546.6239999999999"/>
      <point x="526.8190000000001" y="547.784" type="curve"/>
      <point x="542.721" y="643.471" type="line"/>
      <point x="457.469" y="643.471" type="line"/>
      <point x="440.406" y="539.86" type="line"/>
      <point x="256.14199999999994" y="514.572"/>
      <point x="149.661" y="376.207"/>
      <point x="149.661" y="194.96999999999997" type="curve" smooth="yes"/>
      <point x="149.661" y="66.263"/>
      <point x="228.574" y="6.689"/>
      <point x="352.068" y="-4.227" type="curve"/>
    </contour>
  </outline>
</glyph>
<glyph name="sterling" format="2">
  <advance width="826.0619999999999"/>
  <unicode hex="00A3"/>
  <outline>
    <contour>
      <point x="85.752" y="0.0" type="line"/>
      <point x="680.6699999999998" y="0.0" type="line"/>
      <point x="694.8499999999999" y="89.66" type="line"/>
      <point x="239.344" y="89.66" type="line"/>
      <point x="317.014" y="150.056"/>
      <point x="355.90000000000003" y="201.64200000000002"/>
      <point x="355.90000000000003" y="278.236" type="curve" smooth="yes"/>
      <point x="355.90000000000003" y="333.12999999999994"/>
      <point x="317.238" y="394.09799999999996"/>
      <point x="317.238" y="453.624" type="curve" smooth="yes"/>
      <point x="317.238" y="563.432"/>
      <point x="409.57599999999996" y="616.236"/>
      <point x="530.1019999999999" y="616.236" type="curve" smooth="yes"/>
      <point x="601.686" y="616.236"/>
      <point x="666.73" y="608.1659999999999"/>
      <point x="739.8679999999999" y="584.928" type="curve"/>
      <point x="770.546" y="672.06" type="line"/>
      <point x="690.28" y="699.462"/>
      <point x="613.26" y="710.0"/>
      <point x="531.0919999999999" y="710.0" type="curve" smooth="yes"/>
      <point x="366.57" y="710.0"/>
      <point x="204.54" y="635.048"/>
      <point x="204.54" y="470.254" type="curve" smooth="yes"/>
      <point x="204.54" y="393.502"/>
      <point x="245.74" y="339.248"/>
      <point x="245.74" y="274.34799999999996" type="curve" smooth="yes"/>
      <point x="245.74" y="192.534"/>
      <point x="187.112" y="138.284"/>
      <point x="96.79599999999999" y="74.61000000000001" type="curve"/>
    </contour>
    <contour>
      <point x="113.58" y="316.452" type="line"/>
      <point x="628.5059999999999" y="317.078" type="line"/>
      <point x="641.396" y="398.232" type="line"/>
      <point x="126.03999999999999" y="398.232" type="line"/>
    </contour>
  </outline>
</glyph>
<glyph name="currency" format="2">
  <advance width="454.43899999999996"/>
  <unicode hex="00A4"/>
  <outline>
    <contour>
      <point x="74.66499999999999" y="100.831" type="line"/>
      <point x="152.319" y="174.06799999999998" type="line"/>
      <point x="166.751" y="161.808"/>
      <point x="185.676" y="155.237"/>
      <point x="207.97899999999998" y="155.237" type="curve" smooth="yes"/>
      <point x="230.22699999999998" y="155.237"/>
      <point x="252.003" y="162.207"/>
      <point x="270.929" y="174.23999999999998" type="curve"/>
      <point x="326.542" y="100.831" type="line"/>
      <point x="387.711" y="158.304" type="line"/>
      <point x="337.40000000000003" y="225.47799999999998" type="line"/>
      <point x="357.379" y="252.071"/>
      <point x="370.563" y="285.609"/>
      <point x="370.821" y="322.859" type="curve" smooth="yes"/>
      <point x="371.079" y="340.397"/>
      <point x="367.35800000000006" y="357.152"/>
      <point x="360.658" y="371.09799999999996" type="curve"/>
      <point x="431.874" y="438.27200000000005" type="line"/>
      <point x="389.41" y="495.745" type="line"/>
      <point x="311.013" y="422.72299999999996" type="line"/>
      <point x="296.207" y="435.15500000000003"/>
      <point x="276.183" y="442.425"/>
      <point x="253.505" y="442.425" type="curve" smooth="yes"/>
      <point x="231.07299999999998" y="442.425"/>
      <point x="209.739" y="435.026"/>
      <point x="191.15699999999998" y="422.89500000000004" type="curve"/>
      <point x="137.232" y="495.745" type="line"/>
      <point x="76.147" y="438.27200000000005" type="line"/>
      <point x="124.428" y="372.129" type="line"/>
      <point x="103.70600000000002" y="346.151"/>
      <point x="91.22099999999999" y="312.569"/>
      <point x="90.96300000000001" y="276.105" type="curve" smooth="yes"/>
      <point x="90.705" y="256.695"/>
      <point x="94.29700000000001" y="238.86599999999999"/>
      <point x="101.298" y="224.048" type="curve"/>
      <point x="31.683" y="158.304" type="line"/>
    </contour>
    <contour>
      <point x="218.72999999999996" y="220.60199999999998" type="curve" smooth="yes"/>
      <point x="183.22099999999998" y="220.60199999999998"/>
      <point x="159.156" y="248.003"/>
      <point x="159.543" y="285.70799999999997" type="curve" smooth="yes"/>
      <point x="159.92999999999998" y="335.465"/>
      <point x="200.568" y="376.93100000000004"/>
      <point x="243.152" y="376.93100000000004" type="curve" smooth="yes"/>
      <point x="279.133" y="376.93100000000004"/>
      <point x="302.898" y="348.93999999999994"/>
      <point x="302.511" y="312.022" type="curve" smooth="yes"/>
      <point x="302.12399999999997" y="261.275"/>
      <point x="261.681" y="220.60199999999998"/>
    </contour>
  </outline>
</glyph>
<glyph name="yen" format="2">
  <advance width="826.0899999999999"/>
  <unicode hex="00A5"/>
  <outline>
    <contour>
      <point x="147.45999999999998" y="322.93" type="line"/>
      <point x="359.19" y="322.93" type="line"/>
      <point x="347.09" y="248.5" type="line"/>
      <point x="135.85999999999999" y="248.5" type="line"/>
      <point x="125.41" y="182.13" type="line"/>
      <point x="336.7099999999999" y="182.13" type="line"/>
      <point x="308.14" y="0.0" type="line"/>
      <point x="433.63999999999993" y="0.0" type="line"/>
      <point x="462.63999999999993" y="182.13" type="line"/>
      <point x="678.5199999999999" y="182.13" type="line"/>
      <point x="688.4699999999998" y="248.5" type="line"/>
      <point x="472.5899999999999" y="248.5" type="line"/>
      <point x="484.68999999999994" y="322.93" type="line"/>
      <point x="700.5" y="322.93" type="line"/>
      <point x="710.9499999999999" y="388.51000000000005" type="line"/>
      <point x="495.56999999999994" y="388.51000000000005" type="line"/>
      <point x="790.4000000000001" y="697.08" type="line"/>
      <point x="667.17" y="704.56" type="line"/>
      <point x="444.71" y="461.12" type="line"/>
      <point x="295.13" y="703.4200000000001" type="line"/>
      <point x="169.12" y="697.08" type="line"/>
      <point x="369.57" y="388.51000000000005" type="line"/>
      <point x="158.76999999999998" y="388.51000000000005" type="line"/>
    </contour>
  </outline>
</glyph>
<glyph name="brokenbar" format="2">
  <advance width="263.882"/>
  <unicode hex="00A6"/>
  <outline>
    <contour>
      <point x="196.115" y="391.0" type="line"/>
      <point x="260.674" y="790.1289999999999" type="line"/>
      <point x="168.714" y="790.1289999999999" type="line"/>
      <point x="104.15499999999999" y="391.0" type="line"/>
    </contour>
    <contour>
      <point x="72.467" y="190.12900000000002" type="line"/>
      <point x="8.207999999999995" y="-210.0" type="line"/>
      <point x="99.86699999999998" y="-210.0" type="line"/>
      <point x="164.255" y="190.12900000000002" type="line"/>
    </contour>
  </outline>
</glyph>
<glyph name="section" format="2">
  <advance width="581.9169999999999"/>
  <unicode hex="00A7"/>
  <outline>
    <contour>
      <point x="17.593999999999998" y="-68.00400000000002" type="curve"/>
      <point x="-23.608999999999998" y="-163.769" type="line"/>
      <point x="34.22299999999999" y="-199.676"/>
      <point x="96.344" y="-220.0"/>
      <point x="166.97499999999997" y="-220.0" type="curve" smooth="yes"/>
      <point x="354.74999999999994" y="-220.0"/>
      <point x="516.2090000000001" y="-88.32300000000001"/>
      <point x="516.2090000000001" y="128.91699999999997" type="curve" smooth="yes"/>
      <point x="516.2090000000001" y="301.11899999999997"/>
      <point x="388.59799999999996" y="417.315"/>
      <point x="388.59799999999996" y="541.2280000000001" type="curve" smooth="yes"/>
      <point x="388.59799999999996" y="602.312"/>
      <point x="421.72799999999995" y="642.1659999999999"/>
      <point x="479.873" y="642.1659999999999" type="curve" smooth="yes"/>
      <point x="505.66599999999994" y="642.1659999999999"/>
      <point x="525.872" y="634.7189999999999"/>
      <point x="547.126" y="626.525" type="curve"/>
      <point x="579.405" y="728.3969999999999" type="line"/>
      <point x="535.196" y="742.1610000000001"/>
      <point x="479.42299999999994" y="749.6289999999999"/>
      <point x="427.93899999999996" y="749.6289999999999" type="curve" smooth="yes"/>
      <point x="230.65399999999997" y="749.6289999999999"/>
      <point x="74.661" y="612.617"/>
      <point x="74.661" y="398.265" type="curve" smooth="yes"/>
      <point x="74.661" y="213.57"/>
      <point x="201.41600000000003" y="90.41799999999999"/>
      <point x="201.41600000000003" y="-20.038" type="curve" smooth="yes"/>
      <point x="201.41600000000003" y="-75.474"/>
      <point x="164.67999999999998" y="-111.35300000000001"/>
      <point x="119.753" y="-111.35300000000001" type="curve" smooth="yes"/>
      <point x="83.84199999999998" y="-111.35300000000001"/>
      <point x="48.501999999999995" y="-91.49"/>
    </contour>
    <contour>
      <point x="389.08799999999997" y="681.1579999999999" type="curve"/>
      <point x="325.611" y="652.429"/>
      <point x="300.836" y="592.747"/>
      <point x="300.836" y="529.247" type="curve" smooth="yes"/>
      <point x="300.836" y="388.22900000000004"/>
      <point x="423.08799999999997" y="247.77500000000003"/>
      <point x="423.08799999999997" y="102.56200000000001" type="curve" smooth="yes"/>
      <point x="423.08799999999997" y="-49.83399999999999"/>
      <point x="309.003" y="-163.776"/>
      <point x="173.167" y="-158.989" type="curve"/>
      <point x="246.70099999999996" y="-138.205"/>
      <point x="290.30699999999996" y="-70.702"/>
      <point x="290.30699999999996" y="-0.27400000000000824" type="curve" smooth="yes"/>
      <point x="290.30699999999996" y="126.268"/>
      <point x="171.588" y="257.635"/>
      <point x="171.588" y="409.59499999999997" type="curve" smooth="yes"/>
      <point x="171.588" y="556.106"/>
      <point x="250.596" y="665.455"/>
    </contour>
  </outline>
</glyph>
<glyph name="copyright" format="2">
  <advance width="824.937"/>
  <unicode hex="00A9"/>
  <outline>
    <contour>
      <point x="394.38399999999996" y="-10.102" type="curve" smooth="yes"/>
      <point x="642.5919999999999" y="-11.306000000000001"/>
      <point x="781.0109999999999" y="150.20200000000003"/>
      <point x="781.0109999999999" y="395.6569999999999" type="curve" smooth="yes"/>
      <point x="781.0109999999999" y="593.3940000000001"/>
      <point x="656.8139999999999" y="708.5110000000001"/>
      <point x="453.509" y="709.715" type="curve" smooth="yes"/>
      <point x="210.542" y="710.919"/>
      <point x="67.797" y="553.9309999999999"/>
      <point x="67.797" y="304.05800000000005" type="curve" smooth="yes"/>
      <point x="67.797" y="107.62700000000001"/>
      <point x="189.78999999999994" y="-8.898"/>
    </contour>
    <contour>
      <point x="414.71299999999997" y="164.004" type="curve" smooth="yes"/>
      <point x="472.3239999999999" y="164.004"/>
      <point x="524.095" y="175.428"/>
      <point x="564.018" y="190.09900000000002" type="curve"/>
      <point x="556.804" y="252.475" type="line"/>
      <point x="517.8969999999999" y="241.615"/>
      <point x="476.52200000000005" y="233.959"/>
      <point x="434.2780000000001" y="233.959" type="curve" smooth="yes"/>
      <point x="367.087" y="233.959"/>
      <point x="326.67999999999995" y="265.20399999999995"/>
      <point x="326.67999999999995" y="317.91" type="curve" smooth="yes"/>
      <point x="326.67999999999995" y="403.503"/>
      <point x="379.57800000000003" y="463.65899999999993"/>
      <point x="466.045" y="463.65899999999993" type="curve" smooth="yes"/>
      <point x="507.195" y="463.65899999999993"/>
      <point x="541.1469999999999" y="459.105"/>
      <point x="580.4259999999998" y="449.755" type="curve"/>
      <point x="598.9659999999998" y="517.6030000000001" type="line"/>
      <point x="561.81" y="528.415"/>
      <point x="517.9619999999999" y="535.2909999999999"/>
      <point x="468.862" y="535.2909999999999" type="curve" smooth="yes"/>
      <point x="335.855" y="535.2909999999999"/>
      <point x="242.476" y="453.398"/>
      <point x="242.476" y="313.992" type="curve" smooth="yes"/>
      <point x="242.476" y="218.013"/>
      <point x="307.93100000000004" y="164.004"/>
    </contour>
    <contour>
      <point x="401.14099999999996" y="41.578" type="curve" smooth="yes"/>
      <point x="224.63899999999998" y="41.578"/>
      <point x="125.153" y="134.51600000000002"/>
      <point x="125.153" y="309.79400000000004" type="curve" smooth="yes"/>
      <point x="125.153" y="518.42"/>
      <point x="232.34" y="658.6370000000001"/>
      <point x="447.3809999999999" y="658.6370000000001" type="curve" smooth="yes"/>
      <point x="620.3629999999999" y="658.6370000000001"/>
      <point x="723.6549999999997" y="565.097"/>
      <point x="723.6549999999997" y="389.523" type="curve" smooth="yes"/>
      <point x="723.6549999999997" y="181.10100000000006"/>
      <point x="615.978" y="41.578"/>
    </contour>
  </outline>
</glyph>
<glyph name="ordfeminine" format="2">
  <advance width="461.984"/>
  <unicode hex="00AA"/>
  <outline>
    <contour>
      <point x="40.627" y="243.626" type="line"/>
      <point x="401.55999999999995" y="243.626" type="line"/>
      <point x="411.26800000000003" y="305.273" type="line"/>
      <point x="50.335" y="305.273" type="line"/>
    </contour>
    <component base="a.superior" xOffset="12.332"/>
  </outline>
</glyph>
<glyph name="logicalnot" format="2">
  <advance width="535.62"/>
  <unicode hex="00AC"/>
  <outline>
    <contour>
      <point x="66.346" y="342.11600000000004" type="line"/>
      <point x="401.24" y="342.11600000000004" type="line"/>
      <point x="374.616" y="169.733" type="line"/>
      <point x="462.74799999999993" y="169.733" type="line"/>
      <point x="504.54099999999994" y="433.43100000000004" type="line"/>
      <point x="81.515" y="433.43100000000004" type="line"/>
    </contour>
  </outline>
</glyph>
<glyph name="registered" format="2">
  <advance width="755.6800000000001"/>
  <unicode hex="00AE"/>
  <outline>
    <contour>
      <point x="385.643" y="209.79600000000002" type="curve" smooth="yes"/>
      <point x="612.2550000000001" y="209.79600000000002"/>
      <point x="745.985" y="371.825"/>
      <point x="745.985" y="611.2090000000001" type="curve" smooth="yes"/>
      <point x="745.985" y="785.364"/>
      <point x="643.7650000000001" y="892.446"/>
      <point x="456.408" y="892.446" type="curve" smooth="yes"/>
      <point x="229.796" y="892.446"/>
      <point x="97.66799999999999" y="729.9170000000001"/>
      <point x="97.66799999999999" y="491.03299999999996" type="curve" smooth="yes"/>
      <point x="97.66799999999999" y="317.48"/>
      <point x="197.68399999999994" y="209.79600000000002"/>
    </contour>
    <contour>
      <point x="390.97499999999997" y="259.347" type="curve" smooth="yes"/>
      <point x="231.17299999999997" y="259.347"/>
      <point x="149.92299999999997" y="349.62"/>
      <point x="149.92299999999997" y="491.49" type="curve" smooth="yes"/>
      <point x="149.92299999999997" y="706.9789999999999"/>
      <point x="260.63499999999993" y="842.9970000000001"/>
      <point x="451.67800000000005" y="842.9970000000001" type="curve" smooth="yes"/>
      <point x="611.4800000000001" y="842.9970000000001"/>
      <point x="693.73" y="752.622"/>
      <point x="693.73" y="610.252" type="curve" smooth="yes"/>
      <point x="693.73" y="394.763"/>
      <point x="581.4159999999999" y="259.347"/>
    </contour>
    <contour>
      <point x="252.93199999999996" y="392.70099999999996" type="line"/>
      <point x="324.21399999999994" y="392.70099999999996" type="line"/>
      <point x="343.4459999999999" y="510.63599999999997" type="line"/>
      <point x="365.354" y="509.99600000000004"/>
      <point x="386.90399999999994" y="508.754"/>
      <point x="417.53399999999993" y="509.62500000000006" type="curve"/>
      <point x="471.7749999999999" y="525.718" type="line"/>
      <point x="542.6489999999999" y="529.219"/>
      <point x="589.935" y="560.676"/>
      <point x="589.935" y="637.36" type="curve" smooth="yes"/>
      <point x="589.935" y="696.9350000000001"/>
      <point x="547.731" y="721.8419999999999"/>
      <point x="440.32099999999997" y="721.8419999999999" type="curve" smooth="yes"/>
      <point x="406.93199999999996" y="721.8419999999999"/>
      <point x="365.356" y="721.213"/>
      <point x="304.6410000000001" y="717.111" type="curve"/>
    </contour>
    <contour>
      <point x="413.14199999999994" y="559.0310000000001" type="curve" smooth="yes"/>
      <point x="394.39099999999996" y="559.0310000000001"/>
      <point x="379.216" y="559.902"/>
      <point x="351.477" y="560.3" type="curve"/>
      <point x="367.05899999999997" y="663.292" type="line"/>
      <point x="401.0329999999999" y="665.4590000000001"/>
      <point x="408.26500000000004" y="665.9590000000001"/>
      <point x="437.46099999999996" y="665.9590000000001" type="curve" smooth="yes"/>
      <point x="495.9779999999999" y="665.9590000000001"/>
      <point x="516.3469999999999" y="655.458"/>
      <point x="516.3469999999999" y="625.97" type="curve" smooth="yes"/>
      <point x="516.3469999999999" y="579.612"/>
      <point x="495.5809999999999" y="559.0310000000001"/>
    </contour>
    <contour>
      <point x="565.0939999999999" y="389.61" type="curve" smooth="yes"/>
      <point x="567.2389999999999" y="389.61"/>
      <point x="572.303" y="389.86799999999994"/>
      <point x="576.1789999999999" y="390.755" type="curve"/>
      <point x="585.6179999999999" y="456.50100000000003" type="line"/>
      <point x="582.914" y="456.259"/>
      <point x="580.914" y="456.259"/>
      <point x="579.1829999999999" y="456.259" type="curve" smooth="yes"/>
      <point x="556.5730000000001" y="456.259"/>
      <point x="514.2810000000001" y="486.817"/>
      <point x="482.31100000000004" y="537.5609999999999" type="curve"/>
      <point x="400.821" y="518.4040000000001" type="line"/>
      <point x="455.26499999999993" y="436.03"/>
      <point x="509.3779999999999" y="389.61"/>
    </contour>
  </outline>
</glyph>
<glyph name="degree" format="2">
  <advance width="315.015"/>
  <unicode hex="00B0"/>
  <outline>
    <contour>
      <point x="185.93" y="437.69800000000004" type="curve" smooth="yes"/>
      <point x="270.498" y="437.69800000000004"/>
      <point x="332.15599999999995" y="512.989"/>
      <point x="332.15599999999995" y="606.837" type="curve" smooth="yes"/>
      <point x="332.15599999999995" y="667.838"/>
      <point x="298.81" y="719.658"/>
      <point x="225.024" y="719.658" type="curve" smooth="yes"/>
      <point x="140.94299999999998" y="719.658"/>
      <point x="79.271" y="642.418"/>
      <point x="79.271" y="549.368" type="curve" smooth="yes"/>
      <point x="79.271" y="488.893"/>
      <point x="112.48899999999999" y="437.69800000000004"/>
    </contour>
    <contour>
      <point x="195.81" y="513.5120000000001" type="curve" smooth="yes"/>
      <point x="168.177" y="513.5120000000001"/>
      <point x="152.667" y="534.4879999999999"/>
      <point x="152.667" y="563.002" type="curve" smooth="yes"/>
      <point x="152.667" y="607.1149999999999"/>
      <point x="179.817" y="643.3280000000001"/>
      <point x="215.488" y="643.3280000000001" type="curve" smooth="yes"/>
      <point x="244.14600000000002" y="643.3280000000001"/>
      <point x="258.858" y="621.912"/>
      <point x="258.858" y="592.827" type="curve" smooth="yes"/>
      <point x="258.858" y="550.1700000000001"/>
      <point x="230.87900000000002" y="513.5120000000001"/>
    </contour>
  </outline>
</glyph>
<glyph name="plusminus" format="2">
  <advance width="536.564"/>
  <unicode hex="00B1"/>
  <outline>
    <contour>
      <point x="443.2169999999999" y="41.879" type="line"/>
      <point x="458.38599999999997" y="134.655" type="line"/>
      <point x="294.921" y="134.655" type="line"/>
      <point x="320.126" y="294.528" type="line"/>
      <point x="483.42" y="294.528" type="line"/>
      <point x="498.58899999999994" y="387.30400000000003" type="line"/>
      <point x="335.29499999999996" y="387.30400000000003" type="line"/>
      <point x="361.931" y="551.64" type="line"/>
      <point x="263.995" y="551.64" type="line"/>
      <point x="236.928" y="387.30400000000003" type="line"/>
      <point x="74.19500000000001" y="387.30400000000003" type="line"/>
      <point x="59.025999999999996" y="294.528" type="line"/>
      <point x="222.19" y="294.528" type="line"/>
      <point x="196.383" y="134.655" type="line"/>
      <point x="33.992" y="134.655" type="line"/>
      <point x="18.822999999999997" y="41.879" type="line"/>
    </contour>
  </outline>
</glyph>
<glyph name="uni00B2" format="2">
  <advance width="487.5949999999999"/>
  <unicode hex="00B2"/>
  <outline>
    <contour>
      <point x="68.74" y="369.387" type="line"/>
      <point x="449.77400000000006" y="369.387" type="line"/>
      <point x="458.27199999999993" y="423.942" type="line"/>
      <point x="210.654" y="423.942" type="line"/>
      <point x="330.527" y="499.158"/>
      <point x="439.88399999999996" y="566.934"/>
      <point x="439.88399999999996" y="670.153" type="curve" smooth="yes"/>
      <point x="439.88399999999996" y="739.887"/>
      <point x="378.6959999999999" y="772.0319999999999"/>
      <point x="300.402" y="772.0319999999999" type="curve" smooth="yes"/>
      <point x="245.92" y="772.0319999999999"/>
      <point x="176.52099999999996" y="755.0110000000001"/>
      <point x="131.06" y="731.388" type="curve"/>
      <point x="147.79399999999998" y="674.764" type="line"/>
      <point x="188.799" y="696.1619999999999"/>
      <point x="232.49899999999997" y="708.087"/>
      <point x="271.71" y="708.087" type="curve" smooth="yes"/>
      <point x="318.977" y="708.087"/>
      <point x="347.44599999999997" y="687.209"/>
      <point x="347.44599999999997" y="649.007" type="curve" smooth="yes"/>
      <point x="347.07499999999993" y="568.115"/>
      <point x="242.914" y="501.575"/>
      <point x="74.459" y="414.003" type="curve"/>
    </contour>
  </outline>
</glyph>
<glyph name="uni00B3" format="2">
  <advance width="470.805"/>
  <unicode hex="00B3"/>
  <outline>
    <contour>
      <point x="44.005" y="403.33" type="line"/>
      <point x="94.72999999999999" y="375.06000000000006"/>
      <point x="161.325" y="363.57"/>
      <point x="236.885" y="363.57" type="curve" smooth="yes"/>
      <point x="367.585" y="363.57"/>
      <point x="464.46999999999997" y="401.90500000000003"/>
      <point x="464.46999999999997" y="493.09000000000003" type="curve" smooth="yes"/>
      <point x="464.46999999999997" y="536.0000000000001"/>
      <point x="435.27" y="567.775"/>
      <point x="385.715" y="578.71" type="curve"/>
      <point x="436.0" y="593.355"/>
      <point x="472.36" y="625.14"/>
      <point x="472.36" y="674.36" type="curve" smooth="yes"/>
      <point x="472.36" y="733.7899999999998"/>
      <point x="407.39500000000004" y="772.2900000000001"/>
      <point x="290.98" y="772.2900000000001" type="curve" smooth="yes"/>
      <point x="233.435" y="772.2900000000001"/>
      <point x="165.10999999999999" y="762.355"/>
      <point x="120.77" y="747.3550000000001" type="curve"/>
      <point x="126.33999999999999" y="693.655" type="line"/>
      <point x="173.27" y="705.9350000000001"/>
      <point x="230.20499999999998" y="712.645"/>
      <point x="273.57" y="712.645" type="curve" smooth="yes"/>
      <point x="346.24000000000007" y="712.645"/>
      <point x="390.21500000000003" y="692.965"/>
      <point x="390.21500000000003" y="657.88" type="curve" smooth="yes"/>
      <point x="390.21500000000003" y="619.1500000000001"/>
      <point x="345.265" y="598.755"/>
      <point x="278.82499999999993" y="598.755" type="curve" smooth="yes"/>
      <point x="178.15" y="598.755" type="line"/>
      <point x="169.7" y="549.5" type="line"/>
      <point x="261.72" y="549.5" type="line" smooth="yes"/>
      <point x="350.015" y="549.5"/>
      <point x="384.26" y="529.595"/>
      <point x="384.26" y="490.52000000000004" type="curve" smooth="yes"/>
      <point x="384.26" y="444.38"/>
      <point x="330.94" y="420.42"/>
      <point x="233.87999999999997" y="420.42" type="curve" smooth="yes"/>
      <point x="166.98000000000002" y="420.42"/>
      <point x="111.97" y="432.77"/>
      <point x="70.77" y="454.955" type="curve"/>
    </contour>
  </outline>
</glyph>
<glyph name="uni00B5" format="2">
  <advance width="676.083"/>
  <unicode hex="00B5"/>
  <outline>
    <contour>
      <point x="1.8629999999999995" y="-210.0" type="line"/>
      <point x="118.345" y="-210.0" type="line"/>
      <point x="157.315" y="36.315999999999995" type="line"/>
      <point x="168.77599999999998" y="7.229999999999999"/>
      <point x="197.11" y="-10.0"/>
      <point x="242.61599999999999" y="-10.0" type="curve" smooth="yes"/>
      <point x="315.352" y="-10.0"/>
      <point x="380.61" y="15.792"/>
      <point x="453.90999999999997" y="63.785" type="curve"/>
      <point x="463.36699999999996" y="16.115"/>
      <point x="497.303" y="-10.0"/>
      <point x="547.549" y="-10.0" type="curve" smooth="yes"/>
      <point x="572.5769999999999" y="-10.0"/>
      <point x="605.823" y="-2.0130000000000003"/>
      <point x="629.328" y="13.072" type="curve"/>
      <point x="629.5120000000001" y="87.05" type="line"/>
      <point x="617.574" y="82.86699999999999"/>
      <point x="606.417" y="81.15699999999998"/>
      <point x="601.266" y="81.15699999999998" type="curve" smooth="yes"/>
      <point x="579.284" y="81.15699999999998"/>
      <point x="566.824" y="92.899"/>
      <point x="566.824" y="124.45799999999998" type="curve" smooth="yes"/>
      <point x="566.824" y="133.774"/>
      <point x="568.1659999999999" y="152.775"/>
      <point x="630.3919999999999" y="538.6" type="curve"/>
      <point x="512.867" y="538.6" type="line"/>
      <point x="450.655" y="134.644" type="line"/>
      <point x="387.563" y="101.65899999999999"/>
      <point x="331.134" y="81.414"/>
      <point x="268.11800000000005" y="81.414" type="curve" smooth="yes"/>
      <point x="208.199" y="81.414"/>
      <point x="178.04899999999998" y="109.18499999999999"/>
      <point x="178.307" y="158.45" type="curve" smooth="yes"/>
      <point x="181.27399999999997" y="190.506"/>
      <point x="189.734" y="251.02800000000002"/>
      <point x="236.526" y="538.6" type="curve"/>
      <point x="119.27099999999999" y="538.6" type="line"/>
    </contour>
  </outline>
</glyph>
<glyph name="paragraph" format="2">
  <advance width="672.109"/>
  <unicode hex="00B6"/>
  <outline>
    <contour>
      <point x="422.556" y="-210.0" type="line"/>
      <point x="511.11899999999997" y="-210.0" type="line"/>
      <point x="661.8069999999999" y="740.0" type="line"/>
      <point x="573.244" y="740.0" type="line"/>
    </contour>
    <contour>
      <point x="271.485" y="264.811" type="line"/>
      <point x="210.541" y="273.818"/>
      <point x="168.221" y="323.147"/>
      <point x="168.221" y="398.98699999999997" type="curve" smooth="yes"/>
      <point x="168.221" y="527.211"/>
      <point x="234.57099999999997" y="645.853"/>
      <point x="380.363" y="648.3340000000001" type="curve"/>
      <point x="244.80100000000002" y="-210.0" type="line"/>
      <point x="333.364" y="-210.0" type="line"/>
      <point x="484.05199999999996" y="740.0" type="line"/>
      <point x="421.412" y="740.0" type="line" smooth="yes"/>
      <point x="196.41" y="740.0"/>
      <point x="72.066" y="608.689"/>
      <point x="72.066" y="396.593" type="curve" smooth="yes"/>
      <point x="72.066" y="282.052"/>
      <point x="137.576" y="209.721"/>
      <point x="250.79" y="196.41699999999997" type="curve"/>
    </contour>
  </outline>
</glyph>
<glyph name="periodcentered" format="2">
  <advance width="242.0"/>
  <unicode hex="00B7"/>
  <outline>
    <contour>
      <point x="57.702" y="287.60400000000004" type="curve" smooth="yes"/>
      <point x="56.66" y="256.46399999999994"/>
      <point x="74.294" y="241.62"/>
      <point x="114.47799999999998" y="241.62" type="curve" smooth="yes"/>
      <point x="165.766" y="241.62"/>
      <point x="190.416" y="267.13"/>
      <point x="191.654" y="314.77599999999995" type="curve" smooth="yes"/>
      <point x="192.696" y="346.304"/>
      <point x="174.67399999999998" y="361.19"/>
      <point x="134.92" y="361.19" type="curve" smooth="yes"/>
      <point x="84.92199999999998" y="361.19"/>
      <point x="58.94" y="333.96"/>
    </contour>
  </outline>
</glyph>
<glyph name="uni00B9" format="2">
  <advance width="433.882"/>
  <unicode hex="00B9"/>
  <outline>
    <contour>
      <point x="50.861" y="370.0" type="line"/>
      <point x="427.298" y="370.0" type="line"/>
      <point x="436.651" y="425.645" type="line"/>
      <point x="304.01699999999994" y="425.645" type="line"/>
      <point x="359.52500000000003" y="767.138" type="line"/>
      <point x="311.55699999999996" y="767.138" type="line"/>
      <point x="91.001" y="677.2539999999999" type="line"/>
      <point x="99.789" y="616.102" type="line"/>
      <point x="259.774" y="682.9979999999999" type="line"/>
      <point x="216.884" y="425.645" type="line"/>
      <point x="59.728" y="425.645" type="line"/>
    </contour>
  </outline>
</glyph>
<glyph name="ordmasculine" format="2">
  <advance width="435.038"/>
  <unicode hex="00BA"/>
  <outline>
    <contour>
      <point x="36.611999999999995" y="243.626" type="line"/>
      <point x="385.439" y="243.626" type="line"/>
      <point x="394.97599999999994" y="305.273" type="line"/>
      <point x="46.14900000000001" y="305.273" type="line"/>
    </contour>
    <component base="o.superior" xOffset="9.709999999999999"/>
  </outline>
</glyph>
<glyph name="AE" format="2">
  <advance width="1157.268"/>
  <unicode hex="00C6"/>
  <anchor x="540.315512" y="0.0" name="bottom"/>
  <anchor x="660.088" y="700.0" name="top"/>
  <outline>
    <contour>
      <point x="479.912" y="0.0" type="line"/>
      <point x="1073.914" y="0.0" type="line"/>
      <point x="1090.2439999999997" y="100.69999999999999" type="line"/>
      <point x="613.7119999999999" y="100.69999999999999" type="line"/>
      <point x="646.6659999999999" y="308.184" type="line"/>
      <point x="1070.182" y="308.184" type="line"/>
      <point x="1086.512" y="407.16400000000004" type="line"/>
      <point x="662.5659999999999" y="407.16400000000004" type="line"/>
      <point x="692.87" y="599.3" type="line"/>
      <point x="1147.8879999999997" y="599.3" type="line"/>
      <point x="1164.69" y="700.0" type="line"/>
      <point x="520.254" y="700.0" type="line"/>
      <point x="-41.024" y="0.0" type="line"/>
      <point x="95.80399999999999" y="0.0" type="line"/>
      <point x="297.69800000000004" y="250.994" type="line"/>
      <point x="519.3059999999999" y="250.994" type="line"/>
    </contour>
    <contour>
      <point x="361.914" y="338.79400000000004" type="line"/>
      <point x="575.788" y="612.074" type="line"/>
      <point x="533.0559999999999" y="338.79400000000004" type="line"/>
    </contour>
  </outline>
</glyph>
<glyph name="multiply" format="2">
  <advance width="496.724"/>
  <unicode hex="00D7"/>
  <outline>
    <contour>
      <point x="86.04100000000003" y="86.46" type="line"/>
      <point x="245.20000000000002" y="241.316" type="line"/>
      <point x="353.56300000000005" y="84.898" type="line"/>
      <point x="420.52299999999997" y="154.80299999999997" type="line"/>
      <point x="317.325" y="303.382" type="line"/>
      <point x="472.842" y="456.28799999999995" type="line"/>
      <point x="421.427" y="523.2810000000001" type="line"/>
      <point x="263.063" y="368.341" type="line"/>
      <point x="151.2" y="525.861" type="line"/>
      <point x="84.88499999999999" y="458.751" type="line"/>
      <point x="191.326" y="305.672" type="line"/>
      <point x="34.411" y="151.94799999999995" type="line"/>
    </contour>
  </outline>
</glyph>
<glyph name="Oslash" format="2">
  <advance width="886.43"/>
  <unicode hex="00D8"/>
  <anchor x="491.41999999999996" y="700.0" name="top"/>
  <outline>
    <contour>
      <point x="915.0099999999998" y="710.0" type="line"/>
      <point x="794.8499999999999" y="710.0" type="line"/>
      <point x="685.3999999999999" y="612.3" type="line"/>
      <point x="684.8999999999999" y="611.87" type="line"/>
      <point x="157.4" y="149.14000000000001" type="line"/>
      <point x="156.46999999999997" y="148.71" type="line"/>
      <point x="-16.56" y="-5.7" type="line"/>
      <point x="103.53" y="-5.7" type="line"/>
      <point x="209.81999999999996" y="88.77" type="line"/>
      <point x="210.32" y="89.20000000000002" type="line"/>
      <point x="748.28" y="559.81" type="line"/>
      <point x="749.2099999999999" y="560.2399999999999" type="line"/>
    </contour>
    <contour>
      <point x="422.4" y="-9.14" type="curve" smooth="yes"/>
      <point x="688.87" y="-9.14"/>
      <point x="841.8799999999999" y="151.08"/>
      <point x="841.8799999999999" y="402.46000000000004" type="curve" smooth="yes"/>
      <point x="841.8799999999999" y="599.33"/>
      <point x="722.3" y="709.5699999999999"/>
      <point x="475.97999999999996" y="709.5699999999999" type="curve" smooth="yes"/>
      <point x="209.51" y="709.5699999999999"/>
      <point x="56.5" y="549.78"/>
      <point x="56.5" y="297.53999999999996" type="curve" smooth="yes"/>
      <point x="56.5" y="100.66999999999999"/>
      <point x="176.07999999999998" y="-9.14"/>
    </contour>
    <contour>
      <point x="429.64" y="82.89" type="curve" smooth="yes"/>
      <point x="265.98" y="82.89"/>
      <point x="180.42" y="153.37"/>
      <point x="180.42" y="295.31" type="curve" smooth="yes"/>
      <point x="180.42" y="499.58000000000004"/>
      <point x="287.15999999999997" y="617.5400000000001"/>
      <point x="470.46" y="617.5400000000001" type="curve" smooth="yes"/>
      <point x="632.83" y="617.5400000000001"/>
      <point x="717.96" y="547.0600000000001"/>
      <point x="717.96" y="405.11999999999995" type="curve" smooth="yes"/>
      <point x="717.96" y="209.45000000000005"/>
      <point x="612.08" y="82.89"/>
    </contour>
  </outline>
</glyph>
<glyph name="Thorn" format="2">
  <advance width="803.0949999999999"/>
  <unicode hex="00DE"/>
  <outline>
    <contour>
      <point x="42.925" y="0.0" type="line"/>
      <point x="164.91000000000003" y="0.0" type="line"/>
      <point x="187.32" y="138.01999999999998" type="line"/>
      <point x="276.21" y="134.58999999999997"/>
      <point x="320.725" y="133.875"/>
      <point x="390.84499999999997" y="133.875" type="curve" smooth="yes"/>
      <point x="665.33" y="133.875"/>
      <point x="784.6349999999999" y="220.54"/>
      <point x="784.6349999999999" y="419.93499999999995" type="curve" smooth="yes"/>
      <point x="784.6349999999999" y="558.78"/>
      <point x="694.7749999999999" y="627.305"/>
      <point x="448.96" y="627.305" type="curve" smooth="yes"/>
      <point x="414.41999999999996" y="627.305"/>
      <point x="364.305" y="626.0200000000001"/>
      <point x="264.34999999999997" y="622.1" type="curve"/>
      <point x="277.275" y="700.0" type="line"/>
      <point x="155.29" y="700.0" type="line"/>
    </contour>
    <contour>
      <point x="384.61499999999995" y="226.91" type="curve" smooth="yes"/>
      <point x="316.15999999999997" y="226.91"/>
      <point x="278.36" y="227.69500000000002"/>
      <point x="202.79" y="231.48" type="curve"/>
      <point x="249.66499999999996" y="528.4950000000001" type="line"/>
      <point x="359.43500000000006" y="533.7049999999999"/>
      <point x="394.085" y="534.775"/>
      <point x="443.165" y="534.775" type="curve" smooth="yes"/>
      <point x="602.8549999999998" y="534.775"/>
      <point x="659.2099999999999" y="492.52000000000004"/>
      <point x="659.2099999999999" y="410.275" type="curve" smooth="yes"/>
      <point x="659.2099999999999" y="281.63"/>
      <point x="585.6600000000001" y="226.91"/>
    </contour>
  </outline>
</glyph>
<glyph name="germandbls" format="2">
  <advance width="772.78"/>
  <unicode hex="00DF"/>
  <outline>
    <contour>
      <point x="64.75999999999999" y="-24.720000000000006" type="line" smooth="yes"/>
      <point x="54.63" y="-89.22"/>
      <point x="32.92999999999999" y="-126.53000000000002"/>
      <point x="-11.590000000000003" y="-126.53000000000002" type="curve" smooth="yes"/>
      <point x="-24.44" y="-126.53000000000002"/>
      <point x="-40.86000000000001" y="-124.52999999999999"/>
      <point x="-58.699999999999996" y="-118.11" type="curve"/>
      <point x="-80.83000000000001" y="-202.98000000000002" type="line"/>
      <point x="-53.010000000000005" y="-215.35000000000002"/>
      <point x="-16.350000000000012" y="-220.0"/>
      <point x="15.639999999999992" y="-220.0" type="curve" smooth="yes"/>
      <point x="107.78999999999999" y="-220.0"/>
      <point x="158.92000000000002" y="-155.32000000000002"/>
      <point x="176.93" y="-40.47" type="curve" smooth="yes"/>
      <point x="261.54999999999995" y="491.5299999999999" type="line" smooth="yes"/>
      <point x="281.09999999999997" y="613.48"/>
      <point x="345.22999999999996" y="664.6299999999999"/>
      <point x="476.8599999999999" y="664.6299999999999" type="curve" smooth="yes"/>
      <point x="561.8599999999999" y="664.6299999999999"/>
      <point x="607.5500000000001" y="643.8800000000001"/>
      <point x="607.5500000000001" y="605.5199999999999" type="curve" smooth="yes"/>
      <point x="607.5500000000001" y="569.65"/>
      <point x="586.89" y="549.54"/>
      <point x="485.57" y="527.5600000000001" type="curve" smooth="yes"/>
      <point x="372.40000000000003" y="501.28999999999996"/>
      <point x="318.80999999999995" y="458.41"/>
      <point x="318.80999999999995" y="370.65" type="curve" smooth="yes"/>
      <point x="318.80999999999995" y="289.76000000000005"/>
      <point x="373.82" y="251.38000000000002"/>
      <point x="501.9600000000001" y="225.32999999999998" type="curve" smooth="yes"/>
      <point x="604.0299999999999" y="204.21"/>
      <point x="643.5799999999999" y="186.46"/>
      <point x="643.5799999999999" y="147.04000000000002" type="curve" smooth="yes"/>
      <point x="643.5799999999999" y="96.19999999999999"/>
      <point x="583.53" y="72.64"/>
      <point x="488.83" y="72.64" type="curve" smooth="yes"/>
      <point x="423.98" y="72.64"/>
      <point x="335.33" y="87.91999999999999"/>
      <point x="273.27" y="109.47999999999999" type="curve"/>
      <point x="248.78999999999994" y="28.990000000000006" type="line"/>
      <point x="317.51" y="5.139999999999998"/>
      <point x="402.2799999999999" y="-10.5"/>
      <point x="477.72999999999996" y="-10.5" type="curve" smooth="yes"/>
      <point x="657.9399999999999" y="-10.5"/>
      <point x="751.2299999999999" y="43.86"/>
      <point x="751.2299999999999" y="158.28" type="curve" smooth="yes"/>
      <point x="751.2299999999999" y="232.59"/>
      <point x="695.86" y="279.91"/>
      <point x="577.65" y="304.09999999999997" type="curve" smooth="yes"/>
      <point x="459.93" y="328.08"/>
      <point x="422.52" y="341.32"/>
      <point x="422.52" y="381.82" type="curve" smooth="yes"/>
      <point x="422.52" y="421.89"/>
      <point x="460.58" y="436.84"/>
      <point x="562.46" y="461.18" type="curve" smooth="yes"/>
      <point x="669.96" y="486.50999999999993"/>
      <point x="708.25" y="531.48"/>
      <point x="708.25" y="611.24" type="curve" smooth="yes"/>
      <point x="708.25" y="700.6700000000001"/>
      <point x="630.6899999999999" y="750.0"/>
      <point x="479.30999999999995" y="750.0" type="curve" smooth="yes"/>
      <point x="277.96" y="750.0"/>
      <point x="178.81000000000003" y="677.9300000000001"/>
      <point x="150.74" y="509.57" type="curve" smooth="yes"/>
      <point x="147.67000000000002" y="490.02" type="line"/>
      <point x="43.09" y="478.58" type="line"/>
      <point x="29.77" y="405.0899999999999" type="line"/>
      <point x="132.78" y="405.0899999999999" type="line"/>
    </contour>
  </outline>
</glyph>
<glyph name="ae" format="2">
  <advance width="1060.63"/>
  <unicode hex="00E6"/>
  <anchor x="488.7799999999999" y="0.0" name="bottom"/>
  <anchor x="566.52" y="538.6" name="top"/>
  <outline>
    <contour>
      <point x="235.58999999999997" y="-10.0" type="curve" smooth="yes"/>
      <point x="308.55" y="-10.0"/>
      <point x="381.5799999999999" y="16.910000000000004"/>
      <point x="436.86999999999995" y="52.04999999999999" type="curve"/>
      <point x="428.15999999999997" y="-1.6400000000000001" type="line"/>
      <point x="533.52" y="-1.6400000000000001" type="line"/>
      <point x="547.56" y="85.87000000000002" type="line"/>
      <point x="578.82" y="29.81"/>
      <point x="648.01" y="-9.57"/>
      <point x="754.6499999999999" y="-9.57" type="curve" smooth="yes"/>
      <point x="831.0600000000001" y="-9.57"/>
      <point x="919.2199999999999" y="6.629999999999999"/>
      <point x="986.8499999999999" y="32.69" type="curve"/>
      <point x="974.7599999999999" y="116.77" type="line"/>
      <point x="901.9199999999998" y="91.07"/>
      <point x="825.1299999999999" y="76.44000000000001"/>
      <point x="764.7499999999999" y="76.44000000000001" type="curve" smooth="yes"/>
      <point x="648.17" y="76.44000000000001"/>
      <point x="571.81" y="132.76000000000002"/>
      <point x="571.81" y="219.01" type="curve" smooth="yes"/>
      <point x="571.81" y="359.27"/>
      <point x="664.98" y="466.46"/>
      <point x="803.1500000000001" y="466.46" type="curve" smooth="yes"/>
      <point x="879.6699999999998" y="466.46"/>
      <point x="919.0299999999999" y="442.86"/>
      <point x="919.0299999999999" y="397.57" type="curve" smooth="yes"/>
      <point x="919.0299999999999" y="338.21999999999997"/>
      <point x="842.6199999999999" y="304.65000000000003"/>
      <point x="708.3399999999999" y="294.08" type="curve" smooth="yes"/>
      <point x="653.1199999999999" y="289.44"/>
      <point x="598.63" y="291.29"/>
      <point x="552.9" y="297.91999999999996" type="curve"/>
      <point x="552.9099999999999" y="230.33" type="line"/>
      <point x="604.74" y="221.55"/>
      <point x="672.05" y="218.41"/>
      <point x="742.54" y="223.91" type="curve" smooth="yes"/>
      <point x="934.02" y="235.91"/>
      <point x="1039.01" y="306.79999999999995"/>
      <point x="1039.01" y="409.6" type="curve" smooth="yes"/>
      <point x="1039.01" y="496.5"/>
      <point x="965.9999999999999" y="548.6"/>
      <point x="843.35" y="548.6" type="curve" smooth="yes"/>
      <point x="738.2399999999999" y="548.6"/>
      <point x="651.82" y="510.38999999999993"/>
      <point x="605.8499999999999" y="452.41" type="curve"/>
      <point x="619.3099999999998" y="541.6" type="line"/>
      <point x="513.9499999999998" y="541.6" type="line"/>
      <point x="508.31" y="505.18000000000006" type="line"/>
      <point x="467.97999999999996" y="534.25"/>
      <point x="417.0199999999999" y="548.6"/>
      <point x="359.16999999999996" y="548.6" type="curve" smooth="yes"/>
      <point x="170.20999999999998" y="548.6"/>
      <point x="33.18000000000001" y="407.34"/>
      <point x="33.18000000000001" y="194.66" type="curve" smooth="yes"/>
      <point x="33.18000000000001" y="60.709999999999994"/>
      <point x="109.67999999999998" y="-10.0"/>
    </contour>
    <contour>
      <point x="289.8299999999999" y="78.16" type="curve" smooth="yes"/>
      <point x="207.59999999999997" y="78.16"/>
      <point x="152.01" y="122.45"/>
      <point x="152.01" y="210.21" type="curve" smooth="yes"/>
      <point x="152.01" y="374.81000000000006"/>
      <point x="269.89" y="467.03"/>
      <point x="380.75" y="467.03" type="curve" smooth="yes"/>
      <point x="426.11999999999995" y="467.03"/>
      <point x="462.12" y="459.77000000000004"/>
      <point x="497.64" y="436.16" type="curve"/>
      <point x="448.53999999999996" y="126.14999999999998" type="line"/>
      <point x="402.37999999999994" y="97.34"/>
      <point x="342.9" y="78.16"/>
    </contour>
  </outline>
</glyph>
<glyph name="eth" format="2">
  <advance width="707.3699999999998"/>
  <unicode hex="00F0"/>
  <outline>
    <contour>
      <point x="580.0500000000001" y="390.04" type="curve"/>
      <point x="593.87" y="465.79999999999995" type="line"/>
      <point x="536.6600000000001" y="509.31"/>
      <point x="446.91999999999996" y="530.2"/>
      <point x="358.36" y="530.2" type="curve" smooth="yes"/>
      <point x="162.13" y="530.2"/>
      <point x="37.09" y="405.69"/>
      <point x="37.09" y="220.24" type="curve" smooth="yes"/>
      <point x="37.09" y="50.42000000000001"/>
      <point x="153.98" y="-9.14"/>
      <point x="308.71000000000004" y="-9.14" type="curve" smooth="yes"/>
      <point x="507.4" y="-9.14"/>
      <point x="633.42" y="88.35"/>
      <point x="671.93" y="314.89" type="curve" smooth="yes"/>
      <point x="679.1400000000001" y="356.23"/>
      <point x="682.14" y="392.3"/>
      <point x="682.14" y="426.21999999999997" type="curve" smooth="yes"/>
      <point x="682.14" y="643.27"/>
      <point x="522.1099999999999" y="733.2199999999999"/>
      <point x="273.0199999999999" y="733.2199999999999" type="curve" smooth="yes"/>
      <point x="211.23999999999995" y="733.2199999999999"/>
      <point x="162.08999999999997" y="725.79"/>
      <point x="109.46999999999998" y="716.08" type="curve"/>
      <point x="105.16" y="645.12" type="line"/>
      <point x="151.62" y="652.18"/>
      <point x="186.02" y="659.25"/>
      <point x="259.54999999999995" y="659.25" type="curve" smooth="yes"/>
      <point x="468.24999999999994" y="659.25"/>
      <point x="564.96" y="589.77"/>
      <point x="564.96" y="444.93000000000006" type="curve" smooth="yes"/>
      <point x="564.96" y="411.09000000000003"/>
      <point x="562.3900000000001" y="374.45000000000005"/>
      <point x="554.3900000000001" y="330.01" type="curve" smooth="yes"/>
      <point x="522.3300000000002" y="143.05999999999997"/>
      <point x="445.8599999999999" y="73.0"/>
      <point x="319.81" y="73.0" type="curve" smooth="yes"/>
      <point x="218.94000000000003" y="73.0"/>
      <point x="152.41" y="115.6"/>
      <point x="152.41" y="220.73999999999998" type="curve" smooth="yes"/>
      <point x="152.41" y="360.3"/>
      <point x="245.94" y="452.00000000000006"/>
      <point x="377.57000000000005" y="452.00000000000006" type="curve" smooth="yes"/>
      <point x="459.96999999999997" y="452.00000000000006"/>
      <point x="528.6600000000001" y="430.68"/>
    </contour>
    <contour>
      <point x="255.02" y="549.0200000000001" type="line"/>
      <point x="500.74" y="649.41" type="line"/>
      <point x="493.07999999999987" y="652.06" type="line"/>
      <point x="713.1700000000001" y="743.0799999999999" type="line"/>
      <point x="581.77" y="743.0799999999999" type="line"/>
      <point x="429.92999999999995" y="680.83" type="line"/>
      <point x="439.37999999999994" y="679.04" type="line"/>
      <point x="125.34" y="549.0200000000001" type="line"/>
    </contour>
  </outline>
</glyph>
<glyph name="divide" format="2">
  <advance width="537.124"/>
  <unicode hex="00F7"/>
  <outline>
    <contour>
      <point x="187.41199999999998" y="103.40199999999999" type="curve" smooth="yes"/>
      <point x="186.41199999999998" y="79.39399999999999"/>
      <point x="201.466" y="68.892"/>
      <point x="235.158" y="68.892" type="curve" smooth="yes"/>
      <point x="275.864" y="68.892"/>
      <point x="298.322" y="82.79199999999999"/>
      <point x="300.462" y="129.87200000000004" type="curve" smooth="yes"/>
      <point x="301.462" y="153.92200000000003"/>
      <point x="286.324" y="164.38199999999998"/>
      <point x="252.67399999999998" y="164.38199999999998" type="curve" smooth="yes"/>
      <point x="212.482" y="164.38199999999998"/>
      <point x="189.552" y="147.90200000000004"/>
    </contour>
    <contour>
      <point x="248.07" y="477.36799999999994" type="curve" smooth="yes"/>
      <point x="247.07" y="454.21999999999997"/>
      <point x="261.264" y="442.858"/>
      <point x="295.81600000000003" y="442.858" type="curve" smooth="yes"/>
      <point x="336.522" y="442.858"/>
      <point x="358.12" y="458.04799999999994"/>
      <point x="360.26" y="504.26800000000003" type="curve" smooth="yes"/>
      <point x="361.26" y="528.748"/>
      <point x="346.552" y="538.778"/>
      <point x="312.47200000000004" y="538.778" type="curve" smooth="yes"/>
      <point x="271.42" y="538.778"/>
      <point x="250.20999999999998" y="521.438"/>
    </contour>
    <contour>
      <point x="53.102" y="256.64" type="line"/>
      <point x="477.75399999999996" y="256.64" type="line"/>
      <point x="493.752" y="350.59999999999997" type="line"/>
      <point x="68.67000000000002" y="350.59999999999997" type="line"/>
    </contour>
  </outline>
</glyph>
<glyph name="oslash" format="2">
  <advance width="672.8599999999999"/>
  <unicode hex="00F8"/>
  <anchor x="367.9" y="538.6" name="top"/>
  <outline>
    <contour>
      <point x="587.86" y="549.89" type="line"/>
      <point x="508.41" y="472.14" type="line"/>
      <point x="507.05" y="473.0" type="line"/>
      <point x="140.48" y="111.49" type="line"/>
      <point x="138.68999999999997" y="112.78" type="line"/>
      <point x="15.429999999999998" y="-10.0" type="line"/>
      <point x="101.33999999999999" y="-10.0" type="line"/>
      <point x="181.79" y="70.47000000000001" type="line"/>
      <point x="183.57999999999998" y="69.61" type="line"/>
      <point x="552.2299999999999" y="431.4800000000001" type="line"/>
      <point x="553.5899999999999" y="430.19" type="line"/>
      <point x="673.7699999999999" y="549.89" type="line"/>
    </contour>
    <contour>
      <point x="324.72" y="-10.0" type="curve" smooth="yes"/>
      <point x="532.06" y="-10.0"/>
      <point x="634.1899999999998" y="131.16000000000005"/>
      <point x="633.3299999999999" y="323.05" type="curve" smooth="yes"/>
      <point x="632.4699999999999" y="470.58"/>
      <point x="532.5" y="549.89"/>
      <point x="352.08" y="549.89" type="curve" smooth="yes"/>
      <point x="142.37" y="549.89"/>
      <point x="40.89" y="402.28999999999996"/>
      <point x="41.75" y="215.84" type="curve" smooth="yes"/>
      <point x="42.61" y="69.02999999999999"/>
      <point x="140.64999999999998" y="-10.0"/>
    </contour>
    <contour>
      <point x="324.0" y="72.57000000000001" type="curve" smooth="yes"/>
      <point x="217.57999999999998" y="72.14000000000001"/>
      <point x="158.79" y="117.14999999999999"/>
      <point x="158.35999999999999" y="217.41" type="curve" smooth="yes"/>
      <point x="157.5" y="343.48999999999995"/>
      <point x="218.29999999999995" y="466.46000000000004"/>
      <point x="351.15" y="467.32000000000005" type="curve" smooth="yes"/>
      <point x="456.43" y="467.75000000000006"/>
      <point x="515.43" y="421.53000000000003"/>
      <point x="515.8599999999999" y="321.84" type="curve" smooth="yes"/>
      <point x="516.7199999999999" y="188.10000000000002"/>
      <point x="454.90999999999997" y="73.43"/>
    </contour>
  </outline>
</glyph>
<glyph name="thorn" format="2">
  <advance width="673.72"/>
  <unicode hex="00FE"/>
  <outline>
    <contour>
      <point x="1.2930000000000006" y="-210.0" type="line"/>
      <point x="117.73199999999999" y="-210.0" type="line"/>
      <point x="152.35899999999995" y="5.8709999999999996" type="line"/>
      <point x="187.04899999999998" y="-1.9220000000000015"/>
      <point x="233.35799999999998" y="-9.785"/>
      <point x="287.621" y="-9.785" type="curve" smooth="yes"/>
      <point x="510.94500000000005" y="-9.785"/>
      <point x="640.159" y="139.34499999999997"/>
      <point x="640.159" y="349.717" type="curve" smooth="yes"/>
      <point x="640.159" y="476.844"/>
      <point x="575.2829999999999" y="548.6"/>
      <point x="453.602" y="548.6" type="curve" smooth="yes"/>
      <point x="364.262" y="548.6"/>
      <point x="297.388" y="515.322"/>
      <point x="224.39999999999998" y="467.50000000000006" type="curve"/>
      <point x="267.473" y="740.0" type="line"/>
      <point x="151.50800000000004" y="740.0" type="line"/>
    </contour>
    <contour>
      <point x="286.60299999999995" y="74.834" type="curve" smooth="yes"/>
      <point x="238.119" y="74.834"/>
      <point x="197.4" y="83.67899999999999"/>
      <point x="165.89399999999998" y="91.889" type="curve"/>
      <point x="212.831" y="387.315" type="line"/>
      <point x="275.285" y="428.621"/>
      <point x="336.896" y="452.586"/>
      <point x="396.072" y="452.586" type="curve" smooth="yes"/>
      <point x="476.555" y="452.586"/>
      <point x="522.044" y="410.195"/>
      <point x="522.044" y="322.238" type="curve" smooth="yes"/>
      <point x="522.044" y="185.25"/>
      <point x="425.92" y="74.834"/>
    </contour>
  </outline>
</glyph>
<glyph name="Dcroat" format="2">
  <advance width="862.996"/>
  <unicode hex="0110"/>
  <outline>
    <contour>
      <point x="20.144" y="314.632" type="line"/>
      <point x="390.46" y="314.632" type="line"/>
      <point x="405.93" y="401.39000000000004" type="line"/>
      <point x="35.379999999999995" y="401.39000000000004" type="line"/>
    </contour>
    <component base="D" xOffset="5.884000000000001"/>
  </outline>
</glyph>
<glyph name="dcroat" format="2">
  <advance width="687.6059999999999"/>
  <unicode hex="0111"/>
  <outline>
    <contour>
      <point x="355.22599999999994" y="608.236" type="line"/>
      <point x="736.4199999999998" y="608.236" type="line"/>
      <point x="747.5899999999999" y="668.6800000000001" type="line"/>
      <point x="366.396" y="668.6800000000001" type="line"/>
    </contour>
    <component base="d"/>
  </outline>
</glyph>
<glyph name="Hbar" format="2">
  <advance width="872.178"/>
  <unicode hex="0126"/>
  <outline>
    <contour>
      <point x="59.712999999999994" y="496.687" type="line"/>
      <point x="884.164" y="496.687" type="line"/>
      <point x="896.9259999999999" y="577.666" type="line"/>
      <point x="72.475" y="577.666" type="line"/>
    </contour>
    <component base="H" xOffset="1.5159999999999998"/>
  </outline>
</glyph>
<glyph name="hbar" format="2">
  <advance width="682.22"/>
  <unicode hex="0127"/>
  <outline>
    <contour>
      <point x="44.37199999999999" y="608.236" type="line"/>
      <point x="423.07800000000003" y="608.236" type="line"/>
      <point x="433.818" y="668.6800000000001" type="line"/>
      <point x="55.111999999999995" y="668.6800000000001" type="line"/>
    </contour>
    <component base="h" xOffset="-0.8599999999999994"/>
  </outline>
</glyph>
<glyph name="Idotaccent" format="2">
  <advance width="296.79699999999997"/>
  <unicode hex="0130"/>
  <outline>
    <contour>
      <point x="247.301" y="895.5400000000001" type="curve" smooth="yes"/>
      <point x="191.173" y="895.5400000000001"/>
      <point x="166.517" y="873.4399999999999"/>
      <point x="165.605" y="824.1750000000001" type="curve" smooth="yes"/>
      <point x="165.434" y="795.719"/>
      <point x="185.582" y="781.4309999999999"/>
      <point x="227.131" y="781.4309999999999" type="curve" smooth="yes"/>
      <point x="276.955" y="781.4309999999999"/>
      <point x="308.013" y="799.5749999999999"/>
      <point x="309.32399999999996" y="853.6250000000001" type="curve" smooth="yes"/>
      <point x="309.495" y="881.381"/>
      <point x="290.41499999999996" y="895.5400000000001"/>
    </contour>
    <component base="I"/>
  </outline>
</glyph>
<glyph name="dotlessi" format="2">
  <advance width="272.787"/>
  <unicode hex="0131"/>
  <anchor x="92.30664399999999" y="0.0" name="bottom"/>
  <anchor x="151.365" y="0.0" name="ogonek"/>
  <anchor x="178.029356" y="538.6" name="top"/>
  <outline>
    <contour>
      <point x="151.365" y="0.0" type="line"/>
      <point x="236.354" y="538.6" type="line"/>
      <point x="119.44300000000001" y="538.6" type="line"/>
      <point x="34.022999999999996" y="0.301" type="line"/>
    </contour>
  </outline>
</glyph>
<glyph name="kgreenlandic" format="2">
  <advance width="627.53"/>
  <unicode hex="0138"/>
  <anchor x="283.00999999999993" y="0.0" name="bottom"/>
  <anchor x="365.83000000000004" y="538.6" name="top"/>
  <outline>
    <contour>
      <point x="34.349999999999994" y="0.0" type="line"/>
      <point x="151.89" y="0.0" type="line"/>
      <point x="237.47" y="538.6" type="line"/>
      <point x="119.07000000000001" y="538.6" type="line"/>
    </contour>
    <contour>
      <point x="547.8000000000001" y="-10.0" type="curve" smooth="yes"/>
      <point x="559.31" y="-10.0"/>
      <point x="571.4599999999999" y="-7.93"/>
      <point x="581.8299999999999" y="-4.430000000000001" type="curve"/>
      <point x="595.25" y="101.22999999999999" type="line"/>
      <point x="587.9599999999998" y="99.58999999999999"/>
      <point x="580.0299999999999" y="99.44999999999999"/>
      <point x="572.81" y="99.44999999999999" type="curve" smooth="yes"/>
      <point x="531.64" y="99.45"/>
      <point x="482.68999999999994" y="126.99"/>
      <point x="375.73999999999995" y="228.97000000000003" type="curve" smooth="yes"/>
      <point x="199.31" y="396.63" type="line"/>
      <point x="178.26" y="278.88" type="line"/>
      <point x="339.92" y="120.84" type="line" smooth="yes"/>
      <point x="436.34999999999997" y="27.080000000000002"/>
      <point x="490.4" y="-10.0"/>
    </contour>
    <contour>
      <point x="327.18" y="258.93" type="line"/>
      <point x="465.7699999999999" y="331.81000000000006"/>
      <point x="581.0999999999999" y="437.90999999999997"/>
      <point x="636.06" y="537.6" type="curve"/>
      <point x="503.7399999999999" y="548.5300000000001" type="line"/>
      <point x="441.15999999999997" y="445.79"/>
      <point x="371.48" y="380.30000000000007"/>
      <point x="234.2" y="305.18" type="curve"/>
    </contour>
  </outline>
</glyph>
<glyph name="Ldot" format="2">
  <advance width="666.704"/>
  <unicode hex="013F"/>
  <outline>
    <contour>
      <point x="441.85374199999995" y="385.82209800000004" type="curve" smooth="yes"/>
      <point x="441.11274199999997" y="357.004958"/>
      <point x="457.71439799999996" y="343.40843099999995"/>
      <point x="495.532495" y="343.40843099999995" type="curve" smooth="yes"/>
      <point x="542.4761189999999" y="343.40843099999995"/>
      <point x="565.8787319999999" y="364.487711"/>
      <point x="567.417732" y="409.079636" type="curve" smooth="yes"/>
      <point x="568.158732" y="438.155819"/>
      <point x="551.728076" y="451.923346"/>
      <point x="514.296893" y="451.923346" type="curve" smooth="yes"/>
      <point x="467.740312" y="451.923346"/>
      <point x="443.39274199999994" y="429.210023"/>
    </contour>
    <component base="L"/>
  </outline>
</glyph>
<glyph name="ldot" format="2">
  <advance width="371.488"/>
  <unicode hex="0140"/>
  <outline>
    <contour>
      <point x="297.64311" y="370.594085" type="curve" smooth="yes"/>
      <point x="296.90211" y="347.77024200000005"/>
      <point x="307.926924" y="337.60679200000004"/>
      <point x="333.934641" y="337.60679200000004" type="curve" smooth="yes"/>
      <point x="367.71536299999997" y="337.60679200000004"/>
      <point x="382.190875" y="354.588731"/>
      <point x="383.729875" y="390.351724" type="curve" smooth="yes"/>
      <point x="384.470875" y="413.242787"/>
      <point x="373.617061" y="423.57723699999997"/>
      <point x="347.865925" y="423.57723699999997" type="curve" smooth="yes"/>
      <point x="314.341354" y="423.57723699999997"/>
      <point x="299.18210999999997" y="405.542271"/>
    </contour>
    <component base="l"/>
  </outline>
</glyph>
<glyph name="Lslash" format="2">
  <advance width="666.569"/>
  <unicode hex="0141"/>
  <outline>
    <contour>
      <point x="42.22" y="0.0" type="line"/>
      <point x="602.634" y="0.0" type="line"/>
      <point x="619.6089999999999" y="98.937" type="line"/>
      <point x="180.492" y="98.937" type="line"/>
      <point x="208.864" y="278.959" type="line"/>
      <point x="478.508" y="424.013" type="line"/>
      <point x="495.666" y="527.795" type="line"/>
      <point x="225.76399999999998" y="382.612" type="line"/>
      <point x="276.452" y="700.0" type="line"/>
      <point x="154.55300000000003" y="700.0" type="line"/>
      <point x="93.95400000000001" y="321.987" type="line"/>
      <point x="22.251999999999995" y="282.83200000000005" type="line"/>
      <point x="5.911999999999999" y="180.384" type="line"/>
      <point x="76.883" y="219.23800000000003" type="line"/>
    </contour>
  </outline>
</glyph>
<glyph name="lslash" format="2">
  <advance width="339.71"/>
  <unicode hex="0142"/>
  <outline>
    <contour>
      <point x="4.332999999999998" y="175.79900000000004" type="line"/>
      <point x="319.295" y="395.19100000000003" type="line"/>
      <point x="333.701" y="486.48699999999997" type="line"/>
      <point x="18.309" y="267.095" type="line"/>
    </contour>
    <component base="l" xOffset="2.58"/>
  </outline>
</glyph>
<glyph name="Eng" format="2">
  <advance width="849.3799999999999"/>
  <unicode hex="014A"/>
  <outline>
    <contour>
      <point x="42.425" y="0.0" type="line"/>
      <point x="157.24" y="0.0" type="line"/>
      <point x="239.015" y="513.8849999999999" type="line"/>
      <point x="608.16" y="-0.275000000000001" type="line"/>
      <point x="588.99" y="-84.89999999999999"/>
      <point x="526.03" y="-109.86000000000003"/>
      <point x="451.765" y="-109.86000000000003" type="curve" smooth="yes"/>
      <point x="416.44" y="-110.72000000000003"/>
      <point x="381.05" y="-106.23"/>
      <point x="344.705" y="-96.87" type="curve"/>
      <point x="325.79999999999995" y="-189.32500000000002" type="line"/>
      <point x="368.94999999999993" y="-200.19000000000003"/>
      <point x="421.255" y="-204.54"/>
      <point x="455.285" y="-204.54" type="curve" smooth="yes"/>
      <point x="602.015" y="-204.54"/>
      <point x="693.58" y="-145.72000000000003"/>
      <point x="718.4399999999999" y="9.735" type="curve" smooth="yes"/>
      <point x="830.025" y="700.0" type="line"/>
      <point x="715.28" y="700.0" type="line"/>
      <point x="631.785" y="174.8" type="line"/>
      <point x="263.725" y="703.99" type="line"/>
      <point x="155.49999999999997" y="703.99" type="line"/>
    </contour>
  </outline>
</glyph>
<glyph name="eng" format="2">
  <advance width="677.5419999999999"/>
  <unicode hex="014B"/>
  <outline>
    <contour>
      <point x="552.0070000000001" y="-17.838" type="curve" smooth="yes"/>
      <point x="568.1759999999999" y="85.59000000000003"/>
      <point x="621.297" y="398.725"/>
      <point x="621.297" y="419.29600000000005" type="curve" smooth="yes"/>
      <point x="621.297" y="497.35999999999996"/>
      <point x="567.0509999999999" y="548.6"/>
      <point x="462.20599999999996" y="548.6" type="curve" smooth="yes"/>
      <point x="374.095" y="548.6"/>
      <point x="306.989" y="520.208"/>
      <point x="214.376" y="473.4240000000001" type="curve"/>
      <point x="224.52900000000002" y="538.6" type="line"/>
      <point x="119.14200000000001" y="538.6" type="line"/>
      <point x="34.251" y="0.0" type="line"/>
      <point x="149.486" y="0.0" type="line"/>
      <point x="213.913" y="400.595" type="line"/>
      <point x="284.11" y="433.65299999999996"/>
      <point x="337.68299999999994" y="456.627"/>
      <point x="403.99899999999997" y="456.627" type="curve" smooth="yes"/>
      <point x="470.034" y="456.627"/>
      <point x="500.664" y="426.38599999999997"/>
      <point x="498.256" y="371.296" type="curve" smooth="yes"/>
      <point x="494.644" y="333.262"/>
      <point x="462.84399999999994" y="145.76800000000003"/>
      <point x="437.38599999999997" y="-13.655000000000005" type="curve" smooth="yes"/>
      <point x="425.578" y="-86.912"/>
      <point x="399.538" y="-124.038"/>
      <point x="345.88800000000003" y="-124.038" type="curve" smooth="yes"/>
      <point x="336.55899999999997" y="-124.038"/>
      <point x="324.563" y="-123.06899999999999"/>
      <point x="310.587" y="-118.08" type="curve"/>
      <point x="289.63399999999996" y="-214.286" type="line"/>
      <point x="309.288" y="-219.736"/>
      <point x="346.98299999999995" y="-222.39399999999998"/>
      <point x="370.9669999999999" y="-222.39399999999998" type="curve" smooth="yes"/>
      <point x="476.16" y="-222.39399999999998"/>
      <point x="530.901" y="-155.53500000000003"/>
    </contour>
  </outline>
</glyph>
<glyph name="OE" format="2">
  <advance width="1287.4099999999999"/>
  <unicode hex="0152"/>
  <outline>
    <contour>
      <point x="1204.056" y="0.0" type="line"/>
      <point x="1220.816" y="100.7" type="line"/>
      <point x="735.7819999999999" y="100.7" type="line"/>
      <point x="769.2959999999999" y="313.39000000000004" type="line"/>
      <point x="1206.596" y="313.39000000000004" type="line"/>
      <point x="1223.356" y="412.37" type="line"/>
      <point x="784.7660000000001" y="412.37" type="line"/>
      <point x="814.51" y="599.3000000000001" type="line"/>
      <point x="1278.4600000000003" y="599.3000000000001" type="line"/>
      <point x="1294.8319999999999" y="700.0" type="line"/>
      <point x="831.4899999999999" y="700.0" type="line"/>
      <point x="732.442" y="704.252"/>
      <point x="633.4620000000001" y="710.0"/>
      <point x="515.6239999999999" y="710.0" type="curve" smooth="yes"/>
      <point x="252.118" y="710.0"/>
      <point x="58.253999999999984" y="551.184"/>
      <point x="58.253999999999984" y="273.044" type="curve" smooth="yes"/>
      <point x="58.253999999999984" y="85.70800000000001"/>
      <point x="169.20599999999996" y="-10.0"/>
      <point x="430.83599999999996" y="-10.0" type="curve" smooth="yes"/>
      <point x="533.388" y="-10.0"/>
      <point x="617.2259999999999" y="-4.808000000000001"/>
      <point x="718.036" y="0.0" type="curve"/>
    </contour>
    <contour>
      <point x="613.9699999999999" y="86.828" type="line"/>
      <point x="555.494" y="82.49199999999999"/>
      <point x="502.70199999999994" y="79.908"/>
      <point x="436.69999999999993" y="79.908" type="curve" smooth="yes"/>
      <point x="265.78999999999996" y="79.908"/>
      <point x="179.262" y="150.40999999999997"/>
      <point x="179.262" y="282.662" type="curve" smooth="yes"/>
      <point x="179.262" y="483.07"/>
      <point x="313.2539999999999" y="619.2740000000001"/>
      <point x="507.126" y="619.2740000000001" type="curve" smooth="yes"/>
      <point x="551.8100000000001" y="619.2740000000001"/>
      <point x="655.8439999999999" y="615.6619999999999"/>
      <point x="697.942" y="612.9380000000001" type="curve"/>
    </contour>
  </outline>
</glyph>
